  0
SECTION
  2
HEADER
  9
$ACADVER
  1
AC1009
  9
$FILLMODE
 70
 0
  9
$SPLFRAME
 70
 1
  9
$EXTMIN
 10
0
 20
0
 30
0.0
  9
$EXTMAX
 10
1058.33
 20
1058.33
 30
0.0
  0
ENDSEC
  0
SECTION
  2
TABLES
  0
TABLE
  2
LAYER
 70
1
  0
LAYER
  2
0
 70
     0
 62
     7
  6
CONTINUOUS
  0
ENDTAB
  0
ENDSEC
  0
SECTION
  2
ENTITIES
  0
LINE
  8
0
 62
     0
 10
369.574
 20
124.083
 30
0.0
 11
369.729
 21
124.076
 31
0.0
  0
LINE
  8
0
 62
     0
 10
369.729
 20
124.076
 30
0.0
 11
369.884
 21
124.058
 31
0.0
  0
LINE
  8
0
 62
     0
 10
369.884
 20
124.058
 30
0.0
 11
370.039
 21
124.027
 31
0.0
  0
LINE
  8
0
 62
     0
 10
370.039
 20
124.027
 30
0.0
 11
370.191
 21
123.985
 31
0.0
  0
LINE
  8
0
 62
     0
 10
370.191
 20
123.985
 30
0.0
 11
370.336
 21
123.93
 31
0.0
  0
LINE
  8
0
 62
     0
 10
370.336
 20
123.93
 30
0.0
 11
370.48
 21
123.865
 31
0.0
  0
LINE
  8
0
 62
     0
 10
370.48
 20
123.865
 30
0.0
 11
370.614
 21
123.788
 31
0.0
  0
LINE
  8
0
 62
     0
 10
370.614
 20
123.788
 30
0.0
 11
370.745
 21
123.701
 31
0.0
  0
LINE
  8
0
 62
     0
 10
370.745
 20
123.701
 30
0.0
 11
370.872
 21
123.603
 31
0.0
  0
LINE
  8
0
 62
     0
 10
370.872
 20
123.603
 30
0.0
 11
370.985
 21
123.497
 31
0.0
  0
LINE
  8
0
 62
     0
 10
370.985
 20
123.497
 30
0.0
 11
371.09
 21
123.381
 31
0.0
  0
LINE
  8
0
 62
     0
 10
371.09
 20
123.381
 30
0.0
 11
371.189
 21
123.259
 31
0.0
  0
LINE
  8
0
 62
     0
 10
371.189
 20
123.259
 30
0.0
 11
371.277
 21
123.128
 31
0.0
  0
LINE
  8
0
 62
     0
 10
371.277
 20
123.128
 30
0.0
 11
371.355
 21
122.99
 31
0.0
  0
LINE
  8
0
 62
     0
 10
371.355
 20
122.99
 30
0.0
 11
371.419
 21
122.848
 31
0.0
  0
LINE
  8
0
 62
     0
 10
371.419
 20
122.848
 30
0.0
 11
371.475
 21
122.702
 31
0.0
  0
LINE
  8
0
 62
     0
 10
371.475
 20
122.702
 30
0.0
 11
371.514
 21
122.549
 31
0.0
  0
LINE
  8
0
 62
     0
 10
371.514
 20
122.549
 30
0.0
 11
371.546
 21
122.396
 31
0.0
  0
LINE
  8
0
 62
     0
 10
371.546
 20
122.396
 30
0.0
 11
371.563
 21
122.239
 31
0.0
  0
LINE
  8
0
 62
     0
 10
371.563
 20
122.239
 30
0.0
 11
371.57
 21
122.082
 31
0.0
  0
LINE
  8
0
 62
     0
 10
371.57
 20
122.082
 30
0.0
 11
371.57
 21
2.25585
 31
0.0
  0
LINE
  8
0
 62
     0
 10
371.57
 20
2.25585
 30
0.0
 11
371.563
 21
2.10013
 31
0.0
  0
LINE
  8
0
 62
     0
 10
371.563
 20
2.10013
 30
0.0
 11
371.546
 21
1.94441
 31
0.0
  0
LINE
  8
0
 62
     0
 10
371.546
 20
1.94441
 30
0.0
 11
371.514
 21
1.79007
 31
0.0
  0
LINE
  8
0
 62
     0
 10
371.514
 20
1.79007
 30
0.0
 11
371.475
 21
1.63849
 31
0.0
  0
LINE
  8
0
 62
     0
 10
371.475
 20
1.63849
 30
0.0
 11
371.419
 21
1.49104
 31
0.0
  0
LINE
  8
0
 62
     0
 10
371.419
 20
1.49104
 30
0.0
 11
371.355
 21
1.3491
 31
0.0
  0
LINE
  8
0
 62
     0
 10
371.355
 20
1.3491
 30
0.0
 11
371.277
 21
1.21267
 31
0.0
  0
LINE
  8
0
 62
     0
 10
371.277
 20
1.21267
 30
0.0
 11
371.189
 21
1.08176
 31
0.0
  0
LINE
  8
0
 62
     0
 10
371.189
 20
1.08176
 30
0.0
 11
371.09
 21
0.957735
 31
0.0
  0
LINE
  8
0
 62
     0
 10
371.09
 20
0.957735
 30
0.0
 11
370.985
 21
0.841982
 31
0.0
  0
LINE
  8
0
 62
     0
 10
370.985
 20
0.841982
 30
0.0
 11
370.872
 21
0.735873
 31
0.0
  0
LINE
  8
0
 62
     0
 10
370.872
 20
0.735873
 30
0.0
 11
370.745
 21
0.63941
 31
0.0
  0
LINE
  8
0
 62
     0
 10
370.745
 20
0.63941
 30
0.0
 11
370.614
 21
0.551215
 31
0.0
  0
LINE
  8
0
 62
     0
 10
370.614
 20
0.551215
 30
0.0
 11
370.48
 21
0.474045
 31
0.0
  0
LINE
  8
0
 62
     0
 10
370.48
 20
0.474045
 30
0.0
 11
370.336
 21
0.409279
 31
0.0
  0
LINE
  8
0
 62
     0
 10
370.336
 20
0.409279
 30
0.0
 11
370.191
 21
0.354157
 31
0.0
  0
LINE
  8
0
 62
     0
 10
370.191
 20
0.354157
 30
0.0
 11
370.039
 21
0.312815
 31
0.0
  0
LINE
  8
0
 62
     0
 10
370.039
 20
0.312815
 30
0.0
 11
369.884
 21
0.282498
 31
0.0
  0
LINE
  8
0
 62
     0
 10
369.884
 20
0.282498
 30
0.0
 11
369.729
 21
0.264583
 31
0.0
  0
LINE
  8
0
 62
     0
 10
369.729
 20
0.264583
 30
0.0
 11
369.574
 21
0.256315
 31
0.0
  0
LINE
  8
0
 62
     0
 10
369.574
 20
0.256315
 30
0.0
 11
2.096
 21
0.256315
 31
0.0
  0
LINE
  8
0
 62
     0
 10
2.096
 20
0.256315
 30
0.0
 11
1.9389
 21
0.264583
 31
0.0
  0
LINE
  8
0
 62
     0
 10
1.9389
 20
0.264583
 30
0.0
 11
1.7818
 21
0.282498
 31
0.0
  0
LINE
  8
0
 62
     0
 10
1.7818
 20
0.282498
 30
0.0
 11
1.62884
 21
0.312815
 31
0.0
  0
LINE
  8
0
 62
     0
 10
1.62884
 20
0.312815
 30
0.0
 11
1.47588
 21
0.354157
 31
0.0
  0
LINE
  8
0
 62
     0
 10
1.47588
 20
0.354157
 30
0.0
 11
1.32981
 21
0.409279
 31
0.0
  0
LINE
  8
0
 62
     0
 10
1.32981
 20
0.409279
 30
0.0
 11
1.18787
 21
0.474045
 31
0.0
  0
LINE
  8
0
 62
     0
 10
1.18787
 20
0.474045
 30
0.0
 11
1.05006
 21
0.551215
 31
0.0
  0
LINE
  8
0
 62
     0
 10
1.05006
 20
0.551215
 30
0.0
 11
0.919152
 21
0.63941
 31
0.0
  0
LINE
  8
0
 62
     0
 10
0.919152
 20
0.63941
 30
0.0
 11
0.796505
 21
0.735873
 31
0.0
  0
LINE
  8
0
 62
     0
 10
0.796505
 20
0.735873
 30
0.0
 11
0.680752
 21
0.841982
 31
0.0
  0
LINE
  8
0
 62
     0
 10
0.680752
 20
0.841982
 30
0.0
 11
0.574643
 21
0.957735
 31
0.0
  0
LINE
  8
0
 62
     0
 10
0.574643
 20
0.957735
 30
0.0
 11
0.4768
 21
1.08176
 31
0.0
  0
LINE
  8
0
 62
     0
 10
0.4768
 20
1.08176
 30
0.0
 11
0.389985
 21
1.21267
 31
0.0
  0
LINE
  8
0
 62
     0
 10
0.389985
 20
1.21267
 30
0.0
 11
0.312815
 21
1.3491
 31
0.0
  0
LINE
  8
0
 62
     0
 10
0.312815
 20
1.3491
 30
0.0
 11
0.248047
 21
1.49104
 31
0.0
  0
LINE
  8
0
 62
     0
 10
0.248047
 20
1.49104
 30
0.0
 11
0.192925
 21
1.63849
 31
0.0
  0
LINE
  8
0
 62
     0
 10
0.192925
 20
1.63849
 30
0.0
 11
0.150206
 21
1.79007
 31
0.0
  0
LINE
  8
0
 62
     0
 10
0.150206
 20
1.79007
 30
0.0
 11
0.119889
 21
1.94441
 31
0.0
  0
LINE
  8
0
 62
     0
 10
0.119889
 20
1.94441
 30
0.0
 11
0.101975
 21
2.10013
 31
0.0
  0
LINE
  8
0
 62
     0
 10
0.101975
 20
2.10013
 30
0.0
 11
0.0950846
 21
2.25585
 31
0.0
  0
LINE
  8
0
 62
     0
 10
0.0950846
 20
2.25585
 30
0.0
 11
0.0950846
 21
122.082
 31
0.0
  0
LINE
  8
0
 62
     0
 10
0.0950846
 20
122.082
 30
0.0
 11
0.101975
 21
122.239
 31
0.0
  0
LINE
  8
0
 62
     0
 10
0.101975
 20
122.239
 30
0.0
 11
0.119889
 21
122.396
 31
0.0
  0
LINE
  8
0
 62
     0
 10
0.119889
 20
122.396
 30
0.0
 11
0.150206
 21
122.549
 31
0.0
  0
LINE
  8
0
 62
     0
 10
0.150206
 20
122.549
 30
0.0
 11
0.192925
 21
122.702
 31
0.0
  0
LINE
  8
0
 62
     0
 10
0.192925
 20
122.702
 30
0.0
 11
0.248047
 21
122.848
 31
0.0
  0
LINE
  8
0
 62
     0
 10
0.248047
 20
122.848
 30
0.0
 11
0.312815
 21
122.99
 31
0.0
  0
LINE
  8
0
 62
     0
 10
0.312815
 20
122.99
 30
0.0
 11
0.389985
 21
123.128
 31
0.0
  0
LINE
  8
0
 62
     0
 10
0.389985
 20
123.128
 30
0.0
 11
0.4768
 21
123.259
 31
0.0
  0
LINE
  8
0
 62
     0
 10
0.4768
 20
123.259
 30
0.0
 11
0.574643
 21
123.381
 31
0.0
  0
LINE
  8
0
 62
     0
 10
0.574643
 20
123.381
 30
0.0
 11
0.680752
 21
123.497
 31
0.0
  0
LINE
  8
0
 62
     0
 10
0.680752
 20
123.497
 30
0.0
 11
0.796505
 21
123.603
 31
0.0
  0
LINE
  8
0
 62
     0
 10
0.796505
 20
123.603
 30
0.0
 11
0.919152
 21
123.701
 31
0.0
  0
LINE
  8
0
 62
     0
 10
0.919152
 20
123.701
 30
0.0
 11
1.05006
 21
123.788
 31
0.0
  0
LINE
  8
0
 62
     0
 10
1.05006
 20
123.788
 30
0.0
 11
1.18787
 21
123.865
 31
0.0
  0
LINE
  8
0
 62
     0
 10
1.18787
 20
123.865
 30
0.0
 11
1.32981
 21
123.93
 31
0.0
  0
LINE
  8
0
 62
     0
 10
1.32981
 20
123.93
 30
0.0
 11
1.47588
 21
123.985
 31
0.0
  0
LINE
  8
0
 62
     0
 10
1.47588
 20
123.985
 30
0.0
 11
1.62884
 21
124.027
 31
0.0
  0
LINE
  8
0
 62
     0
 10
1.62884
 20
124.027
 30
0.0
 11
1.7818
 21
124.058
 31
0.0
  0
LINE
  8
0
 62
     0
 10
1.7818
 20
124.058
 30
0.0
 11
1.9389
 21
124.076
 31
0.0
  0
LINE
  8
0
 62
     0
 10
1.9389
 20
124.076
 30
0.0
 11
2.096
 21
124.083
 31
0.0
  0
LINE
  8
0
 62
     0
 10
2.096
 20
124.083
 30
0.0
 11
369.574
 21
124.083
 31
0.0
  0
LINE
  8
0
 62
     0
 10
124.062
 20
16.7817
 30
0.0
 11
124.062
 21
15.7827
 31
0.0
  0
LINE
  8
0
 62
     0
 10
124.062
 20
15.7827
 30
0.0
 11
123.264
 21
15.7827
 31
0.0
  0
LINE
  8
0
 62
     0
 10
123.264
 20
15.7827
 30
0.0
 11
123.264
 21
12.6835
 31
0.0
  0
LINE
  8
0
 62
     0
 10
123.264
 20
12.6835
 30
0.0
 11
124.062
 21
12.6835
 31
0.0
  0
LINE
  8
0
 62
     0
 10
124.062
 20
12.6835
 30
0.0
 11
124.062
 21
12.0826
 31
0.0
  0
LINE
  8
0
 62
     0
 10
124.062
 20
12.0826
 30
0.0
 11
84.4381
 21
12.0826
 31
0.0
  0
LINE
  8
0
 62
     0
 10
84.4381
 20
12.0826
 30
0.0
 11
84.4381
 21
15.3128
 31
0.0
  0
LINE
  8
0
 62
     0
 10
84.4381
 20
15.3128
 30
0.0
 11
82.714
 21
15.3128
 31
0.0
  0
LINE
  8
0
 62
     0
 10
82.714
 20
15.3128
 30
0.0
 11
82.714
 21
16.2319
 31
0.0
  0
LINE
  8
0
 62
     0
 10
82.714
 20
16.2319
 30
0.0
 11
79.4135
 21
16.2319
 31
0.0
  0
LINE
  8
0
 62
     0
 10
79.4135
 20
16.2319
 30
0.0
 11
79.4135
 21
15.3128
 31
0.0
  0
LINE
  8
0
 62
     0
 10
79.4135
 20
15.3128
 30
0.0
 11
77.6884
 21
15.3128
 31
0.0
  0
LINE
  8
0
 62
     0
 10
77.6884
 20
15.3128
 30
0.0
 11
77.6884
 21
12.0826
 31
0.0
  0
LINE
  8
0
 62
     0
 10
77.6884
 20
12.0826
 30
0.0
 11
76.8629
 21
12.0826
 31
0.0
  0
LINE
  8
0
 62
     0
 10
76.8629
 20
12.0826
 30
0.0
 11
76.8629
 21
9.28247
 31
0.0
  0
LINE
  8
0
 62
     0
 10
76.8629
 20
9.28247
 30
0.0
 11
77.6884
 21
9.28247
 31
0.0
  0
LINE
  8
0
 62
     0
 10
77.6884
 20
9.28247
 30
0.0
 11
77.6884
 21
3.01239
 31
0.0
  0
LINE
  8
0
 62
     0
 10
77.6884
 20
3.01239
 30
0.0
 11
79.4135
 21
3.01239
 31
0.0
  0
LINE
  8
0
 62
     0
 10
79.4135
 20
3.01239
 30
0.0
 11
79.4135
 21
2.03261
 31
0.0
  0
LINE
  8
0
 62
     0
 10
79.4135
 20
2.03261
 30
0.0
 11
82.714
 21
2.03261
 31
0.0
  0
LINE
  8
0
 62
     0
 10
82.714
 20
2.03261
 30
0.0
 11
82.714
 21
3.01239
 31
0.0
  0
LINE
  8
0
 62
     0
 10
82.714
 20
3.01239
 30
0.0
 11
84.4381
 21
3.01239
 31
0.0
  0
LINE
  8
0
 62
     0
 10
84.4381
 20
3.01239
 30
0.0
 11
84.4381
 21
7.48273
 31
0.0
  0
LINE
  8
0
 62
     0
 10
84.4381
 20
7.48273
 30
0.0
 11
124.062
 21
7.48273
 31
0.0
  0
LINE
  8
0
 62
     0
 10
124.062
 20
7.48273
 30
0.0
 11
124.062
 21
6.88192
 31
0.0
  0
LINE
  8
0
 62
     0
 10
124.062
 20
6.88192
 30
0.0
 11
123.264
 21
6.88192
 31
0.0
  0
LINE
  8
0
 62
     0
 10
123.264
 20
6.88192
 30
0.0
 11
123.264
 21
3.78273
 31
0.0
  0
LINE
  8
0
 62
     0
 10
123.264
 20
3.78273
 30
0.0
 11
124.062
 21
3.78273
 31
0.0
  0
LINE
  8
0
 62
     0
 10
124.062
 20
3.78273
 30
0.0
 11
124.062
 21
2.78226
 31
0.0
  0
LINE
  8
0
 62
     0
 10
124.062
 20
2.78226
 30
0.0
 11
138.063
 21
2.78226
 31
0.0
  0
LINE
  8
0
 62
     0
 10
138.063
 20
2.78226
 30
0.0
 11
138.063
 21
3.78273
 31
0.0
  0
LINE
  8
0
 62
     0
 10
138.063
 20
3.78273
 30
0.0
 11
138.864
 21
3.78273
 31
0.0
  0
LINE
  8
0
 62
     0
 10
138.864
 20
3.78273
 30
0.0
 11
138.864
 21
6.88192
 31
0.0
  0
LINE
  8
0
 62
     0
 10
138.864
 20
6.88192
 30
0.0
 11
138.063
 21
6.88192
 31
0.0
  0
LINE
  8
0
 62
     0
 10
138.063
 20
6.88192
 30
0.0
 11
138.063
 21
7.48273
 31
0.0
  0
LINE
  8
0
 62
     0
 10
138.063
 20
7.48273
 30
0.0
 11
177.689
 21
7.48273
 31
0.0
  0
LINE
  8
0
 62
     0
 10
177.689
 20
7.48273
 30
0.0
 11
177.689
 21
3.01239
 31
0.0
  0
LINE
  8
0
 62
     0
 10
177.689
 20
3.01239
 30
0.0
 11
179.414
 21
3.01239
 31
0.0
  0
LINE
  8
0
 62
     0
 10
179.414
 20
3.01239
 30
0.0
 11
179.414
 21
2.03261
 31
0.0
  0
LINE
  8
0
 62
     0
 10
179.414
 20
2.03261
 30
0.0
 11
182.714
 21
2.03261
 31
0.0
  0
LINE
  8
0
 62
     0
 10
182.714
 20
2.03261
 30
0.0
 11
182.714
 21
3.01239
 31
0.0
  0
LINE
  8
0
 62
     0
 10
182.714
 20
3.01239
 30
0.0
 11
184.438
 21
3.01239
 31
0.0
  0
LINE
  8
0
 62
     0
 10
184.438
 20
3.01239
 30
0.0
 11
184.438
 21
9.28247
 31
0.0
  0
LINE
  8
0
 62
     0
 10
184.438
 20
9.28247
 30
0.0
 11
185.263
 21
9.28247
 31
0.0
  0
LINE
  8
0
 62
     0
 10
185.263
 20
9.28247
 30
0.0
 11
185.263
 21
12.0826
 31
0.0
  0
LINE
  8
0
 62
     0
 10
185.263
 20
12.0826
 30
0.0
 11
184.438
 21
12.0826
 31
0.0
  0
LINE
  8
0
 62
     0
 10
184.438
 20
12.0826
 30
0.0
 11
184.438
 21
15.3128
 31
0.0
  0
LINE
  8
0
 62
     0
 10
184.438
 20
15.3128
 30
0.0
 11
182.714
 21
15.3128
 31
0.0
  0
LINE
  8
0
 62
     0
 10
182.714
 20
15.3128
 30
0.0
 11
182.714
 21
16.2319
 31
0.0
  0
LINE
  8
0
 62
     0
 10
182.714
 20
16.2319
 30
0.0
 11
179.414
 21
16.2319
 31
0.0
  0
LINE
  8
0
 62
     0
 10
179.414
 20
16.2319
 30
0.0
 11
179.414
 21
15.3128
 31
0.0
  0
LINE
  8
0
 62
     0
 10
179.414
 20
15.3128
 30
0.0
 11
177.689
 21
15.3128
 31
0.0
  0
LINE
  8
0
 62
     0
 10
177.689
 20
15.3128
 30
0.0
 11
177.689
 21
12.0826
 31
0.0
  0
LINE
  8
0
 62
     0
 10
177.689
 20
12.0826
 30
0.0
 11
138.063
 21
12.0826
 31
0.0
  0
LINE
  8
0
 62
     0
 10
138.063
 20
12.0826
 30
0.0
 11
138.063
 21
12.6835
 31
0.0
  0
LINE
  8
0
 62
     0
 10
138.063
 20
12.6835
 30
0.0
 11
138.864
 21
12.6835
 31
0.0
  0
LINE
  8
0
 62
     0
 10
138.864
 20
12.6835
 30
0.0
 11
138.864
 21
15.7827
 31
0.0
  0
LINE
  8
0
 62
     0
 10
138.864
 20
15.7827
 30
0.0
 11
138.063
 21
15.7827
 31
0.0
  0
LINE
  8
0
 62
     0
 10
138.063
 20
15.7827
 30
0.0
 11
138.063
 21
16.7817
 31
0.0
  0
LINE
  8
0
 62
     0
 10
138.063
 20
16.7817
 30
0.0
 11
124.062
 21
16.7817
 31
0.0
  0
LINE
  8
0
 62
     0
 10
5.00091
 20
16.7817
 30
0.0
 11
5.00091
 21
15.7827
 31
0.0
  0
LINE
  8
0
 62
     0
 10
5.00091
 20
15.7827
 30
0.0
 11
4.20165
 21
15.7827
 31
0.0
  0
LINE
  8
0
 62
     0
 10
4.20165
 20
15.7827
 30
0.0
 11
4.20165
 21
12.6835
 31
0.0
  0
LINE
  8
0
 62
     0
 10
4.20165
 20
12.6835
 30
0.0
 11
5.00091
 21
12.6835
 31
0.0
  0
LINE
  8
0
 62
     0
 10
5.00091
 20
12.6835
 30
0.0
 11
5.00091
 21
6.88192
 31
0.0
  0
LINE
  8
0
 62
     0
 10
5.00091
 20
6.88192
 30
0.0
 11
4.20165
 21
6.88192
 31
0.0
  0
LINE
  8
0
 62
     0
 10
4.20165
 20
6.88192
 30
0.0
 11
4.20165
 21
3.78273
 31
0.0
  0
LINE
  8
0
 62
     0
 10
4.20165
 20
3.78273
 30
0.0
 11
5.00091
 21
3.78273
 31
0.0
  0
LINE
  8
0
 62
     0
 10
5.00091
 20
3.78273
 30
0.0
 11
5.00091
 21
2.78226
 31
0.0
  0
LINE
  8
0
 62
     0
 10
5.00091
 20
2.78226
 30
0.0
 11
19.0018
 21
2.78226
 31
0.0
  0
LINE
  8
0
 62
     0
 10
19.0018
 20
2.78226
 30
0.0
 11
19.0018
 21
3.78273
 31
0.0
  0
LINE
  8
0
 62
     0
 10
19.0018
 20
3.78273
 30
0.0
 11
19.801
 21
3.78273
 31
0.0
  0
LINE
  8
0
 62
     0
 10
19.801
 20
3.78273
 30
0.0
 11
19.801
 21
6.88192
 31
0.0
  0
LINE
  8
0
 62
     0
 10
19.801
 20
6.88192
 30
0.0
 11
19.0018
 21
6.88192
 31
0.0
  0
LINE
  8
0
 62
     0
 10
19.0018
 20
6.88192
 30
0.0
 11
19.0018
 21
12.6835
 31
0.0
  0
LINE
  8
0
 62
     0
 10
19.0018
 20
12.6835
 30
0.0
 11
19.801
 21
12.6835
 31
0.0
  0
LINE
  8
0
 62
     0
 10
19.801
 20
12.6835
 30
0.0
 11
19.801
 21
15.7827
 31
0.0
  0
LINE
  8
0
 62
     0
 10
19.801
 20
15.7827
 30
0.0
 11
19.0018
 21
15.7827
 31
0.0
  0
LINE
  8
0
 62
     0
 10
19.0018
 20
15.7827
 30
0.0
 11
19.0018
 21
16.7817
 31
0.0
  0
LINE
  8
0
 62
     0
 10
19.0018
 20
16.7817
 30
0.0
 11
5.00091
 21
16.7817
 31
0.0
  0
LINE
  8
0
 62
     0
 10
28.8134
 20
16.7817
 30
0.0
 11
28.8134
 21
15.7827
 31
0.0
  0
LINE
  8
0
 62
     0
 10
28.8134
 20
15.7827
 30
0.0
 11
28.0142
 21
15.7827
 31
0.0
  0
LINE
  8
0
 62
     0
 10
28.0142
 20
15.7827
 30
0.0
 11
28.0142
 21
12.6835
 31
0.0
  0
LINE
  8
0
 62
     0
 10
28.0142
 20
12.6835
 30
0.0
 11
28.8134
 21
12.6835
 31
0.0
  0
LINE
  8
0
 62
     0
 10
28.8134
 20
12.6835
 30
0.0
 11
28.8134
 21
6.88192
 31
0.0
  0
LINE
  8
0
 62
     0
 10
28.8134
 20
6.88192
 30
0.0
 11
28.0142
 21
6.88192
 31
0.0
  0
LINE
  8
0
 62
     0
 10
28.0142
 20
6.88192
 30
0.0
 11
28.0142
 21
3.78273
 31
0.0
  0
LINE
  8
0
 62
     0
 10
28.0142
 20
3.78273
 30
0.0
 11
28.8134
 21
3.78273
 31
0.0
  0
LINE
  8
0
 62
     0
 10
28.8134
 20
3.78273
 30
0.0
 11
28.8134
 21
2.78226
 31
0.0
  0
LINE
  8
0
 62
     0
 10
28.8134
 20
2.78226
 30
0.0
 11
42.8128
 21
2.78226
 31
0.0
  0
LINE
  8
0
 62
     0
 10
42.8128
 20
2.78226
 30
0.0
 11
42.8128
 21
3.78273
 31
0.0
  0
LINE
  8
0
 62
     0
 10
42.8128
 20
3.78273
 30
0.0
 11
43.6136
 21
3.78273
 31
0.0
  0
LINE
  8
0
 62
     0
 10
43.6136
 20
3.78273
 30
0.0
 11
43.6136
 21
6.88192
 31
0.0
  0
LINE
  8
0
 62
     0
 10
43.6136
 20
6.88192
 30
0.0
 11
42.8128
 21
6.88192
 31
0.0
  0
LINE
  8
0
 62
     0
 10
42.8128
 20
6.88192
 30
0.0
 11
42.8128
 21
12.6835
 31
0.0
  0
LINE
  8
0
 62
     0
 10
42.8128
 20
12.6835
 30
0.0
 11
43.6136
 21
12.6835
 31
0.0
  0
LINE
  8
0
 62
     0
 10
43.6136
 20
12.6835
 30
0.0
 11
43.6136
 21
15.7827
 31
0.0
  0
LINE
  8
0
 62
     0
 10
43.6136
 20
15.7827
 30
0.0
 11
42.8128
 21
15.7827
 31
0.0
  0
LINE
  8
0
 62
     0
 10
42.8128
 20
15.7827
 30
0.0
 11
42.8128
 21
16.7817
 31
0.0
  0
LINE
  8
0
 62
     0
 10
42.8128
 20
16.7817
 30
0.0
 11
28.8134
 21
16.7817
 31
0.0
  0
LINE
  8
0
 62
     0
 10
52.626
 20
16.7817
 30
0.0
 11
52.626
 21
15.7827
 31
0.0
  0
LINE
  8
0
 62
     0
 10
52.626
 20
15.7827
 30
0.0
 11
51.8266
 21
15.7827
 31
0.0
  0
LINE
  8
0
 62
     0
 10
51.8266
 20
15.7827
 30
0.0
 11
51.8266
 21
12.6835
 31
0.0
  0
LINE
  8
0
 62
     0
 10
51.8266
 20
12.6835
 30
0.0
 11
52.626
 21
12.6835
 31
0.0
  0
LINE
  8
0
 62
     0
 10
52.626
 20
12.6835
 30
0.0
 11
52.626
 21
6.88192
 31
0.0
  0
LINE
  8
0
 62
     0
 10
52.626
 20
6.88192
 30
0.0
 11
51.8266
 21
6.88192
 31
0.0
  0
LINE
  8
0
 62
     0
 10
51.8266
 20
6.88192
 30
0.0
 11
51.8266
 21
3.78273
 31
0.0
  0
LINE
  8
0
 62
     0
 10
51.8266
 20
3.78273
 30
0.0
 11
52.626
 21
3.78273
 31
0.0
  0
LINE
  8
0
 62
     0
 10
52.626
 20
3.78273
 30
0.0
 11
52.626
 21
2.78226
 31
0.0
  0
LINE
  8
0
 62
     0
 10
52.626
 20
2.78226
 30
0.0
 11
66.6267
 21
2.78226
 31
0.0
  0
LINE
  8
0
 62
     0
 10
66.6267
 20
2.78226
 30
0.0
 11
66.6267
 21
3.78273
 31
0.0
  0
LINE
  8
0
 62
     0
 10
66.6267
 20
3.78273
 30
0.0
 11
67.4261
 21
3.78273
 31
0.0
  0
LINE
  8
0
 62
     0
 10
67.4261
 20
3.78273
 30
0.0
 11
67.4261
 21
6.88192
 31
0.0
  0
LINE
  8
0
 62
     0
 10
67.4261
 20
6.88192
 30
0.0
 11
66.6267
 21
6.88192
 31
0.0
  0
LINE
  8
0
 62
     0
 10
66.6267
 20
6.88192
 30
0.0
 11
66.6267
 21
12.6835
 31
0.0
  0
LINE
  8
0
 62
     0
 10
66.6267
 20
12.6835
 30
0.0
 11
67.4261
 21
12.6835
 31
0.0
  0
LINE
  8
0
 62
     0
 10
67.4261
 20
12.6835
 30
0.0
 11
67.4261
 21
15.7827
 31
0.0
  0
LINE
  8
0
 62
     0
 10
67.4261
 20
15.7827
 30
0.0
 11
66.6267
 21
15.7827
 31
0.0
  0
LINE
  8
0
 62
     0
 10
66.6267
 20
15.7827
 30
0.0
 11
66.6267
 21
16.7817
 31
0.0
  0
LINE
  8
0
 62
     0
 10
66.6267
 20
16.7817
 30
0.0
 11
52.626
 21
16.7817
 31
0.0
  0
LINE
  8
0
 62
     0
 10
195.501
 20
16.7817
 30
0.0
 11
195.501
 21
15.7827
 31
0.0
  0
LINE
  8
0
 62
     0
 10
195.501
 20
15.7827
 30
0.0
 11
194.702
 21
15.7827
 31
0.0
  0
LINE
  8
0
 62
     0
 10
194.702
 20
15.7827
 30
0.0
 11
194.702
 21
12.6835
 31
0.0
  0
LINE
  8
0
 62
     0
 10
194.702
 20
12.6835
 30
0.0
 11
195.501
 21
12.6835
 31
0.0
  0
LINE
  8
0
 62
     0
 10
195.501
 20
12.6835
 30
0.0
 11
195.501
 21
6.88192
 31
0.0
  0
LINE
  8
0
 62
     0
 10
195.501
 20
6.88192
 30
0.0
 11
194.702
 21
6.88192
 31
0.0
  0
LINE
  8
0
 62
     0
 10
194.702
 20
6.88192
 30
0.0
 11
194.702
 21
3.78273
 31
0.0
  0
LINE
  8
0
 62
     0
 10
194.702
 20
3.78273
 30
0.0
 11
195.501
 21
3.78273
 31
0.0
  0
LINE
  8
0
 62
     0
 10
195.501
 20
3.78273
 30
0.0
 11
195.501
 21
2.78226
 31
0.0
  0
LINE
  8
0
 62
     0
 10
195.501
 20
2.78226
 30
0.0
 11
209.502
 21
2.78226
 31
0.0
  0
LINE
  8
0
 62
     0
 10
209.502
 20
2.78226
 30
0.0
 11
209.502
 21
3.78273
 31
0.0
  0
LINE
  8
0
 62
     0
 10
209.502
 20
3.78273
 30
0.0
 11
210.301
 21
3.78273
 31
0.0
  0
LINE
  8
0
 62
     0
 10
210.301
 20
3.78273
 30
0.0
 11
210.301
 21
6.88192
 31
0.0
  0
LINE
  8
0
 62
     0
 10
210.301
 20
6.88192
 30
0.0
 11
209.502
 21
6.88192
 31
0.0
  0
LINE
  8
0
 62
     0
 10
209.502
 20
6.88192
 30
0.0
 11
209.502
 21
12.6835
 31
0.0
  0
LINE
  8
0
 62
     0
 10
209.502
 20
12.6835
 30
0.0
 11
210.301
 21
12.6835
 31
0.0
  0
LINE
  8
0
 62
     0
 10
210.301
 20
12.6835
 30
0.0
 11
210.301
 21
15.7827
 31
0.0
  0
LINE
  8
0
 62
     0
 10
210.301
 20
15.7827
 30
0.0
 11
209.502
 21
15.7827
 31
0.0
  0
LINE
  8
0
 62
     0
 10
209.502
 20
15.7827
 30
0.0
 11
209.502
 21
16.7817
 31
0.0
  0
LINE
  8
0
 62
     0
 10
209.502
 20
16.7817
 30
0.0
 11
195.501
 21
16.7817
 31
0.0
  0
LINE
  8
0
 62
     0
 10
219.313
 20
16.7817
 30
0.0
 11
219.313
 21
15.7827
 31
0.0
  0
LINE
  8
0
 62
     0
 10
219.313
 20
15.7827
 30
0.0
 11
218.514
 21
15.7827
 31
0.0
  0
LINE
  8
0
 62
     0
 10
218.514
 20
15.7827
 30
0.0
 11
218.514
 21
12.6835
 31
0.0
  0
LINE
  8
0
 62
     0
 10
218.514
 20
12.6835
 30
0.0
 11
219.313
 21
12.6835
 31
0.0
  0
LINE
  8
0
 62
     0
 10
219.313
 20
12.6835
 30
0.0
 11
219.313
 21
6.88192
 31
0.0
  0
LINE
  8
0
 62
     0
 10
219.313
 20
6.88192
 30
0.0
 11
218.514
 21
6.88192
 31
0.0
  0
LINE
  8
0
 62
     0
 10
218.514
 20
6.88192
 30
0.0
 11
218.514
 21
3.78273
 31
0.0
  0
LINE
  8
0
 62
     0
 10
218.514
 20
3.78273
 30
0.0
 11
219.313
 21
3.78273
 31
0.0
  0
LINE
  8
0
 62
     0
 10
219.313
 20
3.78273
 30
0.0
 11
219.313
 21
2.78226
 31
0.0
  0
LINE
  8
0
 62
     0
 10
219.313
 20
2.78226
 30
0.0
 11
233.313
 21
2.78226
 31
0.0
  0
LINE
  8
0
 62
     0
 10
233.313
 20
2.78226
 30
0.0
 11
233.313
 21
3.78273
 31
0.0
  0
LINE
  8
0
 62
     0
 10
233.313
 20
3.78273
 30
0.0
 11
234.114
 21
3.78273
 31
0.0
  0
LINE
  8
0
 62
     0
 10
234.114
 20
3.78273
 30
0.0
 11
234.114
 21
6.88192
 31
0.0
  0
LINE
  8
0
 62
     0
 10
234.114
 20
6.88192
 30
0.0
 11
233.313
 21
6.88192
 31
0.0
  0
LINE
  8
0
 62
     0
 10
233.313
 20
6.88192
 30
0.0
 11
233.313
 21
12.6835
 31
0.0
  0
LINE
  8
0
 62
     0
 10
233.313
 20
12.6835
 30
0.0
 11
234.114
 21
12.6835
 31
0.0
  0
LINE
  8
0
 62
     0
 10
234.114
 20
12.6835
 30
0.0
 11
234.114
 21
15.7827
 31
0.0
  0
LINE
  8
0
 62
     0
 10
234.114
 20
15.7827
 30
0.0
 11
233.313
 21
15.7827
 31
0.0
  0
LINE
  8
0
 62
     0
 10
233.313
 20
15.7827
 30
0.0
 11
233.313
 21
16.7817
 31
0.0
  0
LINE
  8
0
 62
     0
 10
233.313
 20
16.7817
 30
0.0
 11
219.313
 21
16.7817
 31
0.0
  0
LINE
  8
0
 62
     0
 10
243.126
 20
16.7817
 30
0.0
 11
243.126
 21
15.7827
 31
0.0
  0
LINE
  8
0
 62
     0
 10
243.126
 20
15.7827
 30
0.0
 11
242.327
 21
15.7827
 31
0.0
  0
LINE
  8
0
 62
     0
 10
242.327
 20
15.7827
 30
0.0
 11
242.327
 21
12.6835
 31
0.0
  0
LINE
  8
0
 62
     0
 10
242.327
 20
12.6835
 30
0.0
 11
243.126
 21
12.6835
 31
0.0
  0
LINE
  8
0
 62
     0
 10
243.126
 20
12.6835
 30
0.0
 11
243.126
 21
6.88192
 31
0.0
  0
LINE
  8
0
 62
     0
 10
243.126
 20
6.88192
 30
0.0
 11
242.327
 21
6.88192
 31
0.0
  0
LINE
  8
0
 62
     0
 10
242.327
 20
6.88192
 30
0.0
 11
242.327
 21
3.78273
 31
0.0
  0
LINE
  8
0
 62
     0
 10
242.327
 20
3.78273
 30
0.0
 11
243.126
 21
3.78273
 31
0.0
  0
LINE
  8
0
 62
     0
 10
243.126
 20
3.78273
 30
0.0
 11
243.126
 21
2.78226
 31
0.0
  0
LINE
  8
0
 62
     0
 10
243.126
 20
2.78226
 30
0.0
 11
257.127
 21
2.78226
 31
0.0
  0
LINE
  8
0
 62
     0
 10
257.127
 20
2.78226
 30
0.0
 11
257.127
 21
3.78273
 31
0.0
  0
LINE
  8
0
 62
     0
 10
257.127
 20
3.78273
 30
0.0
 11
257.926
 21
3.78273
 31
0.0
  0
LINE
  8
0
 62
     0
 10
257.926
 20
3.78273
 30
0.0
 11
257.926
 21
6.88192
 31
0.0
  0
LINE
  8
0
 62
     0
 10
257.926
 20
6.88192
 30
0.0
 11
257.127
 21
6.88192
 31
0.0
  0
LINE
  8
0
 62
     0
 10
257.127
 20
6.88192
 30
0.0
 11
257.127
 21
12.6835
 31
0.0
  0
LINE
  8
0
 62
     0
 10
257.127
 20
12.6835
 30
0.0
 11
257.926
 21
12.6835
 31
0.0
  0
LINE
  8
0
 62
     0
 10
257.926
 20
12.6835
 30
0.0
 11
257.926
 21
15.7827
 31
0.0
  0
LINE
  8
0
 62
     0
 10
257.926
 20
15.7827
 30
0.0
 11
257.127
 21
15.7827
 31
0.0
  0
LINE
  8
0
 62
     0
 10
257.127
 20
15.7827
 30
0.0
 11
257.127
 21
16.7817
 31
0.0
  0
LINE
  8
0
 62
     0
 10
257.127
 20
16.7817
 30
0.0
 11
243.126
 21
16.7817
 31
0.0
  0
LINE
  8
0
 62
     0
 10
266.938
 20
16.7817
 30
0.0
 11
266.938
 21
15.7827
 31
0.0
  0
LINE
  8
0
 62
     0
 10
266.938
 20
15.7827
 30
0.0
 11
266.139
 21
15.7827
 31
0.0
  0
LINE
  8
0
 62
     0
 10
266.139
 20
15.7827
 30
0.0
 11
266.139
 21
12.6835
 31
0.0
  0
LINE
  8
0
 62
     0
 10
266.139
 20
12.6835
 30
0.0
 11
266.938
 21
12.6835
 31
0.0
  0
LINE
  8
0
 62
     0
 10
266.938
 20
12.6835
 30
0.0
 11
266.938
 21
6.88192
 31
0.0
  0
LINE
  8
0
 62
     0
 10
266.938
 20
6.88192
 30
0.0
 11
266.139
 21
6.88192
 31
0.0
  0
LINE
  8
0
 62
     0
 10
266.139
 20
6.88192
 30
0.0
 11
266.139
 21
3.78273
 31
0.0
  0
LINE
  8
0
 62
     0
 10
266.139
 20
3.78273
 30
0.0
 11
266.938
 21
3.78273
 31
0.0
  0
LINE
  8
0
 62
     0
 10
266.938
 20
3.78273
 30
0.0
 11
266.938
 21
2.78226
 31
0.0
  0
LINE
  8
0
 62
     0
 10
266.938
 20
2.78226
 30
0.0
 11
280.938
 21
2.78226
 31
0.0
  0
LINE
  8
0
 62
     0
 10
280.938
 20
2.78226
 30
0.0
 11
280.938
 21
3.78273
 31
0.0
  0
LINE
  8
0
 62
     0
 10
280.938
 20
3.78273
 30
0.0
 11
281.739
 21
3.78273
 31
0.0
  0
LINE
  8
0
 62
     0
 10
281.739
 20
3.78273
 30
0.0
 11
281.739
 21
6.88192
 31
0.0
  0
LINE
  8
0
 62
     0
 10
281.739
 20
6.88192
 30
0.0
 11
280.938
 21
6.88192
 31
0.0
  0
LINE
  8
0
 62
     0
 10
280.938
 20
6.88192
 30
0.0
 11
280.938
 21
12.6835
 31
0.0
  0
LINE
  8
0
 62
     0
 10
280.938
 20
12.6835
 30
0.0
 11
281.739
 21
12.6835
 31
0.0
  0
LINE
  8
0
 62
     0
 10
281.739
 20
12.6835
 30
0.0
 11
281.739
 21
15.7827
 31
0.0
  0
LINE
  8
0
 62
     0
 10
281.739
 20
15.7827
 30
0.0
 11
280.938
 21
15.7827
 31
0.0
  0
LINE
  8
0
 62
     0
 10
280.938
 20
15.7827
 30
0.0
 11
280.938
 21
16.7817
 31
0.0
  0
LINE
  8
0
 62
     0
 10
280.938
 20
16.7817
 30
0.0
 11
266.938
 21
16.7817
 31
0.0
  0
LINE
  8
0
 62
     0
 10
293.132
 20
16.7817
 30
0.0
 11
293.132
 21
15.7827
 31
0.0
  0
LINE
  8
0
 62
     0
 10
293.132
 20
15.7827
 30
0.0
 11
292.333
 21
15.7827
 31
0.0
  0
LINE
  8
0
 62
     0
 10
292.333
 20
15.7827
 30
0.0
 11
292.333
 21
12.6835
 31
0.0
  0
LINE
  8
0
 62
     0
 10
292.333
 20
12.6835
 30
0.0
 11
293.132
 21
12.6835
 31
0.0
  0
LINE
  8
0
 62
     0
 10
293.132
 20
12.6835
 30
0.0
 11
293.132
 21
6.88192
 31
0.0
  0
LINE
  8
0
 62
     0
 10
293.132
 20
6.88192
 30
0.0
 11
292.333
 21
6.88192
 31
0.0
  0
LINE
  8
0
 62
     0
 10
292.333
 20
6.88192
 30
0.0
 11
292.333
 21
3.78273
 31
0.0
  0
LINE
  8
0
 62
     0
 10
292.333
 20
3.78273
 30
0.0
 11
293.132
 21
3.78273
 31
0.0
  0
LINE
  8
0
 62
     0
 10
293.132
 20
3.78273
 30
0.0
 11
293.132
 21
2.78226
 31
0.0
  0
LINE
  8
0
 62
     0
 10
293.132
 20
2.78226
 30
0.0
 11
307.133
 21
2.78226
 31
0.0
  0
LINE
  8
0
 62
     0
 10
307.133
 20
2.78226
 30
0.0
 11
307.133
 21
3.78273
 31
0.0
  0
LINE
  8
0
 62
     0
 10
307.133
 20
3.78273
 30
0.0
 11
307.932
 21
3.78273
 31
0.0
  0
LINE
  8
0
 62
     0
 10
307.932
 20
3.78273
 30
0.0
 11
307.932
 21
6.88192
 31
0.0
  0
LINE
  8
0
 62
     0
 10
307.932
 20
6.88192
 30
0.0
 11
307.133
 21
6.88192
 31
0.0
  0
LINE
  8
0
 62
     0
 10
307.133
 20
6.88192
 30
0.0
 11
307.133
 21
12.6835
 31
0.0
  0
LINE
  8
0
 62
     0
 10
307.133
 20
12.6835
 30
0.0
 11
307.932
 21
12.6835
 31
0.0
  0
LINE
  8
0
 62
     0
 10
307.932
 20
12.6835
 30
0.0
 11
307.932
 21
15.7827
 31
0.0
  0
LINE
  8
0
 62
     0
 10
307.932
 20
15.7827
 30
0.0
 11
307.133
 21
15.7827
 31
0.0
  0
LINE
  8
0
 62
     0
 10
307.133
 20
15.7827
 30
0.0
 11
307.133
 21
16.7817
 31
0.0
  0
LINE
  8
0
 62
     0
 10
307.133
 20
16.7817
 30
0.0
 11
293.132
 21
16.7817
 31
0.0
  0
LINE
  8
0
 62
     0
 10
312.182
 20
16.7817
 30
0.0
 11
312.182
 21
15.7827
 31
0.0
  0
LINE
  8
0
 62
     0
 10
312.182
 20
15.7827
 30
0.0
 11
311.383
 21
15.7827
 31
0.0
  0
LINE
  8
0
 62
     0
 10
311.383
 20
15.7827
 30
0.0
 11
311.383
 21
12.6835
 31
0.0
  0
LINE
  8
0
 62
     0
 10
311.383
 20
12.6835
 30
0.0
 11
312.182
 21
12.6835
 31
0.0
  0
LINE
  8
0
 62
     0
 10
312.182
 20
12.6835
 30
0.0
 11
312.182
 21
6.88192
 31
0.0
  0
LINE
  8
0
 62
     0
 10
312.182
 20
6.88192
 30
0.0
 11
311.383
 21
6.88192
 31
0.0
  0
LINE
  8
0
 62
     0
 10
311.383
 20
6.88192
 30
0.0
 11
311.383
 21
3.78273
 31
0.0
  0
LINE
  8
0
 62
     0
 10
311.383
 20
3.78273
 30
0.0
 11
312.182
 21
3.78273
 31
0.0
  0
LINE
  8
0
 62
     0
 10
312.182
 20
3.78273
 30
0.0
 11
312.182
 21
2.78226
 31
0.0
  0
LINE
  8
0
 62
     0
 10
312.182
 20
2.78226
 30
0.0
 11
326.183
 21
2.78226
 31
0.0
  0
LINE
  8
0
 62
     0
 10
326.183
 20
2.78226
 30
0.0
 11
326.183
 21
3.78273
 31
0.0
  0
LINE
  8
0
 62
     0
 10
326.183
 20
3.78273
 30
0.0
 11
326.982
 21
3.78273
 31
0.0
  0
LINE
  8
0
 62
     0
 10
326.982
 20
3.78273
 30
0.0
 11
326.982
 21
6.88192
 31
0.0
  0
LINE
  8
0
 62
     0
 10
326.982
 20
6.88192
 30
0.0
 11
326.183
 21
6.88192
 31
0.0
  0
LINE
  8
0
 62
     0
 10
326.183
 20
6.88192
 30
0.0
 11
326.183
 21
12.6835
 31
0.0
  0
LINE
  8
0
 62
     0
 10
326.183
 20
12.6835
 30
0.0
 11
326.982
 21
12.6835
 31
0.0
  0
LINE
  8
0
 62
     0
 10
326.982
 20
12.6835
 30
0.0
 11
326.982
 21
15.7827
 31
0.0
  0
LINE
  8
0
 62
     0
 10
326.982
 20
15.7827
 30
0.0
 11
326.183
 21
15.7827
 31
0.0
  0
LINE
  8
0
 62
     0
 10
326.183
 20
15.7827
 30
0.0
 11
326.183
 21
16.7817
 31
0.0
  0
LINE
  8
0
 62
     0
 10
326.183
 20
16.7817
 30
0.0
 11
312.182
 21
16.7817
 31
0.0
  0
LINE
  8
0
 62
     0
 10
331.232
 20
16.7817
 30
0.0
 11
331.232
 21
15.7827
 31
0.0
  0
LINE
  8
0
 62
     0
 10
331.232
 20
15.7827
 30
0.0
 11
330.433
 21
15.7827
 31
0.0
  0
LINE
  8
0
 62
     0
 10
330.433
 20
15.7827
 30
0.0
 11
330.433
 21
12.6835
 31
0.0
  0
LINE
  8
0
 62
     0
 10
330.433
 20
12.6835
 30
0.0
 11
331.232
 21
12.6835
 31
0.0
  0
LINE
  8
0
 62
     0
 10
331.232
 20
12.6835
 30
0.0
 11
331.232
 21
6.88192
 31
0.0
  0
LINE
  8
0
 62
     0
 10
331.232
 20
6.88192
 30
0.0
 11
330.433
 21
6.88192
 31
0.0
  0
LINE
  8
0
 62
     0
 10
330.433
 20
6.88192
 30
0.0
 11
330.433
 21
3.78273
 31
0.0
  0
LINE
  8
0
 62
     0
 10
330.433
 20
3.78273
 30
0.0
 11
331.232
 21
3.78273
 31
0.0
  0
LINE
  8
0
 62
     0
 10
331.232
 20
3.78273
 30
0.0
 11
331.232
 21
2.78226
 31
0.0
  0
LINE
  8
0
 62
     0
 10
331.232
 20
2.78226
 30
0.0
 11
345.233
 21
2.78226
 31
0.0
  0
LINE
  8
0
 62
     0
 10
345.233
 20
2.78226
 30
0.0
 11
345.233
 21
3.78273
 31
0.0
  0
LINE
  8
0
 62
     0
 10
345.233
 20
3.78273
 30
0.0
 11
346.032
 21
3.78273
 31
0.0
  0
LINE
  8
0
 62
     0
 10
346.032
 20
3.78273
 30
0.0
 11
346.032
 21
6.88192
 31
0.0
  0
LINE
  8
0
 62
     0
 10
346.032
 20
6.88192
 30
0.0
 11
345.233
 21
6.88192
 31
0.0
  0
LINE
  8
0
 62
     0
 10
345.233
 20
6.88192
 30
0.0
 11
345.233
 21
12.6835
 31
0.0
  0
LINE
  8
0
 62
     0
 10
345.233
 20
12.6835
 30
0.0
 11
346.032
 21
12.6835
 31
0.0
  0
LINE
  8
0
 62
     0
 10
346.032
 20
12.6835
 30
0.0
 11
346.032
 21
15.7827
 31
0.0
  0
LINE
  8
0
 62
     0
 10
346.032
 20
15.7827
 30
0.0
 11
345.233
 21
15.7827
 31
0.0
  0
LINE
  8
0
 62
     0
 10
345.233
 20
15.7827
 30
0.0
 11
345.233
 21
16.7817
 31
0.0
  0
LINE
  8
0
 62
     0
 10
345.233
 20
16.7817
 30
0.0
 11
331.232
 21
16.7817
 31
0.0
  0
LINE
  8
0
 62
     0
 10
14.5259
 20
35.8316
 30
0.0
 11
14.5259
 21
34.8327
 31
0.0
  0
LINE
  8
0
 62
     0
 10
14.5259
 20
34.8327
 30
0.0
 11
13.7267
 21
34.8327
 31
0.0
  0
LINE
  8
0
 62
     0
 10
13.7267
 20
34.8327
 30
0.0
 11
13.7267
 21
31.7321
 31
0.0
  0
LINE
  8
0
 62
     0
 10
13.7267
 20
31.7321
 30
0.0
 11
14.5259
 21
31.7321
 31
0.0
  0
LINE
  8
0
 62
     0
 10
14.5259
 20
31.7321
 30
0.0
 11
14.5259
 21
31.1326
 31
0.0
  0
LINE
  8
0
 62
     0
 10
14.5259
 20
31.1326
 30
0.0
 11
13.0018
 21
31.1326
 31
0.0
  0
LINE
  8
0
 62
     0
 10
13.0018
 20
31.1326
 30
0.0
 11
13.0018
 21
34.3628
 31
0.0
  0
LINE
  8
0
 62
     0
 10
13.0018
 20
34.3628
 30
0.0
 11
11.2765
 21
34.3628
 31
0.0
  0
LINE
  8
0
 62
     0
 10
11.2765
 20
34.3628
 30
0.0
 11
11.2765
 21
35.282
 31
0.0
  0
LINE
  8
0
 62
     0
 10
11.2765
 20
35.282
 30
0.0
 11
7.97609
 21
35.282
 31
0.0
  0
LINE
  8
0
 62
     0
 10
7.97609
 20
35.282
 30
0.0
 11
7.97609
 21
34.3628
 31
0.0
  0
LINE
  8
0
 62
     0
 10
7.97609
 20
34.3628
 30
0.0
 11
6.25217
 21
34.3628
 31
0.0
  0
LINE
  8
0
 62
     0
 10
6.25217
 20
34.3628
 30
0.0
 11
6.25217
 21
31.1326
 31
0.0
  0
LINE
  8
0
 62
     0
 10
6.25217
 20
31.1326
 30
0.0
 11
5.42671
 21
31.1326
 31
0.0
  0
LINE
  8
0
 62
     0
 10
5.42671
 20
31.1326
 30
0.0
 11
5.42671
 21
28.3325
 31
0.0
  0
LINE
  8
0
 62
     0
 10
5.42671
 20
28.3325
 30
0.0
 11
6.25217
 21
28.3325
 31
0.0
  0
LINE
  8
0
 62
     0
 10
6.25217
 20
28.3325
 30
0.0
 11
6.25217
 21
22.0624
 31
0.0
  0
LINE
  8
0
 62
     0
 10
6.25217
 20
22.0624
 30
0.0
 11
7.97609
 21
22.0624
 31
0.0
  0
LINE
  8
0
 62
     0
 10
7.97609
 20
22.0624
 30
0.0
 11
7.97609
 21
21.0826
 31
0.0
  0
LINE
  8
0
 62
     0
 10
7.97609
 20
21.0826
 30
0.0
 11
11.2765
 21
21.0826
 31
0.0
  0
LINE
  8
0
 62
     0
 10
11.2765
 20
21.0826
 30
0.0
 11
11.2765
 21
22.0624
 31
0.0
  0
LINE
  8
0
 62
     0
 10
11.2765
 20
22.0624
 30
0.0
 11
13.0018
 21
22.0624
 31
0.0
  0
LINE
  8
0
 62
     0
 10
13.0018
 20
22.0624
 30
0.0
 11
13.0018
 21
26.5327
 31
0.0
  0
LINE
  8
0
 62
     0
 10
13.0018
 20
26.5327
 30
0.0
 11
14.5259
 21
26.5327
 31
0.0
  0
LINE
  8
0
 62
     0
 10
14.5259
 20
26.5327
 30
0.0
 11
14.5259
 21
25.9319
 31
0.0
  0
LINE
  8
0
 62
     0
 10
14.5259
 20
25.9319
 30
0.0
 11
13.7267
 21
25.9319
 31
0.0
  0
LINE
  8
0
 62
     0
 10
13.7267
 20
25.9319
 30
0.0
 11
13.7267
 21
22.8327
 31
0.0
  0
LINE
  8
0
 62
     0
 10
13.7267
 20
22.8327
 30
0.0
 11
14.5259
 21
22.8327
 31
0.0
  0
LINE
  8
0
 62
     0
 10
14.5259
 20
22.8327
 30
0.0
 11
14.5259
 21
21.8323
 31
0.0
  0
LINE
  8
0
 62
     0
 10
14.5259
 20
21.8323
 30
0.0
 11
28.5268
 21
21.8323
 31
0.0
  0
LINE
  8
0
 62
     0
 10
28.5268
 20
21.8323
 30
0.0
 11
28.5268
 21
22.8327
 31
0.0
  0
LINE
  8
0
 62
     0
 10
28.5268
 20
22.8327
 30
0.0
 11
29.326
 21
22.8327
 31
0.0
  0
LINE
  8
0
 62
     0
 10
29.326
 20
22.8327
 30
0.0
 11
29.326
 21
25.9319
 31
0.0
  0
LINE
  8
0
 62
     0
 10
29.326
 20
25.9319
 30
0.0
 11
28.5268
 21
25.9319
 31
0.0
  0
LINE
  8
0
 62
     0
 10
28.5268
 20
25.9319
 30
0.0
 11
28.5268
 21
26.5327
 31
0.0
  0
LINE
  8
0
 62
     0
 10
28.5268
 20
26.5327
 30
0.0
 11
30.0509
 21
26.5327
 31
0.0
  0
LINE
  8
0
 62
     0
 10
30.0509
 20
26.5327
 30
0.0
 11
30.0509
 21
22.0624
 31
0.0
  0
LINE
  8
0
 62
     0
 10
30.0509
 20
22.0624
 30
0.0
 11
31.7762
 21
22.0624
 31
0.0
  0
LINE
  8
0
 62
     0
 10
31.7762
 20
22.0624
 30
0.0
 11
31.7762
 21
21.0826
 31
0.0
  0
LINE
  8
0
 62
     0
 10
31.7762
 20
21.0826
 30
0.0
 11
35.0766
 21
21.0826
 31
0.0
  0
LINE
  8
0
 62
     0
 10
35.0766
 20
21.0826
 30
0.0
 11
35.0766
 21
22.0624
 31
0.0
  0
LINE
  8
0
 62
     0
 10
35.0766
 20
22.0624
 30
0.0
 11
36.8018
 21
22.0624
 31
0.0
  0
LINE
  8
0
 62
     0
 10
36.8018
 20
22.0624
 30
0.0
 11
36.8018
 21
28.3325
 31
0.0
  0
LINE
  8
0
 62
     0
 10
36.8018
 20
28.3325
 30
0.0
 11
37.6259
 21
28.3325
 31
0.0
  0
LINE
  8
0
 62
     0
 10
37.6259
 20
28.3325
 30
0.0
 11
37.6259
 21
31.1326
 31
0.0
  0
LINE
  8
0
 62
     0
 10
37.6259
 20
31.1326
 30
0.0
 11
36.8018
 21
31.1326
 31
0.0
  0
LINE
  8
0
 62
     0
 10
36.8018
 20
31.1326
 30
0.0
 11
36.8018
 21
34.3628
 31
0.0
  0
LINE
  8
0
 62
     0
 10
36.8018
 20
34.3628
 30
0.0
 11
35.0766
 21
34.3628
 31
0.0
  0
LINE
  8
0
 62
     0
 10
35.0766
 20
34.3628
 30
0.0
 11
35.0766
 21
35.282
 31
0.0
  0
LINE
  8
0
 62
     0
 10
35.0766
 20
35.282
 30
0.0
 11
31.7762
 21
35.282
 31
0.0
  0
LINE
  8
0
 62
     0
 10
31.7762
 20
35.282
 30
0.0
 11
31.7762
 21
34.3628
 31
0.0
  0
LINE
  8
0
 62
     0
 10
31.7762
 20
34.3628
 30
0.0
 11
30.0509
 21
34.3628
 31
0.0
  0
LINE
  8
0
 62
     0
 10
30.0509
 20
34.3628
 30
0.0
 11
30.0509
 21
31.1326
 31
0.0
  0
LINE
  8
0
 62
     0
 10
30.0509
 20
31.1326
 30
0.0
 11
28.5268
 21
31.1326
 31
0.0
  0
LINE
  8
0
 62
     0
 10
28.5268
 20
31.1326
 30
0.0
 11
28.5268
 21
31.7321
 31
0.0
  0
LINE
  8
0
 62
     0
 10
28.5268
 20
31.7321
 30
0.0
 11
29.326
 21
31.7321
 31
0.0
  0
LINE
  8
0
 62
     0
 10
29.326
 20
31.7321
 30
0.0
 11
29.326
 21
34.8327
 31
0.0
  0
LINE
  8
0
 62
     0
 10
29.326
 20
34.8327
 30
0.0
 11
28.5268
 21
34.8327
 31
0.0
  0
LINE
  8
0
 62
     0
 10
28.5268
 20
34.8327
 30
0.0
 11
28.5268
 21
35.8316
 31
0.0
  0
LINE
  8
0
 62
     0
 10
28.5268
 20
35.8316
 30
0.0
 11
14.5259
 21
35.8316
 31
0.0
  0
LINE
  8
0
 62
     0
 10
252.651
 20
35.8316
 30
0.0
 11
252.651
 21
34.8327
 31
0.0
  0
LINE
  8
0
 62
     0
 10
252.651
 20
34.8327
 30
0.0
 11
251.85
 21
34.8327
 31
0.0
  0
LINE
  8
0
 62
     0
 10
251.85
 20
34.8327
 30
0.0
 11
251.85
 21
31.7321
 31
0.0
  0
LINE
  8
0
 62
     0
 10
251.85
 20
31.7321
 30
0.0
 11
252.651
 21
31.7321
 31
0.0
  0
LINE
  8
0
 62
     0
 10
252.651
 20
31.7321
 30
0.0
 11
252.651
 21
31.1326
 31
0.0
  0
LINE
  8
0
 62
     0
 10
252.651
 20
31.1326
 30
0.0
 11
251.127
 21
31.1326
 31
0.0
  0
LINE
  8
0
 62
     0
 10
251.127
 20
31.1326
 30
0.0
 11
251.127
 21
34.3628
 31
0.0
  0
LINE
  8
0
 62
     0
 10
251.127
 20
34.3628
 30
0.0
 11
249.402
 21
34.3628
 31
0.0
  0
LINE
  8
0
 62
     0
 10
249.402
 20
34.3628
 30
0.0
 11
249.402
 21
35.282
 31
0.0
  0
LINE
  8
0
 62
     0
 10
249.402
 20
35.282
 30
0.0
 11
246.101
 21
35.282
 31
0.0
  0
LINE
  8
0
 62
     0
 10
246.101
 20
35.282
 30
0.0
 11
246.101
 21
34.3628
 31
0.0
  0
LINE
  8
0
 62
     0
 10
246.101
 20
34.3628
 30
0.0
 11
244.377
 21
34.3628
 31
0.0
  0
LINE
  8
0
 62
     0
 10
244.377
 20
34.3628
 30
0.0
 11
244.377
 21
31.1326
 31
0.0
  0
LINE
  8
0
 62
     0
 10
244.377
 20
31.1326
 30
0.0
 11
243.552
 21
31.1326
 31
0.0
  0
LINE
  8
0
 62
     0
 10
243.552
 20
31.1326
 30
0.0
 11
243.552
 21
28.3325
 31
0.0
  0
LINE
  8
0
 62
     0
 10
243.552
 20
28.3325
 30
0.0
 11
244.377
 21
28.3325
 31
0.0
  0
LINE
  8
0
 62
     0
 10
244.377
 20
28.3325
 30
0.0
 11
244.377
 21
22.0624
 31
0.0
  0
LINE
  8
0
 62
     0
 10
244.377
 20
22.0624
 30
0.0
 11
246.101
 21
22.0624
 31
0.0
  0
LINE
  8
0
 62
     0
 10
246.101
 20
22.0624
 30
0.0
 11
246.101
 21
21.0826
 31
0.0
  0
LINE
  8
0
 62
     0
 10
246.101
 20
21.0826
 30
0.0
 11
249.402
 21
21.0826
 31
0.0
  0
LINE
  8
0
 62
     0
 10
249.402
 20
21.0826
 30
0.0
 11
249.402
 21
22.0624
 31
0.0
  0
LINE
  8
0
 62
     0
 10
249.402
 20
22.0624
 30
0.0
 11
251.127
 21
22.0624
 31
0.0
  0
LINE
  8
0
 62
     0
 10
251.127
 20
22.0624
 30
0.0
 11
251.127
 21
26.5327
 31
0.0
  0
LINE
  8
0
 62
     0
 10
251.127
 20
26.5327
 30
0.0
 11
252.651
 21
26.5327
 31
0.0
  0
LINE
  8
0
 62
     0
 10
252.651
 20
26.5327
 30
0.0
 11
252.651
 21
25.9319
 31
0.0
  0
LINE
  8
0
 62
     0
 10
252.651
 20
25.9319
 30
0.0
 11
251.85
 21
25.9319
 31
0.0
  0
LINE
  8
0
 62
     0
 10
251.85
 20
25.9319
 30
0.0
 11
251.85
 21
22.8327
 31
0.0
  0
LINE
  8
0
 62
     0
 10
251.85
 20
22.8327
 30
0.0
 11
252.651
 21
22.8327
 31
0.0
  0
LINE
  8
0
 62
     0
 10
252.651
 20
22.8327
 30
0.0
 11
252.651
 21
21.8323
 31
0.0
  0
LINE
  8
0
 62
     0
 10
252.651
 20
21.8323
 30
0.0
 11
266.652
 21
21.8323
 31
0.0
  0
LINE
  8
0
 62
     0
 10
266.652
 20
21.8323
 30
0.0
 11
266.652
 21
22.8327
 31
0.0
  0
LINE
  8
0
 62
     0
 10
266.652
 20
22.8327
 30
0.0
 11
267.451
 21
22.8327
 31
0.0
  0
LINE
  8
0
 62
     0
 10
267.451
 20
22.8327
 30
0.0
 11
267.451
 21
25.9319
 31
0.0
  0
LINE
  8
0
 62
     0
 10
267.451
 20
25.9319
 30
0.0
 11
266.652
 21
25.9319
 31
0.0
  0
LINE
  8
0
 62
     0
 10
266.652
 20
25.9319
 30
0.0
 11
266.652
 21
26.5327
 31
0.0
  0
LINE
  8
0
 62
     0
 10
266.652
 20
26.5327
 30
0.0
 11
268.176
 21
26.5327
 31
0.0
  0
LINE
  8
0
 62
     0
 10
268.176
 20
26.5327
 30
0.0
 11
268.176
 21
22.0624
 31
0.0
  0
LINE
  8
0
 62
     0
 10
268.176
 20
22.0624
 30
0.0
 11
269.901
 21
22.0624
 31
0.0
  0
LINE
  8
0
 62
     0
 10
269.901
 20
22.0624
 30
0.0
 11
269.901
 21
21.0826
 31
0.0
  0
LINE
  8
0
 62
     0
 10
269.901
 20
21.0826
 30
0.0
 11
273.202
 21
21.0826
 31
0.0
  0
LINE
  8
0
 62
     0
 10
273.202
 20
21.0826
 30
0.0
 11
273.202
 21
22.0624
 31
0.0
  0
LINE
  8
0
 62
     0
 10
273.202
 20
22.0624
 30
0.0
 11
274.927
 21
22.0624
 31
0.0
  0
LINE
  8
0
 62
     0
 10
274.927
 20
22.0624
 30
0.0
 11
274.927
 21
28.3325
 31
0.0
  0
LINE
  8
0
 62
     0
 10
274.927
 20
28.3325
 30
0.0
 11
275.751
 21
28.3325
 31
0.0
  0
LINE
  8
0
 62
     0
 10
275.751
 20
28.3325
 30
0.0
 11
275.751
 21
31.1326
 31
0.0
  0
LINE
  8
0
 62
     0
 10
275.751
 20
31.1326
 30
0.0
 11
274.927
 21
31.1326
 31
0.0
  0
LINE
  8
0
 62
     0
 10
274.927
 20
31.1326
 30
0.0
 11
274.927
 21
34.3628
 31
0.0
  0
LINE
  8
0
 62
     0
 10
274.927
 20
34.3628
 30
0.0
 11
273.202
 21
34.3628
 31
0.0
  0
LINE
  8
0
 62
     0
 10
273.202
 20
34.3628
 30
0.0
 11
273.202
 21
35.282
 31
0.0
  0
LINE
  8
0
 62
     0
 10
273.202
 20
35.282
 30
0.0
 11
269.901
 21
35.282
 31
0.0
  0
LINE
  8
0
 62
     0
 10
269.901
 20
35.282
 30
0.0
 11
269.901
 21
34.3628
 31
0.0
  0
LINE
  8
0
 62
     0
 10
269.901
 20
34.3628
 30
0.0
 11
268.176
 21
34.3628
 31
0.0
  0
LINE
  8
0
 62
     0
 10
268.176
 20
34.3628
 30
0.0
 11
268.176
 21
31.1326
 31
0.0
  0
LINE
  8
0
 62
     0
 10
268.176
 20
31.1326
 30
0.0
 11
266.652
 21
31.1326
 31
0.0
  0
LINE
  8
0
 62
     0
 10
266.652
 20
31.1326
 30
0.0
 11
266.652
 21
31.7321
 31
0.0
  0
LINE
  8
0
 62
     0
 10
266.652
 20
31.7321
 30
0.0
 11
267.451
 21
31.7321
 31
0.0
  0
LINE
  8
0
 62
     0
 10
267.451
 20
31.7321
 30
0.0
 11
267.451
 21
34.8327
 31
0.0
  0
LINE
  8
0
 62
     0
 10
267.451
 20
34.8327
 30
0.0
 11
266.652
 21
34.8327
 31
0.0
  0
LINE
  8
0
 62
     0
 10
266.652
 20
34.8327
 30
0.0
 11
266.652
 21
35.8316
 31
0.0
  0
LINE
  8
0
 62
     0
 10
266.652
 20
35.8316
 30
0.0
 11
252.651
 21
35.8316
 31
0.0
  0
LINE
  8
0
 62
     0
 10
45.4822
 20
35.8316
 30
0.0
 11
45.4822
 21
34.8327
 31
0.0
  0
LINE
  8
0
 62
     0
 10
45.4822
 20
34.8327
 30
0.0
 11
44.6828
 21
34.8327
 31
0.0
  0
LINE
  8
0
 62
     0
 10
44.6828
 20
34.8327
 30
0.0
 11
44.6828
 21
31.7321
 31
0.0
  0
LINE
  8
0
 62
     0
 10
44.6828
 20
31.7321
 30
0.0
 11
45.4822
 21
31.7321
 31
0.0
  0
LINE
  8
0
 62
     0
 10
45.4822
 20
31.7321
 30
0.0
 11
45.4822
 21
25.9319
 31
0.0
  0
LINE
  8
0
 62
     0
 10
45.4822
 20
25.9319
 30
0.0
 11
44.6828
 21
25.9319
 31
0.0
  0
LINE
  8
0
 62
     0
 10
44.6828
 20
25.9319
 30
0.0
 11
44.6828
 21
22.8327
 31
0.0
  0
LINE
  8
0
 62
     0
 10
44.6828
 20
22.8327
 30
0.0
 11
45.4822
 21
22.8327
 31
0.0
  0
LINE
  8
0
 62
     0
 10
45.4822
 20
22.8327
 30
0.0
 11
45.4822
 21
21.8323
 31
0.0
  0
LINE
  8
0
 62
     0
 10
45.4822
 20
21.8323
 30
0.0
 11
59.4829
 21
21.8323
 31
0.0
  0
LINE
  8
0
 62
     0
 10
59.4829
 20
21.8323
 30
0.0
 11
59.4829
 21
22.8327
 31
0.0
  0
LINE
  8
0
 62
     0
 10
59.4829
 20
22.8327
 30
0.0
 11
60.2823
 21
22.8327
 31
0.0
  0
LINE
  8
0
 62
     0
 10
60.2823
 20
22.8327
 30
0.0
 11
60.2823
 21
25.9319
 31
0.0
  0
LINE
  8
0
 62
     0
 10
60.2823
 20
25.9319
 30
0.0
 11
59.4829
 21
25.9319
 31
0.0
  0
LINE
  8
0
 62
     0
 10
59.4829
 20
25.9319
 30
0.0
 11
59.4829
 21
31.7321
 31
0.0
  0
LINE
  8
0
 62
     0
 10
59.4829
 20
31.7321
 30
0.0
 11
60.2823
 21
31.7321
 31
0.0
  0
LINE
  8
0
 62
     0
 10
60.2823
 20
31.7321
 30
0.0
 11
60.2823
 21
34.8327
 31
0.0
  0
LINE
  8
0
 62
     0
 10
60.2823
 20
34.8327
 30
0.0
 11
59.4829
 21
34.8327
 31
0.0
  0
LINE
  8
0
 62
     0
 10
59.4829
 20
34.8327
 30
0.0
 11
59.4829
 21
35.8316
 31
0.0
  0
LINE
  8
0
 62
     0
 10
59.4829
 20
35.8316
 30
0.0
 11
45.4822
 21
35.8316
 31
0.0
  0
LINE
  8
0
 62
     0
 10
64.5322
 20
35.8316
 30
0.0
 11
64.5322
 21
34.8327
 31
0.0
  0
LINE
  8
0
 62
     0
 10
64.5322
 20
34.8327
 30
0.0
 11
63.7328
 21
34.8327
 31
0.0
  0
LINE
  8
0
 62
     0
 10
63.7328
 20
34.8327
 30
0.0
 11
63.7328
 21
31.7321
 31
0.0
  0
LINE
  8
0
 62
     0
 10
63.7328
 20
31.7321
 30
0.0
 11
64.5322
 21
31.7321
 31
0.0
  0
LINE
  8
0
 62
     0
 10
64.5322
 20
31.7321
 30
0.0
 11
64.5322
 21
25.9319
 31
0.0
  0
LINE
  8
0
 62
     0
 10
64.5322
 20
25.9319
 30
0.0
 11
63.7328
 21
25.9319
 31
0.0
  0
LINE
  8
0
 62
     0
 10
63.7328
 20
25.9319
 30
0.0
 11
63.7328
 21
22.8327
 31
0.0
  0
LINE
  8
0
 62
     0
 10
63.7328
 20
22.8327
 30
0.0
 11
64.5322
 21
22.8327
 31
0.0
  0
LINE
  8
0
 62
     0
 10
64.5322
 20
22.8327
 30
0.0
 11
64.5322
 21
21.8323
 31
0.0
  0
LINE
  8
0
 62
     0
 10
64.5322
 20
21.8323
 30
0.0
 11
78.5329
 21
21.8323
 31
0.0
  0
LINE
  8
0
 62
     0
 10
78.5329
 20
21.8323
 30
0.0
 11
78.5329
 21
22.8327
 31
0.0
  0
LINE
  8
0
 62
     0
 10
78.5329
 20
22.8327
 30
0.0
 11
79.3323
 21
22.8327
 31
0.0
  0
LINE
  8
0
 62
     0
 10
79.3323
 20
22.8327
 30
0.0
 11
79.3323
 21
25.9319
 31
0.0
  0
LINE
  8
0
 62
     0
 10
79.3323
 20
25.9319
 30
0.0
 11
78.5329
 21
25.9319
 31
0.0
  0
LINE
  8
0
 62
     0
 10
78.5329
 20
25.9319
 30
0.0
 11
78.5329
 21
31.7321
 31
0.0
  0
LINE
  8
0
 62
     0
 10
78.5329
 20
31.7321
 30
0.0
 11
79.3323
 21
31.7321
 31
0.0
  0
LINE
  8
0
 62
     0
 10
79.3323
 20
31.7321
 30
0.0
 11
79.3323
 21
34.8327
 31
0.0
  0
LINE
  8
0
 62
     0
 10
79.3323
 20
34.8327
 30
0.0
 11
78.5329
 21
34.8327
 31
0.0
  0
LINE
  8
0
 62
     0
 10
78.5329
 20
34.8327
 30
0.0
 11
78.5329
 21
35.8316
 31
0.0
  0
LINE
  8
0
 62
     0
 10
78.5329
 20
35.8316
 30
0.0
 11
64.5322
 21
35.8316
 31
0.0
  0
LINE
  8
0
 62
     0
 10
83.5822
 20
35.8316
 30
0.0
 11
83.5822
 21
34.8327
 31
0.0
  0
LINE
  8
0
 62
     0
 10
83.5822
 20
34.8327
 30
0.0
 11
82.7828
 21
34.8327
 31
0.0
  0
LINE
  8
0
 62
     0
 10
82.7828
 20
34.8327
 30
0.0
 11
82.7828
 21
31.7321
 31
0.0
  0
LINE
  8
0
 62
     0
 10
82.7828
 20
31.7321
 30
0.0
 11
83.5822
 21
31.7321
 31
0.0
  0
LINE
  8
0
 62
     0
 10
83.5822
 20
31.7321
 30
0.0
 11
83.5822
 21
25.9319
 31
0.0
  0
LINE
  8
0
 62
     0
 10
83.5822
 20
25.9319
 30
0.0
 11
82.7828
 21
25.9319
 31
0.0
  0
LINE
  8
0
 62
     0
 10
82.7828
 20
25.9319
 30
0.0
 11
82.7828
 21
22.8327
 31
0.0
  0
LINE
  8
0
 62
     0
 10
82.7828
 20
22.8327
 30
0.0
 11
83.5822
 21
22.8327
 31
0.0
  0
LINE
  8
0
 62
     0
 10
83.5822
 20
22.8327
 30
0.0
 11
83.5822
 21
21.8323
 31
0.0
  0
LINE
  8
0
 62
     0
 10
83.5822
 20
21.8323
 30
0.0
 11
97.5829
 21
21.8323
 31
0.0
  0
LINE
  8
0
 62
     0
 10
97.5829
 20
21.8323
 30
0.0
 11
97.5829
 21
22.8327
 31
0.0
  0
LINE
  8
0
 62
     0
 10
97.5829
 20
22.8327
 30
0.0
 11
98.3823
 21
22.8327
 31
0.0
  0
LINE
  8
0
 62
     0
 10
98.3823
 20
22.8327
 30
0.0
 11
98.3823
 21
25.9319
 31
0.0
  0
LINE
  8
0
 62
     0
 10
98.3823
 20
25.9319
 30
0.0
 11
97.5829
 21
25.9319
 31
0.0
  0
LINE
  8
0
 62
     0
 10
97.5829
 20
25.9319
 30
0.0
 11
97.5829
 21
31.7321
 31
0.0
  0
LINE
  8
0
 62
     0
 10
97.5829
 20
31.7321
 30
0.0
 11
98.3823
 21
31.7321
 31
0.0
  0
LINE
  8
0
 62
     0
 10
98.3823
 20
31.7321
 30
0.0
 11
98.3823
 21
34.8327
 31
0.0
  0
LINE
  8
0
 62
     0
 10
98.3823
 20
34.8327
 30
0.0
 11
97.5829
 21
34.8327
 31
0.0
  0
LINE
  8
0
 62
     0
 10
97.5829
 20
34.8327
 30
0.0
 11
97.5829
 21
35.8316
 31
0.0
  0
LINE
  8
0
 62
     0
 10
97.5829
 20
35.8316
 30
0.0
 11
83.5822
 21
35.8316
 31
0.0
  0
LINE
  8
0
 62
     0
 10
102.632
 20
35.8316
 30
0.0
 11
102.632
 21
34.8327
 31
0.0
  0
LINE
  8
0
 62
     0
 10
102.632
 20
34.8327
 30
0.0
 11
101.833
 21
34.8327
 31
0.0
  0
LINE
  8
0
 62
     0
 10
101.833
 20
34.8327
 30
0.0
 11
101.833
 21
31.7321
 31
0.0
  0
LINE
  8
0
 62
     0
 10
101.833
 20
31.7321
 30
0.0
 11
102.632
 21
31.7321
 31
0.0
  0
LINE
  8
0
 62
     0
 10
102.632
 20
31.7321
 30
0.0
 11
102.632
 21
25.9319
 31
0.0
  0
LINE
  8
0
 62
     0
 10
102.632
 20
25.9319
 30
0.0
 11
101.833
 21
25.9319
 31
0.0
  0
LINE
  8
0
 62
     0
 10
101.833
 20
25.9319
 30
0.0
 11
101.833
 21
22.8327
 31
0.0
  0
LINE
  8
0
 62
     0
 10
101.833
 20
22.8327
 30
0.0
 11
102.632
 21
22.8327
 31
0.0
  0
LINE
  8
0
 62
     0
 10
102.632
 20
22.8327
 30
0.0
 11
102.632
 21
21.8323
 31
0.0
  0
LINE
  8
0
 62
     0
 10
102.632
 20
21.8323
 30
0.0
 11
116.633
 21
21.8323
 31
0.0
  0
LINE
  8
0
 62
     0
 10
116.633
 20
21.8323
 30
0.0
 11
116.633
 21
22.8327
 31
0.0
  0
LINE
  8
0
 62
     0
 10
116.633
 20
22.8327
 30
0.0
 11
117.432
 21
22.8327
 31
0.0
  0
LINE
  8
0
 62
     0
 10
117.432
 20
22.8327
 30
0.0
 11
117.432
 21
25.9319
 31
0.0
  0
LINE
  8
0
 62
     0
 10
117.432
 20
25.9319
 30
0.0
 11
116.633
 21
25.9319
 31
0.0
  0
LINE
  8
0
 62
     0
 10
116.633
 20
25.9319
 30
0.0
 11
116.633
 21
31.7321
 31
0.0
  0
LINE
  8
0
 62
     0
 10
116.633
 20
31.7321
 30
0.0
 11
117.432
 21
31.7321
 31
0.0
  0
LINE
  8
0
 62
     0
 10
117.432
 20
31.7321
 30
0.0
 11
117.432
 21
34.8327
 31
0.0
  0
LINE
  8
0
 62
     0
 10
117.432
 20
34.8327
 30
0.0
 11
116.633
 21
34.8327
 31
0.0
  0
LINE
  8
0
 62
     0
 10
116.633
 20
34.8327
 30
0.0
 11
116.633
 21
35.8316
 31
0.0
  0
LINE
  8
0
 62
     0
 10
116.633
 20
35.8316
 30
0.0
 11
102.632
 21
35.8316
 31
0.0
  0
LINE
  8
0
 62
     0
 10
121.682
 20
35.8316
 30
0.0
 11
121.682
 21
34.8327
 31
0.0
  0
LINE
  8
0
 62
     0
 10
121.682
 20
34.8327
 30
0.0
 11
120.883
 21
34.8327
 31
0.0
  0
LINE
  8
0
 62
     0
 10
120.883
 20
34.8327
 30
0.0
 11
120.883
 21
31.7321
 31
0.0
  0
LINE
  8
0
 62
     0
 10
120.883
 20
31.7321
 30
0.0
 11
121.682
 21
31.7321
 31
0.0
  0
LINE
  8
0
 62
     0
 10
121.682
 20
31.7321
 30
0.0
 11
121.682
 21
25.9319
 31
0.0
  0
LINE
  8
0
 62
     0
 10
121.682
 20
25.9319
 30
0.0
 11
120.883
 21
25.9319
 31
0.0
  0
LINE
  8
0
 62
     0
 10
120.883
 20
25.9319
 30
0.0
 11
120.883
 21
22.8327
 31
0.0
  0
LINE
  8
0
 62
     0
 10
120.883
 20
22.8327
 30
0.0
 11
121.682
 21
22.8327
 31
0.0
  0
LINE
  8
0
 62
     0
 10
121.682
 20
22.8327
 30
0.0
 11
121.682
 21
21.8323
 31
0.0
  0
LINE
  8
0
 62
     0
 10
121.682
 20
21.8323
 30
0.0
 11
135.683
 21
21.8323
 31
0.0
  0
LINE
  8
0
 62
     0
 10
135.683
 20
21.8323
 30
0.0
 11
135.683
 21
22.8327
 31
0.0
  0
LINE
  8
0
 62
     0
 10
135.683
 20
22.8327
 30
0.0
 11
136.482
 21
22.8327
 31
0.0
  0
LINE
  8
0
 62
     0
 10
136.482
 20
22.8327
 30
0.0
 11
136.482
 21
25.9319
 31
0.0
  0
LINE
  8
0
 62
     0
 10
136.482
 20
25.9319
 30
0.0
 11
135.683
 21
25.9319
 31
0.0
  0
LINE
  8
0
 62
     0
 10
135.683
 20
25.9319
 30
0.0
 11
135.683
 21
31.7321
 31
0.0
  0
LINE
  8
0
 62
     0
 10
135.683
 20
31.7321
 30
0.0
 11
136.482
 21
31.7321
 31
0.0
  0
LINE
  8
0
 62
     0
 10
136.482
 20
31.7321
 30
0.0
 11
136.482
 21
34.8327
 31
0.0
  0
LINE
  8
0
 62
     0
 10
136.482
 20
34.8327
 30
0.0
 11
135.683
 21
34.8327
 31
0.0
  0
LINE
  8
0
 62
     0
 10
135.683
 20
34.8327
 30
0.0
 11
135.683
 21
35.8316
 31
0.0
  0
LINE
  8
0
 62
     0
 10
135.683
 20
35.8316
 30
0.0
 11
121.682
 21
35.8316
 31
0.0
  0
LINE
  8
0
 62
     0
 10
140.732
 20
35.8316
 30
0.0
 11
140.732
 21
34.8327
 31
0.0
  0
LINE
  8
0
 62
     0
 10
140.732
 20
34.8327
 30
0.0
 11
139.933
 21
34.8327
 31
0.0
  0
LINE
  8
0
 62
     0
 10
139.933
 20
34.8327
 30
0.0
 11
139.933
 21
31.7321
 31
0.0
  0
LINE
  8
0
 62
     0
 10
139.933
 20
31.7321
 30
0.0
 11
140.732
 21
31.7321
 31
0.0
  0
LINE
  8
0
 62
     0
 10
140.732
 20
31.7321
 30
0.0
 11
140.732
 21
25.9319
 31
0.0
  0
LINE
  8
0
 62
     0
 10
140.732
 20
25.9319
 30
0.0
 11
139.933
 21
25.9319
 31
0.0
  0
LINE
  8
0
 62
     0
 10
139.933
 20
25.9319
 30
0.0
 11
139.933
 21
22.8327
 31
0.0
  0
LINE
  8
0
 62
     0
 10
139.933
 20
22.8327
 30
0.0
 11
140.732
 21
22.8327
 31
0.0
  0
LINE
  8
0
 62
     0
 10
140.732
 20
22.8327
 30
0.0
 11
140.732
 21
21.8323
 31
0.0
  0
LINE
  8
0
 62
     0
 10
140.732
 20
21.8323
 30
0.0
 11
154.733
 21
21.8323
 31
0.0
  0
LINE
  8
0
 62
     0
 10
154.733
 20
21.8323
 30
0.0
 11
154.733
 21
22.8327
 31
0.0
  0
LINE
  8
0
 62
     0
 10
154.733
 20
22.8327
 30
0.0
 11
155.532
 21
22.8327
 31
0.0
  0
LINE
  8
0
 62
     0
 10
155.532
 20
22.8327
 30
0.0
 11
155.532
 21
25.9319
 31
0.0
  0
LINE
  8
0
 62
     0
 10
155.532
 20
25.9319
 30
0.0
 11
154.733
 21
25.9319
 31
0.0
  0
LINE
  8
0
 62
     0
 10
154.733
 20
25.9319
 30
0.0
 11
154.733
 21
31.7321
 31
0.0
  0
LINE
  8
0
 62
     0
 10
154.733
 20
31.7321
 30
0.0
 11
155.532
 21
31.7321
 31
0.0
  0
LINE
  8
0
 62
     0
 10
155.532
 20
31.7321
 30
0.0
 11
155.532
 21
34.8327
 31
0.0
  0
LINE
  8
0
 62
     0
 10
155.532
 20
34.8327
 30
0.0
 11
154.733
 21
34.8327
 31
0.0
  0
LINE
  8
0
 62
     0
 10
154.733
 20
34.8327
 30
0.0
 11
154.733
 21
35.8316
 31
0.0
  0
LINE
  8
0
 62
     0
 10
154.733
 20
35.8316
 30
0.0
 11
140.732
 21
35.8316
 31
0.0
  0
LINE
  8
0
 62
     0
 10
159.782
 20
35.8316
 30
0.0
 11
159.782
 21
34.8327
 31
0.0
  0
LINE
  8
0
 62
     0
 10
159.782
 20
34.8327
 30
0.0
 11
158.983
 21
34.8327
 31
0.0
  0
LINE
  8
0
 62
     0
 10
158.983
 20
34.8327
 30
0.0
 11
158.983
 21
31.7321
 31
0.0
  0
LINE
  8
0
 62
     0
 10
158.983
 20
31.7321
 30
0.0
 11
159.782
 21
31.7321
 31
0.0
  0
LINE
  8
0
 62
     0
 10
159.782
 20
31.7321
 30
0.0
 11
159.782
 21
25.9319
 31
0.0
  0
LINE
  8
0
 62
     0
 10
159.782
 20
25.9319
 30
0.0
 11
158.983
 21
25.9319
 31
0.0
  0
LINE
  8
0
 62
     0
 10
158.983
 20
25.9319
 30
0.0
 11
158.983
 21
22.8327
 31
0.0
  0
LINE
  8
0
 62
     0
 10
158.983
 20
22.8327
 30
0.0
 11
159.782
 21
22.8327
 31
0.0
  0
LINE
  8
0
 62
     0
 10
159.782
 20
22.8327
 30
0.0
 11
159.782
 21
21.8323
 31
0.0
  0
LINE
  8
0
 62
     0
 10
159.782
 20
21.8323
 30
0.0
 11
173.783
 21
21.8323
 31
0.0
  0
LINE
  8
0
 62
     0
 10
173.783
 20
21.8323
 30
0.0
 11
173.783
 21
22.8327
 31
0.0
  0
LINE
  8
0
 62
     0
 10
173.783
 20
22.8327
 30
0.0
 11
174.582
 21
22.8327
 31
0.0
  0
LINE
  8
0
 62
     0
 10
174.582
 20
22.8327
 30
0.0
 11
174.582
 21
25.9319
 31
0.0
  0
LINE
  8
0
 62
     0
 10
174.582
 20
25.9319
 30
0.0
 11
173.783
 21
25.9319
 31
0.0
  0
LINE
  8
0
 62
     0
 10
173.783
 20
25.9319
 30
0.0
 11
173.783
 21
31.7321
 31
0.0
  0
LINE
  8
0
 62
     0
 10
173.783
 20
31.7321
 30
0.0
 11
174.582
 21
31.7321
 31
0.0
  0
LINE
  8
0
 62
     0
 10
174.582
 20
31.7321
 30
0.0
 11
174.582
 21
34.8327
 31
0.0
  0
LINE
  8
0
 62
     0
 10
174.582
 20
34.8327
 30
0.0
 11
173.783
 21
34.8327
 31
0.0
  0
LINE
  8
0
 62
     0
 10
173.783
 20
34.8327
 30
0.0
 11
173.783
 21
35.8316
 31
0.0
  0
LINE
  8
0
 62
     0
 10
173.783
 20
35.8316
 30
0.0
 11
159.782
 21
35.8316
 31
0.0
  0
LINE
  8
0
 62
     0
 10
178.832
 20
35.8316
 30
0.0
 11
178.832
 21
34.8327
 31
0.0
  0
LINE
  8
0
 62
     0
 10
178.832
 20
34.8327
 30
0.0
 11
178.033
 21
34.8327
 31
0.0
  0
LINE
  8
0
 62
     0
 10
178.033
 20
34.8327
 30
0.0
 11
178.033
 21
31.7321
 31
0.0
  0
LINE
  8
0
 62
     0
 10
178.033
 20
31.7321
 30
0.0
 11
178.832
 21
31.7321
 31
0.0
  0
LINE
  8
0
 62
     0
 10
178.832
 20
31.7321
 30
0.0
 11
178.832
 21
25.9319
 31
0.0
  0
LINE
  8
0
 62
     0
 10
178.832
 20
25.9319
 30
0.0
 11
178.033
 21
25.9319
 31
0.0
  0
LINE
  8
0
 62
     0
 10
178.033
 20
25.9319
 30
0.0
 11
178.033
 21
22.8327
 31
0.0
  0
LINE
  8
0
 62
     0
 10
178.033
 20
22.8327
 30
0.0
 11
178.832
 21
22.8327
 31
0.0
  0
LINE
  8
0
 62
     0
 10
178.832
 20
22.8327
 30
0.0
 11
178.832
 21
21.8323
 31
0.0
  0
LINE
  8
0
 62
     0
 10
178.832
 20
21.8323
 30
0.0
 11
192.833
 21
21.8323
 31
0.0
  0
LINE
  8
0
 62
     0
 10
192.833
 20
21.8323
 30
0.0
 11
192.833
 21
22.8327
 31
0.0
  0
LINE
  8
0
 62
     0
 10
192.833
 20
22.8327
 30
0.0
 11
193.632
 21
22.8327
 31
0.0
  0
LINE
  8
0
 62
     0
 10
193.632
 20
22.8327
 30
0.0
 11
193.632
 21
25.9319
 31
0.0
  0
LINE
  8
0
 62
     0
 10
193.632
 20
25.9319
 30
0.0
 11
192.833
 21
25.9319
 31
0.0
  0
LINE
  8
0
 62
     0
 10
192.833
 20
25.9319
 30
0.0
 11
192.833
 21
31.7321
 31
0.0
  0
LINE
  8
0
 62
     0
 10
192.833
 20
31.7321
 30
0.0
 11
193.632
 21
31.7321
 31
0.0
  0
LINE
  8
0
 62
     0
 10
193.632
 20
31.7321
 30
0.0
 11
193.632
 21
34.8327
 31
0.0
  0
LINE
  8
0
 62
     0
 10
193.632
 20
34.8327
 30
0.0
 11
192.833
 21
34.8327
 31
0.0
  0
LINE
  8
0
 62
     0
 10
192.833
 20
34.8327
 30
0.0
 11
192.833
 21
35.8316
 31
0.0
  0
LINE
  8
0
 62
     0
 10
192.833
 20
35.8316
 30
0.0
 11
178.832
 21
35.8316
 31
0.0
  0
LINE
  8
0
 62
     0
 10
197.882
 20
35.8316
 30
0.0
 11
197.882
 21
34.8327
 31
0.0
  0
LINE
  8
0
 62
     0
 10
197.882
 20
34.8327
 30
0.0
 11
197.083
 21
34.8327
 31
0.0
  0
LINE
  8
0
 62
     0
 10
197.083
 20
34.8327
 30
0.0
 11
197.083
 21
31.7321
 31
0.0
  0
LINE
  8
0
 62
     0
 10
197.083
 20
31.7321
 30
0.0
 11
197.882
 21
31.7321
 31
0.0
  0
LINE
  8
0
 62
     0
 10
197.882
 20
31.7321
 30
0.0
 11
197.882
 21
25.9319
 31
0.0
  0
LINE
  8
0
 62
     0
 10
197.882
 20
25.9319
 30
0.0
 11
197.083
 21
25.9319
 31
0.0
  0
LINE
  8
0
 62
     0
 10
197.083
 20
25.9319
 30
0.0
 11
197.083
 21
22.8327
 31
0.0
  0
LINE
  8
0
 62
     0
 10
197.083
 20
22.8327
 30
0.0
 11
197.882
 21
22.8327
 31
0.0
  0
LINE
  8
0
 62
     0
 10
197.882
 20
22.8327
 30
0.0
 11
197.882
 21
21.8323
 31
0.0
  0
LINE
  8
0
 62
     0
 10
197.882
 20
21.8323
 30
0.0
 11
211.883
 21
21.8323
 31
0.0
  0
LINE
  8
0
 62
     0
 10
211.883
 20
21.8323
 30
0.0
 11
211.883
 21
22.8327
 31
0.0
  0
LINE
  8
0
 62
     0
 10
211.883
 20
22.8327
 30
0.0
 11
212.682
 21
22.8327
 31
0.0
  0
LINE
  8
0
 62
     0
 10
212.682
 20
22.8327
 30
0.0
 11
212.682
 21
25.9319
 31
0.0
  0
LINE
  8
0
 62
     0
 10
212.682
 20
25.9319
 30
0.0
 11
211.883
 21
25.9319
 31
0.0
  0
LINE
  8
0
 62
     0
 10
211.883
 20
25.9319
 30
0.0
 11
211.883
 21
31.7321
 31
0.0
  0
LINE
  8
0
 62
     0
 10
211.883
 20
31.7321
 30
0.0
 11
212.682
 21
31.7321
 31
0.0
  0
LINE
  8
0
 62
     0
 10
212.682
 20
31.7321
 30
0.0
 11
212.682
 21
34.8327
 31
0.0
  0
LINE
  8
0
 62
     0
 10
212.682
 20
34.8327
 30
0.0
 11
211.883
 21
34.8327
 31
0.0
  0
LINE
  8
0
 62
     0
 10
211.883
 20
34.8327
 30
0.0
 11
211.883
 21
35.8316
 31
0.0
  0
LINE
  8
0
 62
     0
 10
211.883
 20
35.8316
 30
0.0
 11
197.882
 21
35.8316
 31
0.0
  0
LINE
  8
0
 62
     0
 10
216.932
 20
35.8316
 30
0.0
 11
216.932
 21
34.8327
 31
0.0
  0
LINE
  8
0
 62
     0
 10
216.932
 20
34.8327
 30
0.0
 11
216.133
 21
34.8327
 31
0.0
  0
LINE
  8
0
 62
     0
 10
216.133
 20
34.8327
 30
0.0
 11
216.133
 21
31.7321
 31
0.0
  0
LINE
  8
0
 62
     0
 10
216.133
 20
31.7321
 30
0.0
 11
216.932
 21
31.7321
 31
0.0
  0
LINE
  8
0
 62
     0
 10
216.932
 20
31.7321
 30
0.0
 11
216.932
 21
25.9319
 31
0.0
  0
LINE
  8
0
 62
     0
 10
216.932
 20
25.9319
 30
0.0
 11
216.133
 21
25.9319
 31
0.0
  0
LINE
  8
0
 62
     0
 10
216.133
 20
25.9319
 30
0.0
 11
216.133
 21
22.8327
 31
0.0
  0
LINE
  8
0
 62
     0
 10
216.133
 20
22.8327
 30
0.0
 11
216.932
 21
22.8327
 31
0.0
  0
LINE
  8
0
 62
     0
 10
216.932
 20
22.8327
 30
0.0
 11
216.932
 21
21.8323
 31
0.0
  0
LINE
  8
0
 62
     0
 10
216.932
 20
21.8323
 30
0.0
 11
230.933
 21
21.8323
 31
0.0
  0
LINE
  8
0
 62
     0
 10
230.933
 20
21.8323
 30
0.0
 11
230.933
 21
22.8327
 31
0.0
  0
LINE
  8
0
 62
     0
 10
230.933
 20
22.8327
 30
0.0
 11
231.732
 21
22.8327
 31
0.0
  0
LINE
  8
0
 62
     0
 10
231.732
 20
22.8327
 30
0.0
 11
231.732
 21
25.9319
 31
0.0
  0
LINE
  8
0
 62
     0
 10
231.732
 20
25.9319
 30
0.0
 11
230.933
 21
25.9319
 31
0.0
  0
LINE
  8
0
 62
     0
 10
230.933
 20
25.9319
 30
0.0
 11
230.933
 21
31.7321
 31
0.0
  0
LINE
  8
0
 62
     0
 10
230.933
 20
31.7321
 30
0.0
 11
231.732
 21
31.7321
 31
0.0
  0
LINE
  8
0
 62
     0
 10
231.732
 20
31.7321
 30
0.0
 11
231.732
 21
34.8327
 31
0.0
  0
LINE
  8
0
 62
     0
 10
231.732
 20
34.8327
 30
0.0
 11
230.933
 21
34.8327
 31
0.0
  0
LINE
  8
0
 62
     0
 10
230.933
 20
34.8327
 30
0.0
 11
230.933
 21
35.8316
 31
0.0
  0
LINE
  8
0
 62
     0
 10
230.933
 20
35.8316
 30
0.0
 11
216.932
 21
35.8316
 31
0.0
  0
LINE
  8
0
 62
     0
 10
312.182
 20
35.8316
 30
0.0
 11
312.182
 21
34.8327
 31
0.0
  0
LINE
  8
0
 62
     0
 10
312.182
 20
34.8327
 30
0.0
 11
311.383
 21
34.8327
 31
0.0
  0
LINE
  8
0
 62
     0
 10
311.383
 20
34.8327
 30
0.0
 11
311.383
 21
31.7321
 31
0.0
  0
LINE
  8
0
 62
     0
 10
311.383
 20
31.7321
 30
0.0
 11
312.182
 21
31.7321
 31
0.0
  0
LINE
  8
0
 62
     0
 10
312.182
 20
31.7321
 30
0.0
 11
312.182
 21
25.9319
 31
0.0
  0
LINE
  8
0
 62
     0
 10
312.182
 20
25.9319
 30
0.0
 11
311.383
 21
25.9319
 31
0.0
  0
LINE
  8
0
 62
     0
 10
311.383
 20
25.9319
 30
0.0
 11
311.383
 21
22.8327
 31
0.0
  0
LINE
  8
0
 62
     0
 10
311.383
 20
22.8327
 30
0.0
 11
312.182
 21
22.8327
 31
0.0
  0
LINE
  8
0
 62
     0
 10
312.182
 20
22.8327
 30
0.0
 11
312.182
 21
21.8323
 31
0.0
  0
LINE
  8
0
 62
     0
 10
312.182
 20
21.8323
 30
0.0
 11
326.183
 21
21.8323
 31
0.0
  0
LINE
  8
0
 62
     0
 10
326.183
 20
21.8323
 30
0.0
 11
326.183
 21
22.8327
 31
0.0
  0
LINE
  8
0
 62
     0
 10
326.183
 20
22.8327
 30
0.0
 11
326.982
 21
22.8327
 31
0.0
  0
LINE
  8
0
 62
     0
 10
326.982
 20
22.8327
 30
0.0
 11
326.982
 21
25.9319
 31
0.0
  0
LINE
  8
0
 62
     0
 10
326.982
 20
25.9319
 30
0.0
 11
326.183
 21
25.9319
 31
0.0
  0
LINE
  8
0
 62
     0
 10
326.183
 20
25.9319
 30
0.0
 11
326.183
 21
31.7321
 31
0.0
  0
LINE
  8
0
 62
     0
 10
326.183
 20
31.7321
 30
0.0
 11
326.982
 21
31.7321
 31
0.0
  0
LINE
  8
0
 62
     0
 10
326.982
 20
31.7321
 30
0.0
 11
326.982
 21
34.8327
 31
0.0
  0
LINE
  8
0
 62
     0
 10
326.982
 20
34.8327
 30
0.0
 11
326.183
 21
34.8327
 31
0.0
  0
LINE
  8
0
 62
     0
 10
326.183
 20
34.8327
 30
0.0
 11
326.183
 21
35.8316
 31
0.0
  0
LINE
  8
0
 62
     0
 10
326.183
 20
35.8316
 30
0.0
 11
312.182
 21
35.8316
 31
0.0
  0
LINE
  8
0
 62
     0
 10
355.046
 20
35.8316
 30
0.0
 11
355.046
 21
34.8327
 31
0.0
  0
LINE
  8
0
 62
     0
 10
355.046
 20
34.8327
 30
0.0
 11
354.245
 21
34.8327
 31
0.0
  0
LINE
  8
0
 62
     0
 10
354.245
 20
34.8327
 30
0.0
 11
354.245
 21
31.7321
 31
0.0
  0
LINE
  8
0
 62
     0
 10
354.245
 20
31.7321
 30
0.0
 11
355.046
 21
31.7321
 31
0.0
  0
LINE
  8
0
 62
     0
 10
355.046
 20
31.7321
 30
0.0
 11
355.046
 21
25.9319
 31
0.0
  0
LINE
  8
0
 62
     0
 10
355.046
 20
25.9319
 30
0.0
 11
354.245
 21
25.9319
 31
0.0
  0
LINE
  8
0
 62
     0
 10
354.245
 20
25.9319
 30
0.0
 11
354.245
 21
22.8327
 31
0.0
  0
LINE
  8
0
 62
     0
 10
354.245
 20
22.8327
 30
0.0
 11
355.046
 21
22.8327
 31
0.0
  0
LINE
  8
0
 62
     0
 10
355.046
 20
22.8327
 30
0.0
 11
355.046
 21
21.8323
 31
0.0
  0
LINE
  8
0
 62
     0
 10
355.046
 20
21.8323
 30
0.0
 11
369.044
 21
21.8323
 31
0.0
  0
LINE
  8
0
 62
     0
 10
369.044
 20
21.8323
 30
0.0
 11
369.044
 21
22.8327
 31
0.0
  0
LINE
  8
0
 62
     0
 10
369.044
 20
22.8327
 30
0.0
 11
369.845
 21
22.8327
 31
0.0
  0
LINE
  8
0
 62
     0
 10
369.845
 20
22.8327
 30
0.0
 11
369.845
 21
25.9319
 31
0.0
  0
LINE
  8
0
 62
     0
 10
369.845
 20
25.9319
 30
0.0
 11
369.044
 21
25.9319
 31
0.0
  0
LINE
  8
0
 62
     0
 10
369.044
 20
25.9319
 30
0.0
 11
369.044
 21
31.7321
 31
0.0
  0
LINE
  8
0
 62
     0
 10
369.044
 20
31.7321
 30
0.0
 11
369.845
 21
31.7321
 31
0.0
  0
LINE
  8
0
 62
     0
 10
369.845
 20
31.7321
 30
0.0
 11
369.845
 21
34.8327
 31
0.0
  0
LINE
  8
0
 62
     0
 10
369.845
 20
34.8327
 30
0.0
 11
369.044
 21
34.8327
 31
0.0
  0
LINE
  8
0
 62
     0
 10
369.044
 20
34.8327
 30
0.0
 11
369.044
 21
35.8316
 31
0.0
  0
LINE
  8
0
 62
     0
 10
369.044
 20
35.8316
 30
0.0
 11
355.046
 21
35.8316
 31
0.0
  0
LINE
  8
0
 62
     0
 10
257.413
 20
54.8816
 30
0.0
 11
257.413
 21
53.8826
 31
0.0
  0
LINE
  8
0
 62
     0
 10
257.413
 20
53.8826
 30
0.0
 11
256.613
 21
53.8826
 31
0.0
  0
LINE
  8
0
 62
     0
 10
256.613
 20
53.8826
 30
0.0
 11
256.613
 21
50.782
 31
0.0
  0
LINE
  8
0
 62
     0
 10
256.613
 20
50.782
 30
0.0
 11
257.413
 21
50.782
 31
0.0
  0
LINE
  8
0
 62
     0
 10
257.413
 20
50.782
 30
0.0
 11
257.413
 21
50.1826
 31
0.0
  0
LINE
  8
0
 62
     0
 10
257.413
 20
50.1826
 30
0.0
 11
255.888
 21
50.1826
 31
0.0
  0
LINE
  8
0
 62
     0
 10
255.888
 20
50.1826
 30
0.0
 11
255.888
 21
53.4127
 31
0.0
  0
LINE
  8
0
 62
     0
 10
255.888
 20
53.4127
 30
0.0
 11
254.163
 21
53.4127
 31
0.0
  0
LINE
  8
0
 62
     0
 10
254.163
 20
53.4127
 30
0.0
 11
254.163
 21
54.332
 31
0.0
  0
LINE
  8
0
 62
     0
 10
254.163
 20
54.332
 30
0.0
 11
250.863
 21
54.332
 31
0.0
  0
LINE
  8
0
 62
     0
 10
250.863
 20
54.332
 30
0.0
 11
250.863
 21
53.4127
 31
0.0
  0
LINE
  8
0
 62
     0
 10
250.863
 20
53.4127
 30
0.0
 11
249.138
 21
53.4127
 31
0.0
  0
LINE
  8
0
 62
     0
 10
249.138
 20
53.4127
 30
0.0
 11
249.138
 21
50.1826
 31
0.0
  0
LINE
  8
0
 62
     0
 10
249.138
 20
50.1826
 30
0.0
 11
248.313
 21
50.1826
 31
0.0
  0
LINE
  8
0
 62
     0
 10
248.313
 20
50.1826
 30
0.0
 11
248.313
 21
47.3826
 31
0.0
  0
LINE
  8
0
 62
     0
 10
248.313
 20
47.3826
 30
0.0
 11
249.138
 21
47.3826
 31
0.0
  0
LINE
  8
0
 62
     0
 10
249.138
 20
47.3826
 30
0.0
 11
249.138
 21
41.1124
 31
0.0
  0
LINE
  8
0
 62
     0
 10
249.138
 20
41.1124
 30
0.0
 11
250.863
 21
41.1124
 31
0.0
  0
LINE
  8
0
 62
     0
 10
250.863
 20
41.1124
 30
0.0
 11
250.863
 21
40.1327
 31
0.0
  0
LINE
  8
0
 62
     0
 10
250.863
 20
40.1327
 30
0.0
 11
254.163
 21
40.1327
 31
0.0
  0
LINE
  8
0
 62
     0
 10
254.163
 20
40.1327
 30
0.0
 11
254.163
 21
41.1124
 31
0.0
  0
LINE
  8
0
 62
     0
 10
254.163
 20
41.1124
 30
0.0
 11
255.888
 21
41.1124
 31
0.0
  0
LINE
  8
0
 62
     0
 10
255.888
 20
41.1124
 30
0.0
 11
255.888
 21
45.5828
 31
0.0
  0
LINE
  8
0
 62
     0
 10
255.888
 20
45.5828
 30
0.0
 11
257.413
 21
45.5828
 31
0.0
  0
LINE
  8
0
 62
     0
 10
257.413
 20
45.5828
 30
0.0
 11
257.413
 21
44.982
 31
0.0
  0
LINE
  8
0
 62
     0
 10
257.413
 20
44.982
 30
0.0
 11
256.613
 21
44.982
 31
0.0
  0
LINE
  8
0
 62
     0
 10
256.613
 20
44.982
 30
0.0
 11
256.613
 21
41.8828
 31
0.0
  0
LINE
  8
0
 62
     0
 10
256.613
 20
41.8828
 30
0.0
 11
257.413
 21
41.8828
 31
0.0
  0
LINE
  8
0
 62
     0
 10
257.413
 20
41.8828
 30
0.0
 11
257.413
 21
40.8824
 31
0.0
  0
LINE
  8
0
 62
     0
 10
257.413
 20
40.8824
 30
0.0
 11
271.413
 21
40.8824
 31
0.0
  0
LINE
  8
0
 62
     0
 10
271.413
 20
40.8824
 30
0.0
 11
271.413
 21
41.8828
 31
0.0
  0
LINE
  8
0
 62
     0
 10
271.413
 20
41.8828
 30
0.0
 11
272.214
 21
41.8828
 31
0.0
  0
LINE
  8
0
 62
     0
 10
272.214
 20
41.8828
 30
0.0
 11
272.214
 21
44.982
 31
0.0
  0
LINE
  8
0
 62
     0
 10
272.214
 20
44.982
 30
0.0
 11
271.413
 21
44.982
 31
0.0
  0
LINE
  8
0
 62
     0
 10
271.413
 20
44.982
 30
0.0
 11
271.413
 21
45.5828
 31
0.0
  0
LINE
  8
0
 62
     0
 10
271.413
 20
45.5828
 30
0.0
 11
272.939
 21
45.5828
 31
0.0
  0
LINE
  8
0
 62
     0
 10
272.939
 20
45.5828
 30
0.0
 11
272.939
 21
41.1124
 31
0.0
  0
LINE
  8
0
 62
     0
 10
272.939
 20
41.1124
 30
0.0
 11
274.664
 21
41.1124
 31
0.0
  0
LINE
  8
0
 62
     0
 10
274.664
 20
41.1124
 30
0.0
 11
274.664
 21
40.1327
 31
0.0
  0
LINE
  8
0
 62
     0
 10
274.664
 20
40.1327
 30
0.0
 11
277.964
 21
40.1327
 31
0.0
  0
LINE
  8
0
 62
     0
 10
277.964
 20
40.1327
 30
0.0
 11
277.964
 21
41.1124
 31
0.0
  0
LINE
  8
0
 62
     0
 10
277.964
 20
41.1124
 30
0.0
 11
279.688
 21
41.1124
 31
0.0
  0
LINE
  8
0
 62
     0
 10
279.688
 20
41.1124
 30
0.0
 11
279.688
 21
47.3826
 31
0.0
  0
LINE
  8
0
 62
     0
 10
279.688
 20
47.3826
 30
0.0
 11
280.513
 21
47.3826
 31
0.0
  0
LINE
  8
0
 62
     0
 10
280.513
 20
47.3826
 30
0.0
 11
280.513
 21
50.1826
 31
0.0
  0
LINE
  8
0
 62
     0
 10
280.513
 20
50.1826
 30
0.0
 11
279.688
 21
50.1826
 31
0.0
  0
LINE
  8
0
 62
     0
 10
279.688
 20
50.1826
 30
0.0
 11
279.688
 21
53.4127
 31
0.0
  0
LINE
  8
0
 62
     0
 10
279.688
 20
53.4127
 30
0.0
 11
277.964
 21
53.4127
 31
0.0
  0
LINE
  8
0
 62
     0
 10
277.964
 20
53.4127
 30
0.0
 11
277.964
 21
54.332
 31
0.0
  0
LINE
  8
0
 62
     0
 10
277.964
 20
54.332
 30
0.0
 11
274.664
 21
54.332
 31
0.0
  0
LINE
  8
0
 62
     0
 10
274.664
 20
54.332
 30
0.0
 11
274.664
 21
53.4127
 31
0.0
  0
LINE
  8
0
 62
     0
 10
274.664
 20
53.4127
 30
0.0
 11
272.939
 21
53.4127
 31
0.0
  0
LINE
  8
0
 62
     0
 10
272.939
 20
53.4127
 30
0.0
 11
272.939
 21
50.1826
 31
0.0
  0
LINE
  8
0
 62
     0
 10
272.939
 20
50.1826
 30
0.0
 11
271.413
 21
50.1826
 31
0.0
  0
LINE
  8
0
 62
     0
 10
271.413
 20
50.1826
 30
0.0
 11
271.413
 21
50.782
 31
0.0
  0
LINE
  8
0
 62
     0
 10
271.413
 20
50.782
 30
0.0
 11
272.214
 21
50.782
 31
0.0
  0
LINE
  8
0
 62
     0
 10
272.214
 20
50.782
 30
0.0
 11
272.214
 21
53.8826
 31
0.0
  0
LINE
  8
0
 62
     0
 10
272.214
 20
53.8826
 30
0.0
 11
271.413
 21
53.8826
 31
0.0
  0
LINE
  8
0
 62
     0
 10
271.413
 20
53.8826
 30
0.0
 11
271.413
 21
54.8816
 31
0.0
  0
LINE
  8
0
 62
     0
 10
271.413
 20
54.8816
 30
0.0
 11
257.413
 21
54.8816
 31
0.0
  0
LINE
  8
0
 62
     0
 10
9.76341
 20
54.8816
 30
0.0
 11
9.76341
 21
53.8826
 31
0.0
  0
LINE
  8
0
 62
     0
 10
9.76341
 20
53.8826
 30
0.0
 11
8.96415
 21
53.8826
 31
0.0
  0
LINE
  8
0
 62
     0
 10
8.96415
 20
53.8826
 30
0.0
 11
8.96415
 21
50.782
 31
0.0
  0
LINE
  8
0
 62
     0
 10
8.96415
 20
50.782
 30
0.0
 11
9.76341
 21
50.782
 31
0.0
  0
LINE
  8
0
 62
     0
 10
9.76341
 20
50.782
 30
0.0
 11
9.76341
 21
44.982
 31
0.0
  0
LINE
  8
0
 62
     0
 10
9.76341
 20
44.982
 30
0.0
 11
8.96415
 21
44.982
 31
0.0
  0
LINE
  8
0
 62
     0
 10
8.96415
 20
44.982
 30
0.0
 11
8.96415
 21
41.8828
 31
0.0
  0
LINE
  8
0
 62
     0
 10
8.96415
 20
41.8828
 30
0.0
 11
9.76341
 21
41.8828
 31
0.0
  0
LINE
  8
0
 62
     0
 10
9.76341
 20
41.8828
 30
0.0
 11
9.76341
 21
40.8824
 31
0.0
  0
LINE
  8
0
 62
     0
 10
9.76341
 20
40.8824
 30
0.0
 11
23.7629
 21
40.8824
 31
0.0
  0
LINE
  8
0
 62
     0
 10
23.7629
 20
40.8824
 30
0.0
 11
23.7629
 21
41.8828
 31
0.0
  0
LINE
  8
0
 62
     0
 10
23.7629
 20
41.8828
 30
0.0
 11
24.5635
 21
41.8828
 31
0.0
  0
LINE
  8
0
 62
     0
 10
24.5635
 20
41.8828
 30
0.0
 11
24.5635
 21
44.982
 31
0.0
  0
LINE
  8
0
 62
     0
 10
24.5635
 20
44.982
 30
0.0
 11
23.7629
 21
44.982
 31
0.0
  0
LINE
  8
0
 62
     0
 10
23.7629
 20
44.982
 30
0.0
 11
23.7629
 21
50.782
 31
0.0
  0
LINE
  8
0
 62
     0
 10
23.7629
 20
50.782
 30
0.0
 11
24.5635
 21
50.782
 31
0.0
  0
LINE
  8
0
 62
     0
 10
24.5635
 20
50.782
 30
0.0
 11
24.5635
 21
53.8826
 31
0.0
  0
LINE
  8
0
 62
     0
 10
24.5635
 20
53.8826
 30
0.0
 11
23.7629
 21
53.8826
 31
0.0
  0
LINE
  8
0
 62
     0
 10
23.7629
 20
53.8826
 30
0.0
 11
23.7629
 21
54.8816
 31
0.0
  0
LINE
  8
0
 62
     0
 10
23.7629
 20
54.8816
 30
0.0
 11
9.76341
 21
54.8816
 31
0.0
  0
LINE
  8
0
 62
     0
 10
35.9572
 20
54.8816
 30
0.0
 11
35.9572
 21
53.8826
 31
0.0
  0
LINE
  8
0
 62
     0
 10
35.9572
 20
53.8826
 30
0.0
 11
35.1579
 21
53.8826
 31
0.0
  0
LINE
  8
0
 62
     0
 10
35.1579
 20
53.8826
 30
0.0
 11
35.1579
 21
50.782
 31
0.0
  0
LINE
  8
0
 62
     0
 10
35.1579
 20
50.782
 30
0.0
 11
35.9572
 21
50.782
 31
0.0
  0
LINE
  8
0
 62
     0
 10
35.9572
 20
50.782
 30
0.0
 11
35.9572
 21
44.982
 31
0.0
  0
LINE
  8
0
 62
     0
 10
35.9572
 20
44.982
 30
0.0
 11
35.1579
 21
44.982
 31
0.0
  0
LINE
  8
0
 62
     0
 10
35.1579
 20
44.982
 30
0.0
 11
35.1579
 21
41.8828
 31
0.0
  0
LINE
  8
0
 62
     0
 10
35.1579
 20
41.8828
 30
0.0
 11
35.9572
 21
41.8828
 31
0.0
  0
LINE
  8
0
 62
     0
 10
35.9572
 20
41.8828
 30
0.0
 11
35.9572
 21
40.8824
 31
0.0
  0
LINE
  8
0
 62
     0
 10
35.9572
 20
40.8824
 30
0.0
 11
49.9579
 21
40.8824
 31
0.0
  0
LINE
  8
0
 62
     0
 10
49.9579
 20
40.8824
 30
0.0
 11
49.9579
 21
41.8828
 31
0.0
  0
LINE
  8
0
 62
     0
 10
49.9579
 20
41.8828
 30
0.0
 11
50.7573
 21
41.8828
 31
0.0
  0
LINE
  8
0
 62
     0
 10
50.7573
 20
41.8828
 30
0.0
 11
50.7573
 21
44.982
 31
0.0
  0
LINE
  8
0
 62
     0
 10
50.7573
 20
44.982
 30
0.0
 11
49.9579
 21
44.982
 31
0.0
  0
LINE
  8
0
 62
     0
 10
49.9579
 20
44.982
 30
0.0
 11
49.9579
 21
50.782
 31
0.0
  0
LINE
  8
0
 62
     0
 10
49.9579
 20
50.782
 30
0.0
 11
50.7573
 21
50.782
 31
0.0
  0
LINE
  8
0
 62
     0
 10
50.7573
 20
50.782
 30
0.0
 11
50.7573
 21
53.8826
 31
0.0
  0
LINE
  8
0
 62
     0
 10
50.7573
 20
53.8826
 30
0.0
 11
49.9579
 21
53.8826
 31
0.0
  0
LINE
  8
0
 62
     0
 10
49.9579
 20
53.8826
 30
0.0
 11
49.9579
 21
54.8816
 31
0.0
  0
LINE
  8
0
 62
     0
 10
49.9579
 20
54.8816
 30
0.0
 11
35.9572
 21
54.8816
 31
0.0
  0
LINE
  8
0
 62
     0
 10
55.0072
 20
54.8816
 30
0.0
 11
55.0072
 21
53.8826
 31
0.0
  0
LINE
  8
0
 62
     0
 10
55.0072
 20
53.8826
 30
0.0
 11
54.2078
 21
53.8826
 31
0.0
  0
LINE
  8
0
 62
     0
 10
54.2078
 20
53.8826
 30
0.0
 11
54.2078
 21
50.782
 31
0.0
  0
LINE
  8
0
 62
     0
 10
54.2078
 20
50.782
 30
0.0
 11
55.0072
 21
50.782
 31
0.0
  0
LINE
  8
0
 62
     0
 10
55.0072
 20
50.782
 30
0.0
 11
55.0072
 21
44.982
 31
0.0
  0
LINE
  8
0
 62
     0
 10
55.0072
 20
44.982
 30
0.0
 11
54.2078
 21
44.982
 31
0.0
  0
LINE
  8
0
 62
     0
 10
54.2078
 20
44.982
 30
0.0
 11
54.2078
 21
41.8828
 31
0.0
  0
LINE
  8
0
 62
     0
 10
54.2078
 20
41.8828
 30
0.0
 11
55.0072
 21
41.8828
 31
0.0
  0
LINE
  8
0
 62
     0
 10
55.0072
 20
41.8828
 30
0.0
 11
55.0072
 21
40.8824
 31
0.0
  0
LINE
  8
0
 62
     0
 10
55.0072
 20
40.8824
 30
0.0
 11
69.0079
 21
40.8824
 31
0.0
  0
LINE
  8
0
 62
     0
 10
69.0079
 20
40.8824
 30
0.0
 11
69.0079
 21
41.8828
 31
0.0
  0
LINE
  8
0
 62
     0
 10
69.0079
 20
41.8828
 30
0.0
 11
69.8073
 21
41.8828
 31
0.0
  0
LINE
  8
0
 62
     0
 10
69.8073
 20
41.8828
 30
0.0
 11
69.8073
 21
44.982
 31
0.0
  0
LINE
  8
0
 62
     0
 10
69.8073
 20
44.982
 30
0.0
 11
69.0079
 21
44.982
 31
0.0
  0
LINE
  8
0
 62
     0
 10
69.0079
 20
44.982
 30
0.0
 11
69.0079
 21
50.782
 31
0.0
  0
LINE
  8
0
 62
     0
 10
69.0079
 20
50.782
 30
0.0
 11
69.8073
 21
50.782
 31
0.0
  0
LINE
  8
0
 62
     0
 10
69.8073
 20
50.782
 30
0.0
 11
69.8073
 21
53.8826
 31
0.0
  0
LINE
  8
0
 62
     0
 10
69.8073
 20
53.8826
 30
0.0
 11
69.0079
 21
53.8826
 31
0.0
  0
LINE
  8
0
 62
     0
 10
69.0079
 20
53.8826
 30
0.0
 11
69.0079
 21
54.8816
 31
0.0
  0
LINE
  8
0
 62
     0
 10
69.0079
 20
54.8816
 30
0.0
 11
55.0072
 21
54.8816
 31
0.0
  0
LINE
  8
0
 62
     0
 10
74.0572
 20
54.8816
 30
0.0
 11
74.0572
 21
53.8826
 31
0.0
  0
LINE
  8
0
 62
     0
 10
74.0572
 20
53.8826
 30
0.0
 11
73.2578
 21
53.8826
 31
0.0
  0
LINE
  8
0
 62
     0
 10
73.2578
 20
53.8826
 30
0.0
 11
73.2578
 21
50.782
 31
0.0
  0
LINE
  8
0
 62
     0
 10
73.2578
 20
50.782
 30
0.0
 11
74.0572
 21
50.782
 31
0.0
  0
LINE
  8
0
 62
     0
 10
74.0572
 20
50.782
 30
0.0
 11
74.0572
 21
44.982
 31
0.0
  0
LINE
  8
0
 62
     0
 10
74.0572
 20
44.982
 30
0.0
 11
73.2578
 21
44.982
 31
0.0
  0
LINE
  8
0
 62
     0
 10
73.2578
 20
44.982
 30
0.0
 11
73.2578
 21
41.8828
 31
0.0
  0
LINE
  8
0
 62
     0
 10
73.2578
 20
41.8828
 30
0.0
 11
74.0572
 21
41.8828
 31
0.0
  0
LINE
  8
0
 62
     0
 10
74.0572
 20
41.8828
 30
0.0
 11
74.0572
 21
40.8824
 31
0.0
  0
LINE
  8
0
 62
     0
 10
74.0572
 20
40.8824
 30
0.0
 11
88.0579
 21
40.8824
 31
0.0
  0
LINE
  8
0
 62
     0
 10
88.0579
 20
40.8824
 30
0.0
 11
88.0579
 21
41.8828
 31
0.0
  0
LINE
  8
0
 62
     0
 10
88.0579
 20
41.8828
 30
0.0
 11
88.8573
 21
41.8828
 31
0.0
  0
LINE
  8
0
 62
     0
 10
88.8573
 20
41.8828
 30
0.0
 11
88.8573
 21
44.982
 31
0.0
  0
LINE
  8
0
 62
     0
 10
88.8573
 20
44.982
 30
0.0
 11
88.0579
 21
44.982
 31
0.0
  0
LINE
  8
0
 62
     0
 10
88.0579
 20
44.982
 30
0.0
 11
88.0579
 21
50.782
 31
0.0
  0
LINE
  8
0
 62
     0
 10
88.0579
 20
50.782
 30
0.0
 11
88.8573
 21
50.782
 31
0.0
  0
LINE
  8
0
 62
     0
 10
88.8573
 20
50.782
 30
0.0
 11
88.8573
 21
53.8826
 31
0.0
  0
LINE
  8
0
 62
     0
 10
88.8573
 20
53.8826
 30
0.0
 11
88.0579
 21
53.8826
 31
0.0
  0
LINE
  8
0
 62
     0
 10
88.0579
 20
53.8826
 30
0.0
 11
88.0579
 21
54.8816
 31
0.0
  0
LINE
  8
0
 62
     0
 10
88.0579
 20
54.8816
 30
0.0
 11
74.0572
 21
54.8816
 31
0.0
  0
LINE
  8
0
 62
     0
 10
93.1072
 20
54.8816
 30
0.0
 11
93.1072
 21
53.8826
 31
0.0
  0
LINE
  8
0
 62
     0
 10
93.1072
 20
53.8826
 30
0.0
 11
92.3078
 21
53.8826
 31
0.0
  0
LINE
  8
0
 62
     0
 10
92.3078
 20
53.8826
 30
0.0
 11
92.3078
 21
50.782
 31
0.0
  0
LINE
  8
0
 62
     0
 10
92.3078
 20
50.782
 30
0.0
 11
93.1072
 21
50.782
 31
0.0
  0
LINE
  8
0
 62
     0
 10
93.1072
 20
50.782
 30
0.0
 11
93.1072
 21
44.982
 31
0.0
  0
LINE
  8
0
 62
     0
 10
93.1072
 20
44.982
 30
0.0
 11
92.3078
 21
44.982
 31
0.0
  0
LINE
  8
0
 62
     0
 10
92.3078
 20
44.982
 30
0.0
 11
92.3078
 21
41.8828
 31
0.0
  0
LINE
  8
0
 62
     0
 10
92.3078
 20
41.8828
 30
0.0
 11
93.1072
 21
41.8828
 31
0.0
  0
LINE
  8
0
 62
     0
 10
93.1072
 20
41.8828
 30
0.0
 11
93.1072
 21
40.8824
 31
0.0
  0
LINE
  8
0
 62
     0
 10
93.1072
 20
40.8824
 30
0.0
 11
107.108
 21
40.8824
 31
0.0
  0
LINE
  8
0
 62
     0
 10
107.108
 20
40.8824
 30
0.0
 11
107.108
 21
41.8828
 31
0.0
  0
LINE
  8
0
 62
     0
 10
107.108
 20
41.8828
 30
0.0
 11
107.907
 21
41.8828
 31
0.0
  0
LINE
  8
0
 62
     0
 10
107.907
 20
41.8828
 30
0.0
 11
107.907
 21
44.982
 31
0.0
  0
LINE
  8
0
 62
     0
 10
107.907
 20
44.982
 30
0.0
 11
107.108
 21
44.982
 31
0.0
  0
LINE
  8
0
 62
     0
 10
107.108
 20
44.982
 30
0.0
 11
107.108
 21
50.782
 31
0.0
  0
LINE
  8
0
 62
     0
 10
107.108
 20
50.782
 30
0.0
 11
107.907
 21
50.782
 31
0.0
  0
LINE
  8
0
 62
     0
 10
107.907
 20
50.782
 30
0.0
 11
107.907
 21
53.8826
 31
0.0
  0
LINE
  8
0
 62
     0
 10
107.907
 20
53.8826
 30
0.0
 11
107.108
 21
53.8826
 31
0.0
  0
LINE
  8
0
 62
     0
 10
107.108
 20
53.8826
 30
0.0
 11
107.108
 21
54.8816
 31
0.0
  0
LINE
  8
0
 62
     0
 10
107.108
 20
54.8816
 30
0.0
 11
93.1072
 21
54.8816
 31
0.0
  0
LINE
  8
0
 62
     0
 10
112.157
 20
54.8816
 30
0.0
 11
112.157
 21
53.8826
 31
0.0
  0
LINE
  8
0
 62
     0
 10
112.157
 20
53.8826
 30
0.0
 11
111.358
 21
53.8826
 31
0.0
  0
LINE
  8
0
 62
     0
 10
111.358
 20
53.8826
 30
0.0
 11
111.358
 21
50.782
 31
0.0
  0
LINE
  8
0
 62
     0
 10
111.358
 20
50.782
 30
0.0
 11
112.157
 21
50.782
 31
0.0
  0
LINE
  8
0
 62
     0
 10
112.157
 20
50.782
 30
0.0
 11
112.157
 21
44.982
 31
0.0
  0
LINE
  8
0
 62
     0
 10
112.157
 20
44.982
 30
0.0
 11
111.358
 21
44.982
 31
0.0
  0
LINE
  8
0
 62
     0
 10
111.358
 20
44.982
 30
0.0
 11
111.358
 21
41.8828
 31
0.0
  0
LINE
  8
0
 62
     0
 10
111.358
 20
41.8828
 30
0.0
 11
112.157
 21
41.8828
 31
0.0
  0
LINE
  8
0
 62
     0
 10
112.157
 20
41.8828
 30
0.0
 11
112.157
 21
40.8824
 31
0.0
  0
LINE
  8
0
 62
     0
 10
112.157
 20
40.8824
 30
0.0
 11
126.158
 21
40.8824
 31
0.0
  0
LINE
  8
0
 62
     0
 10
126.158
 20
40.8824
 30
0.0
 11
126.158
 21
41.8828
 31
0.0
  0
LINE
  8
0
 62
     0
 10
126.158
 20
41.8828
 30
0.0
 11
126.957
 21
41.8828
 31
0.0
  0
LINE
  8
0
 62
     0
 10
126.957
 20
41.8828
 30
0.0
 11
126.957
 21
44.982
 31
0.0
  0
LINE
  8
0
 62
     0
 10
126.957
 20
44.982
 30
0.0
 11
126.158
 21
44.982
 31
0.0
  0
LINE
  8
0
 62
     0
 10
126.158
 20
44.982
 30
0.0
 11
126.158
 21
50.782
 31
0.0
  0
LINE
  8
0
 62
     0
 10
126.158
 20
50.782
 30
0.0
 11
126.957
 21
50.782
 31
0.0
  0
LINE
  8
0
 62
     0
 10
126.957
 20
50.782
 30
0.0
 11
126.957
 21
53.8826
 31
0.0
  0
LINE
  8
0
 62
     0
 10
126.957
 20
53.8826
 30
0.0
 11
126.158
 21
53.8826
 31
0.0
  0
LINE
  8
0
 62
     0
 10
126.158
 20
53.8826
 30
0.0
 11
126.158
 21
54.8816
 31
0.0
  0
LINE
  8
0
 62
     0
 10
126.158
 20
54.8816
 30
0.0
 11
112.157
 21
54.8816
 31
0.0
  0
LINE
  8
0
 62
     0
 10
131.207
 20
54.8816
 30
0.0
 11
131.207
 21
53.8826
 31
0.0
  0
LINE
  8
0
 62
     0
 10
131.207
 20
53.8826
 30
0.0
 11
130.408
 21
53.8826
 31
0.0
  0
LINE
  8
0
 62
     0
 10
130.408
 20
53.8826
 30
0.0
 11
130.408
 21
50.782
 31
0.0
  0
LINE
  8
0
 62
     0
 10
130.408
 20
50.782
 30
0.0
 11
131.207
 21
50.782
 31
0.0
  0
LINE
  8
0
 62
     0
 10
131.207
 20
50.782
 30
0.0
 11
131.207
 21
44.982
 31
0.0
  0
LINE
  8
0
 62
     0
 10
131.207
 20
44.982
 30
0.0
 11
130.408
 21
44.982
 31
0.0
  0
LINE
  8
0
 62
     0
 10
130.408
 20
44.982
 30
0.0
 11
130.408
 21
41.8828
 31
0.0
  0
LINE
  8
0
 62
     0
 10
130.408
 20
41.8828
 30
0.0
 11
131.207
 21
41.8828
 31
0.0
  0
LINE
  8
0
 62
     0
 10
131.207
 20
41.8828
 30
0.0
 11
131.207
 21
40.8824
 31
0.0
  0
LINE
  8
0
 62
     0
 10
131.207
 20
40.8824
 30
0.0
 11
145.208
 21
40.8824
 31
0.0
  0
LINE
  8
0
 62
     0
 10
145.208
 20
40.8824
 30
0.0
 11
145.208
 21
41.8828
 31
0.0
  0
LINE
  8
0
 62
     0
 10
145.208
 20
41.8828
 30
0.0
 11
146.007
 21
41.8828
 31
0.0
  0
LINE
  8
0
 62
     0
 10
146.007
 20
41.8828
 30
0.0
 11
146.007
 21
44.982
 31
0.0
  0
LINE
  8
0
 62
     0
 10
146.007
 20
44.982
 30
0.0
 11
145.208
 21
44.982
 31
0.0
  0
LINE
  8
0
 62
     0
 10
145.208
 20
44.982
 30
0.0
 11
145.208
 21
50.782
 31
0.0
  0
LINE
  8
0
 62
     0
 10
145.208
 20
50.782
 30
0.0
 11
146.007
 21
50.782
 31
0.0
  0
LINE
  8
0
 62
     0
 10
146.007
 20
50.782
 30
0.0
 11
146.007
 21
53.8826
 31
0.0
  0
LINE
  8
0
 62
     0
 10
146.007
 20
53.8826
 30
0.0
 11
145.208
 21
53.8826
 31
0.0
  0
LINE
  8
0
 62
     0
 10
145.208
 20
53.8826
 30
0.0
 11
145.208
 21
54.8816
 31
0.0
  0
LINE
  8
0
 62
     0
 10
145.208
 20
54.8816
 30
0.0
 11
131.207
 21
54.8816
 31
0.0
  0
LINE
  8
0
 62
     0
 10
150.257
 20
54.8816
 30
0.0
 11
150.257
 21
53.8826
 31
0.0
  0
LINE
  8
0
 62
     0
 10
150.257
 20
53.8826
 30
0.0
 11
149.458
 21
53.8826
 31
0.0
  0
LINE
  8
0
 62
     0
 10
149.458
 20
53.8826
 30
0.0
 11
149.458
 21
50.782
 31
0.0
  0
LINE
  8
0
 62
     0
 10
149.458
 20
50.782
 30
0.0
 11
150.257
 21
50.782
 31
0.0
  0
LINE
  8
0
 62
     0
 10
150.257
 20
50.782
 30
0.0
 11
150.257
 21
44.982
 31
0.0
  0
LINE
  8
0
 62
     0
 10
150.257
 20
44.982
 30
0.0
 11
149.458
 21
44.982
 31
0.0
  0
LINE
  8
0
 62
     0
 10
149.458
 20
44.982
 30
0.0
 11
149.458
 21
41.8828
 31
0.0
  0
LINE
  8
0
 62
     0
 10
149.458
 20
41.8828
 30
0.0
 11
150.257
 21
41.8828
 31
0.0
  0
LINE
  8
0
 62
     0
 10
150.257
 20
41.8828
 30
0.0
 11
150.257
 21
40.8824
 31
0.0
  0
LINE
  8
0
 62
     0
 10
150.257
 20
40.8824
 30
0.0
 11
164.258
 21
40.8824
 31
0.0
  0
LINE
  8
0
 62
     0
 10
164.258
 20
40.8824
 30
0.0
 11
164.258
 21
41.8828
 31
0.0
  0
LINE
  8
0
 62
     0
 10
164.258
 20
41.8828
 30
0.0
 11
165.057
 21
41.8828
 31
0.0
  0
LINE
  8
0
 62
     0
 10
165.057
 20
41.8828
 30
0.0
 11
165.057
 21
44.982
 31
0.0
  0
LINE
  8
0
 62
     0
 10
165.057
 20
44.982
 30
0.0
 11
164.258
 21
44.982
 31
0.0
  0
LINE
  8
0
 62
     0
 10
164.258
 20
44.982
 30
0.0
 11
164.258
 21
50.782
 31
0.0
  0
LINE
  8
0
 62
     0
 10
164.258
 20
50.782
 30
0.0
 11
165.057
 21
50.782
 31
0.0
  0
LINE
  8
0
 62
     0
 10
165.057
 20
50.782
 30
0.0
 11
165.057
 21
53.8826
 31
0.0
  0
LINE
  8
0
 62
     0
 10
165.057
 20
53.8826
 30
0.0
 11
164.258
 21
53.8826
 31
0.0
  0
LINE
  8
0
 62
     0
 10
164.258
 20
53.8826
 30
0.0
 11
164.258
 21
54.8816
 31
0.0
  0
LINE
  8
0
 62
     0
 10
164.258
 20
54.8816
 30
0.0
 11
150.257
 21
54.8816
 31
0.0
  0
LINE
  8
0
 62
     0
 10
169.307
 20
54.8816
 30
0.0
 11
169.307
 21
53.8826
 31
0.0
  0
LINE
  8
0
 62
     0
 10
169.307
 20
53.8826
 30
0.0
 11
168.508
 21
53.8826
 31
0.0
  0
LINE
  8
0
 62
     0
 10
168.508
 20
53.8826
 30
0.0
 11
168.508
 21
50.782
 31
0.0
  0
LINE
  8
0
 62
     0
 10
168.508
 20
50.782
 30
0.0
 11
169.307
 21
50.782
 31
0.0
  0
LINE
  8
0
 62
     0
 10
169.307
 20
50.782
 30
0.0
 11
169.307
 21
44.982
 31
0.0
  0
LINE
  8
0
 62
     0
 10
169.307
 20
44.982
 30
0.0
 11
168.508
 21
44.982
 31
0.0
  0
LINE
  8
0
 62
     0
 10
168.508
 20
44.982
 30
0.0
 11
168.508
 21
41.8828
 31
0.0
  0
LINE
  8
0
 62
     0
 10
168.508
 20
41.8828
 30
0.0
 11
169.307
 21
41.8828
 31
0.0
  0
LINE
  8
0
 62
     0
 10
169.307
 20
41.8828
 30
0.0
 11
169.307
 21
40.8824
 31
0.0
  0
LINE
  8
0
 62
     0
 10
169.307
 20
40.8824
 30
0.0
 11
183.308
 21
40.8824
 31
0.0
  0
LINE
  8
0
 62
     0
 10
183.308
 20
40.8824
 30
0.0
 11
183.308
 21
41.8828
 31
0.0
  0
LINE
  8
0
 62
     0
 10
183.308
 20
41.8828
 30
0.0
 11
184.107
 21
41.8828
 31
0.0
  0
LINE
  8
0
 62
     0
 10
184.107
 20
41.8828
 30
0.0
 11
184.107
 21
44.982
 31
0.0
  0
LINE
  8
0
 62
     0
 10
184.107
 20
44.982
 30
0.0
 11
183.308
 21
44.982
 31
0.0
  0
LINE
  8
0
 62
     0
 10
183.308
 20
44.982
 30
0.0
 11
183.308
 21
50.782
 31
0.0
  0
LINE
  8
0
 62
     0
 10
183.308
 20
50.782
 30
0.0
 11
184.107
 21
50.782
 31
0.0
  0
LINE
  8
0
 62
     0
 10
184.107
 20
50.782
 30
0.0
 11
184.107
 21
53.8826
 31
0.0
  0
LINE
  8
0
 62
     0
 10
184.107
 20
53.8826
 30
0.0
 11
183.308
 21
53.8826
 31
0.0
  0
LINE
  8
0
 62
     0
 10
183.308
 20
53.8826
 30
0.0
 11
183.308
 21
54.8816
 31
0.0
  0
LINE
  8
0
 62
     0
 10
183.308
 20
54.8816
 30
0.0
 11
169.307
 21
54.8816
 31
0.0
  0
LINE
  8
0
 62
     0
 10
188.357
 20
54.8816
 30
0.0
 11
188.357
 21
53.8826
 31
0.0
  0
LINE
  8
0
 62
     0
 10
188.357
 20
53.8826
 30
0.0
 11
187.558
 21
53.8826
 31
0.0
  0
LINE
  8
0
 62
     0
 10
187.558
 20
53.8826
 30
0.0
 11
187.558
 21
50.782
 31
0.0
  0
LINE
  8
0
 62
     0
 10
187.558
 20
50.782
 30
0.0
 11
188.357
 21
50.782
 31
0.0
  0
LINE
  8
0
 62
     0
 10
188.357
 20
50.782
 30
0.0
 11
188.357
 21
44.982
 31
0.0
  0
LINE
  8
0
 62
     0
 10
188.357
 20
44.982
 30
0.0
 11
187.558
 21
44.982
 31
0.0
  0
LINE
  8
0
 62
     0
 10
187.558
 20
44.982
 30
0.0
 11
187.558
 21
41.8828
 31
0.0
  0
LINE
  8
0
 62
     0
 10
187.558
 20
41.8828
 30
0.0
 11
188.357
 21
41.8828
 31
0.0
  0
LINE
  8
0
 62
     0
 10
188.357
 20
41.8828
 30
0.0
 11
188.357
 21
40.8824
 31
0.0
  0
LINE
  8
0
 62
     0
 10
188.357
 20
40.8824
 30
0.0
 11
202.358
 21
40.8824
 31
0.0
  0
LINE
  8
0
 62
     0
 10
202.358
 20
40.8824
 30
0.0
 11
202.358
 21
41.8828
 31
0.0
  0
LINE
  8
0
 62
     0
 10
202.358
 20
41.8828
 30
0.0
 11
203.157
 21
41.8828
 31
0.0
  0
LINE
  8
0
 62
     0
 10
203.157
 20
41.8828
 30
0.0
 11
203.157
 21
44.982
 31
0.0
  0
LINE
  8
0
 62
     0
 10
203.157
 20
44.982
 30
0.0
 11
202.358
 21
44.982
 31
0.0
  0
LINE
  8
0
 62
     0
 10
202.358
 20
44.982
 30
0.0
 11
202.358
 21
50.782
 31
0.0
  0
LINE
  8
0
 62
     0
 10
202.358
 20
50.782
 30
0.0
 11
203.157
 21
50.782
 31
0.0
  0
LINE
  8
0
 62
     0
 10
203.157
 20
50.782
 30
0.0
 11
203.157
 21
53.8826
 31
0.0
  0
LINE
  8
0
 62
     0
 10
203.157
 20
53.8826
 30
0.0
 11
202.358
 21
53.8826
 31
0.0
  0
LINE
  8
0
 62
     0
 10
202.358
 20
53.8826
 30
0.0
 11
202.358
 21
54.8816
 31
0.0
  0
LINE
  8
0
 62
     0
 10
202.358
 20
54.8816
 30
0.0
 11
188.357
 21
54.8816
 31
0.0
  0
LINE
  8
0
 62
     0
 10
207.407
 20
54.8816
 30
0.0
 11
207.407
 21
53.8826
 31
0.0
  0
LINE
  8
0
 62
     0
 10
207.407
 20
53.8826
 30
0.0
 11
206.608
 21
53.8826
 31
0.0
  0
LINE
  8
0
 62
     0
 10
206.608
 20
53.8826
 30
0.0
 11
206.608
 21
50.782
 31
0.0
  0
LINE
  8
0
 62
     0
 10
206.608
 20
50.782
 30
0.0
 11
207.407
 21
50.782
 31
0.0
  0
LINE
  8
0
 62
     0
 10
207.407
 20
50.782
 30
0.0
 11
207.407
 21
44.982
 31
0.0
  0
LINE
  8
0
 62
     0
 10
207.407
 20
44.982
 30
0.0
 11
206.608
 21
44.982
 31
0.0
  0
LINE
  8
0
 62
     0
 10
206.608
 20
44.982
 30
0.0
 11
206.608
 21
41.8828
 31
0.0
  0
LINE
  8
0
 62
     0
 10
206.608
 20
41.8828
 30
0.0
 11
207.407
 21
41.8828
 31
0.0
  0
LINE
  8
0
 62
     0
 10
207.407
 20
41.8828
 30
0.0
 11
207.407
 21
40.8824
 31
0.0
  0
LINE
  8
0
 62
     0
 10
207.407
 20
40.8824
 30
0.0
 11
221.408
 21
40.8824
 31
0.0
  0
LINE
  8
0
 62
     0
 10
221.408
 20
40.8824
 30
0.0
 11
221.408
 21
41.8828
 31
0.0
  0
LINE
  8
0
 62
     0
 10
221.408
 20
41.8828
 30
0.0
 11
222.207
 21
41.8828
 31
0.0
  0
LINE
  8
0
 62
     0
 10
222.207
 20
41.8828
 30
0.0
 11
222.207
 21
44.982
 31
0.0
  0
LINE
  8
0
 62
     0
 10
222.207
 20
44.982
 30
0.0
 11
221.408
 21
44.982
 31
0.0
  0
LINE
  8
0
 62
     0
 10
221.408
 20
44.982
 30
0.0
 11
221.408
 21
50.782
 31
0.0
  0
LINE
  8
0
 62
     0
 10
221.408
 20
50.782
 30
0.0
 11
222.207
 21
50.782
 31
0.0
  0
LINE
  8
0
 62
     0
 10
222.207
 20
50.782
 30
0.0
 11
222.207
 21
53.8826
 31
0.0
  0
LINE
  8
0
 62
     0
 10
222.207
 20
53.8826
 30
0.0
 11
221.408
 21
53.8826
 31
0.0
  0
LINE
  8
0
 62
     0
 10
221.408
 20
53.8826
 30
0.0
 11
221.408
 21
54.8816
 31
0.0
  0
LINE
  8
0
 62
     0
 10
221.408
 20
54.8816
 30
0.0
 11
207.407
 21
54.8816
 31
0.0
  0
LINE
  8
0
 62
     0
 10
226.457
 20
54.8816
 30
0.0
 11
226.457
 21
53.8826
 31
0.0
  0
LINE
  8
0
 62
     0
 10
226.457
 20
53.8826
 30
0.0
 11
225.658
 21
53.8826
 31
0.0
  0
LINE
  8
0
 62
     0
 10
225.658
 20
53.8826
 30
0.0
 11
225.658
 21
50.782
 31
0.0
  0
LINE
  8
0
 62
     0
 10
225.658
 20
50.782
 30
0.0
 11
226.457
 21
50.782
 31
0.0
  0
LINE
  8
0
 62
     0
 10
226.457
 20
50.782
 30
0.0
 11
226.457
 21
44.982
 31
0.0
  0
LINE
  8
0
 62
     0
 10
226.457
 20
44.982
 30
0.0
 11
225.658
 21
44.982
 31
0.0
  0
LINE
  8
0
 62
     0
 10
225.658
 20
44.982
 30
0.0
 11
225.658
 21
41.8828
 31
0.0
  0
LINE
  8
0
 62
     0
 10
225.658
 20
41.8828
 30
0.0
 11
226.457
 21
41.8828
 31
0.0
  0
LINE
  8
0
 62
     0
 10
226.457
 20
41.8828
 30
0.0
 11
226.457
 21
40.8824
 31
0.0
  0
LINE
  8
0
 62
     0
 10
226.457
 20
40.8824
 30
0.0
 11
240.458
 21
40.8824
 31
0.0
  0
LINE
  8
0
 62
     0
 10
240.458
 20
40.8824
 30
0.0
 11
240.458
 21
41.8828
 31
0.0
  0
LINE
  8
0
 62
     0
 10
240.458
 20
41.8828
 30
0.0
 11
241.257
 21
41.8828
 31
0.0
  0
LINE
  8
0
 62
     0
 10
241.257
 20
41.8828
 30
0.0
 11
241.257
 21
44.982
 31
0.0
  0
LINE
  8
0
 62
     0
 10
241.257
 20
44.982
 30
0.0
 11
240.458
 21
44.982
 31
0.0
  0
LINE
  8
0
 62
     0
 10
240.458
 20
44.982
 30
0.0
 11
240.458
 21
50.782
 31
0.0
  0
LINE
  8
0
 62
     0
 10
240.458
 20
50.782
 30
0.0
 11
241.257
 21
50.782
 31
0.0
  0
LINE
  8
0
 62
     0
 10
241.257
 20
50.782
 30
0.0
 11
241.257
 21
53.8826
 31
0.0
  0
LINE
  8
0
 62
     0
 10
241.257
 20
53.8826
 30
0.0
 11
240.458
 21
53.8826
 31
0.0
  0
LINE
  8
0
 62
     0
 10
240.458
 20
53.8826
 30
0.0
 11
240.458
 21
54.8816
 31
0.0
  0
LINE
  8
0
 62
     0
 10
240.458
 20
54.8816
 30
0.0
 11
226.457
 21
54.8816
 31
0.0
  0
LINE
  8
0
 62
     0
 10
355.046
 20
54.8816
 30
0.0
 11
355.046
 21
53.8826
 31
0.0
  0
LINE
  8
0
 62
     0
 10
355.046
 20
53.8826
 30
0.0
 11
354.245
 21
53.8826
 31
0.0
  0
LINE
  8
0
 62
     0
 10
354.245
 20
53.8826
 30
0.0
 11
354.245
 21
50.782
 31
0.0
  0
LINE
  8
0
 62
     0
 10
354.245
 20
50.782
 30
0.0
 11
355.046
 21
50.782
 31
0.0
  0
LINE
  8
0
 62
     0
 10
355.046
 20
50.782
 30
0.0
 11
355.046
 21
44.982
 31
0.0
  0
LINE
  8
0
 62
     0
 10
355.046
 20
44.982
 30
0.0
 11
354.245
 21
44.982
 31
0.0
  0
LINE
  8
0
 62
     0
 10
354.245
 20
44.982
 30
0.0
 11
354.245
 21
41.8828
 31
0.0
  0
LINE
  8
0
 62
     0
 10
354.245
 20
41.8828
 30
0.0
 11
355.046
 21
41.8828
 31
0.0
  0
LINE
  8
0
 62
     0
 10
355.046
 20
41.8828
 30
0.0
 11
355.046
 21
40.8824
 31
0.0
  0
LINE
  8
0
 62
     0
 10
355.046
 20
40.8824
 30
0.0
 11
369.044
 21
40.8824
 31
0.0
  0
LINE
  8
0
 62
     0
 10
369.044
 20
40.8824
 30
0.0
 11
369.044
 21
41.8828
 31
0.0
  0
LINE
  8
0
 62
     0
 10
369.044
 20
41.8828
 30
0.0
 11
369.845
 21
41.8828
 31
0.0
  0
LINE
  8
0
 62
     0
 10
369.845
 20
41.8828
 30
0.0
 11
369.845
 21
44.982
 31
0.0
  0
LINE
  8
0
 62
     0
 10
369.845
 20
44.982
 30
0.0
 11
369.044
 21
44.982
 31
0.0
  0
LINE
  8
0
 62
     0
 10
369.044
 20
44.982
 30
0.0
 11
369.044
 21
50.782
 31
0.0
  0
LINE
  8
0
 62
     0
 10
369.044
 20
50.782
 30
0.0
 11
369.845
 21
50.782
 31
0.0
  0
LINE
  8
0
 62
     0
 10
369.845
 20
50.782
 30
0.0
 11
369.845
 21
53.8826
 31
0.0
  0
LINE
  8
0
 62
     0
 10
369.845
 20
53.8826
 30
0.0
 11
369.044
 21
53.8826
 31
0.0
  0
LINE
  8
0
 62
     0
 10
369.044
 20
53.8826
 30
0.0
 11
369.044
 21
54.8816
 31
0.0
  0
LINE
  8
0
 62
     0
 10
369.044
 20
54.8816
 30
0.0
 11
355.046
 21
54.8816
 31
0.0
  0
LINE
  8
0
 62
     0
 10
7.38216
 20
73.9316
 30
0.0
 11
7.38216
 21
72.9326
 31
0.0
  0
LINE
  8
0
 62
     0
 10
7.38216
 20
72.9326
 30
0.0
 11
6.5829
 21
72.9326
 31
0.0
  0
LINE
  8
0
 62
     0
 10
6.5829
 20
72.9326
 30
0.0
 11
6.5829
 21
69.832
 31
0.0
  0
LINE
  8
0
 62
     0
 10
6.5829
 20
69.832
 30
0.0
 11
7.38216
 21
69.832
 31
0.0
  0
LINE
  8
0
 62
     0
 10
7.38216
 20
69.832
 30
0.0
 11
7.38216
 21
64.032
 31
0.0
  0
LINE
  8
0
 62
     0
 10
7.38216
 20
64.032
 30
0.0
 11
6.5829
 21
64.032
 31
0.0
  0
LINE
  8
0
 62
     0
 10
6.5829
 20
64.032
 30
0.0
 11
6.5829
 21
60.9328
 31
0.0
  0
LINE
  8
0
 62
     0
 10
6.5829
 20
60.9328
 30
0.0
 11
7.38216
 21
60.9328
 31
0.0
  0
LINE
  8
0
 62
     0
 10
7.38216
 20
60.9328
 30
0.0
 11
7.38216
 21
59.9324
 31
0.0
  0
LINE
  8
0
 62
     0
 10
7.38216
 20
59.9324
 30
0.0
 11
21.383
 21
59.9324
 31
0.0
  0
LINE
  8
0
 62
     0
 10
21.383
 20
59.9324
 30
0.0
 11
21.383
 21
60.9328
 31
0.0
  0
LINE
  8
0
 62
     0
 10
21.383
 20
60.9328
 30
0.0
 11
22.1823
 21
60.9328
 31
0.0
  0
LINE
  8
0
 62
     0
 10
22.1823
 20
60.9328
 30
0.0
 11
22.1823
 21
64.032
 31
0.0
  0
LINE
  8
0
 62
     0
 10
22.1823
 20
64.032
 30
0.0
 11
21.383
 21
64.032
 31
0.0
  0
LINE
  8
0
 62
     0
 10
21.383
 20
64.032
 30
0.0
 11
21.383
 21
69.832
 31
0.0
  0
LINE
  8
0
 62
     0
 10
21.383
 20
69.832
 30
0.0
 11
22.1823
 21
69.832
 31
0.0
  0
LINE
  8
0
 62
     0
 10
22.1823
 20
69.832
 30
0.0
 11
22.1823
 21
72.9326
 31
0.0
  0
LINE
  8
0
 62
     0
 10
22.1823
 20
72.9326
 30
0.0
 11
21.383
 21
72.9326
 31
0.0
  0
LINE
  8
0
 62
     0
 10
21.383
 20
72.9326
 30
0.0
 11
21.383
 21
73.9316
 31
0.0
  0
LINE
  8
0
 62
     0
 10
21.383
 20
73.9316
 30
0.0
 11
7.38216
 21
73.9316
 31
0.0
  0
LINE
  8
0
 62
     0
 10
31.196
 20
73.9316
 30
0.0
 11
31.196
 21
72.9326
 31
0.0
  0
LINE
  8
0
 62
     0
 10
31.196
 20
72.9326
 30
0.0
 11
30.3954
 21
72.9326
 31
0.0
  0
LINE
  8
0
 62
     0
 10
30.3954
 20
72.9326
 30
0.0
 11
30.3954
 21
69.832
 31
0.0
  0
LINE
  8
0
 62
     0
 10
30.3954
 20
69.832
 30
0.0
 11
31.196
 21
69.832
 31
0.0
  0
LINE
  8
0
 62
     0
 10
31.196
 20
69.832
 30
0.0
 11
31.196
 21
64.032
 31
0.0
  0
LINE
  8
0
 62
     0
 10
31.196
 20
64.032
 30
0.0
 11
30.3954
 21
64.032
 31
0.0
  0
LINE
  8
0
 62
     0
 10
30.3954
 20
64.032
 30
0.0
 11
30.3954
 21
60.9328
 31
0.0
  0
LINE
  8
0
 62
     0
 10
30.3954
 20
60.9328
 30
0.0
 11
31.196
 21
60.9328
 31
0.0
  0
LINE
  8
0
 62
     0
 10
31.196
 20
60.9328
 30
0.0
 11
31.196
 21
59.9324
 31
0.0
  0
LINE
  8
0
 62
     0
 10
31.196
 20
59.9324
 30
0.0
 11
45.1954
 21
59.9324
 31
0.0
  0
LINE
  8
0
 62
     0
 10
45.1954
 20
59.9324
 30
0.0
 11
45.1954
 21
60.9328
 31
0.0
  0
LINE
  8
0
 62
     0
 10
45.1954
 20
60.9328
 30
0.0
 11
45.9962
 21
60.9328
 31
0.0
  0
LINE
  8
0
 62
     0
 10
45.9962
 20
60.9328
 30
0.0
 11
45.9962
 21
64.032
 31
0.0
  0
LINE
  8
0
 62
     0
 10
45.9962
 20
64.032
 30
0.0
 11
45.1954
 21
64.032
 31
0.0
  0
LINE
  8
0
 62
     0
 10
45.1954
 20
64.032
 30
0.0
 11
45.1954
 21
69.832
 31
0.0
  0
LINE
  8
0
 62
     0
 10
45.1954
 20
69.832
 30
0.0
 11
45.9962
 21
69.832
 31
0.0
  0
LINE
  8
0
 62
     0
 10
45.9962
 20
69.832
 30
0.0
 11
45.9962
 21
72.9326
 31
0.0
  0
LINE
  8
0
 62
     0
 10
45.9962
 20
72.9326
 30
0.0
 11
45.1954
 21
72.9326
 31
0.0
  0
LINE
  8
0
 62
     0
 10
45.1954
 20
72.9326
 30
0.0
 11
45.1954
 21
73.9316
 31
0.0
  0
LINE
  8
0
 62
     0
 10
45.1954
 20
73.9316
 30
0.0
 11
31.196
 21
73.9316
 31
0.0
  0
LINE
  8
0
 62
     0
 10
50.2461
 20
73.9316
 30
0.0
 11
50.2461
 21
72.9326
 31
0.0
  0
LINE
  8
0
 62
     0
 10
50.2461
 20
72.9326
 30
0.0
 11
49.4453
 21
72.9326
 31
0.0
  0
LINE
  8
0
 62
     0
 10
49.4453
 20
72.9326
 30
0.0
 11
49.4453
 21
69.832
 31
0.0
  0
LINE
  8
0
 62
     0
 10
49.4453
 20
69.832
 30
0.0
 11
50.2461
 21
69.832
 31
0.0
  0
LINE
  8
0
 62
     0
 10
50.2461
 20
69.832
 30
0.0
 11
50.2461
 21
64.032
 31
0.0
  0
LINE
  8
0
 62
     0
 10
50.2461
 20
64.032
 30
0.0
 11
49.4453
 21
64.032
 31
0.0
  0
LINE
  8
0
 62
     0
 10
49.4453
 20
64.032
 30
0.0
 11
49.4453
 21
60.9328
 31
0.0
  0
LINE
  8
0
 62
     0
 10
49.4453
 20
60.9328
 30
0.0
 11
50.2461
 21
60.9328
 31
0.0
  0
LINE
  8
0
 62
     0
 10
50.2461
 20
60.9328
 30
0.0
 11
50.2461
 21
59.9324
 31
0.0
  0
LINE
  8
0
 62
     0
 10
50.2461
 20
59.9324
 30
0.0
 11
64.2454
 21
59.9324
 31
0.0
  0
LINE
  8
0
 62
     0
 10
64.2454
 20
59.9324
 30
0.0
 11
64.2454
 21
60.9328
 31
0.0
  0
LINE
  8
0
 62
     0
 10
64.2454
 20
60.9328
 30
0.0
 11
65.0462
 21
60.9328
 31
0.0
  0
LINE
  8
0
 62
     0
 10
65.0462
 20
60.9328
 30
0.0
 11
65.0462
 21
64.032
 31
0.0
  0
LINE
  8
0
 62
     0
 10
65.0462
 20
64.032
 30
0.0
 11
64.2454
 21
64.032
 31
0.0
  0
LINE
  8
0
 62
     0
 10
64.2454
 20
64.032
 30
0.0
 11
64.2454
 21
69.832
 31
0.0
  0
LINE
  8
0
 62
     0
 10
64.2454
 20
69.832
 30
0.0
 11
65.0462
 21
69.832
 31
0.0
  0
LINE
  8
0
 62
     0
 10
65.0462
 20
69.832
 30
0.0
 11
65.0462
 21
72.9326
 31
0.0
  0
LINE
  8
0
 62
     0
 10
65.0462
 20
72.9326
 30
0.0
 11
64.2454
 21
72.9326
 31
0.0
  0
LINE
  8
0
 62
     0
 10
64.2454
 20
72.9326
 30
0.0
 11
64.2454
 21
73.9316
 31
0.0
  0
LINE
  8
0
 62
     0
 10
64.2454
 20
73.9316
 30
0.0
 11
50.2461
 21
73.9316
 31
0.0
  0
LINE
  8
0
 62
     0
 10
69.2961
 20
73.9316
 30
0.0
 11
69.2961
 21
72.9326
 31
0.0
  0
LINE
  8
0
 62
     0
 10
69.2961
 20
72.9326
 30
0.0
 11
68.4953
 21
72.9326
 31
0.0
  0
LINE
  8
0
 62
     0
 10
68.4953
 20
72.9326
 30
0.0
 11
68.4953
 21
69.832
 31
0.0
  0
LINE
  8
0
 62
     0
 10
68.4953
 20
69.832
 30
0.0
 11
69.2961
 21
69.832
 31
0.0
  0
LINE
  8
0
 62
     0
 10
69.2961
 20
69.832
 30
0.0
 11
69.2961
 21
64.032
 31
0.0
  0
LINE
  8
0
 62
     0
 10
69.2961
 20
64.032
 30
0.0
 11
68.4953
 21
64.032
 31
0.0
  0
LINE
  8
0
 62
     0
 10
68.4953
 20
64.032
 30
0.0
 11
68.4953
 21
60.9328
 31
0.0
  0
LINE
  8
0
 62
     0
 10
68.4953
 20
60.9328
 30
0.0
 11
69.2961
 21
60.9328
 31
0.0
  0
LINE
  8
0
 62
     0
 10
69.2961
 20
60.9328
 30
0.0
 11
69.2961
 21
59.9324
 31
0.0
  0
LINE
  8
0
 62
     0
 10
69.2961
 20
59.9324
 30
0.0
 11
83.2954
 21
59.9324
 31
0.0
  0
LINE
  8
0
 62
     0
 10
83.2954
 20
59.9324
 30
0.0
 11
83.2954
 21
60.9328
 31
0.0
  0
LINE
  8
0
 62
     0
 10
83.2954
 20
60.9328
 30
0.0
 11
84.0962
 21
60.9328
 31
0.0
  0
LINE
  8
0
 62
     0
 10
84.0962
 20
60.9328
 30
0.0
 11
84.0962
 21
64.032
 31
0.0
  0
LINE
  8
0
 62
     0
 10
84.0962
 20
64.032
 30
0.0
 11
83.2954
 21
64.032
 31
0.0
  0
LINE
  8
0
 62
     0
 10
83.2954
 20
64.032
 30
0.0
 11
83.2954
 21
69.832
 31
0.0
  0
LINE
  8
0
 62
     0
 10
83.2954
 20
69.832
 30
0.0
 11
84.0962
 21
69.832
 31
0.0
  0
LINE
  8
0
 62
     0
 10
84.0962
 20
69.832
 30
0.0
 11
84.0962
 21
72.9326
 31
0.0
  0
LINE
  8
0
 62
     0
 10
84.0962
 20
72.9326
 30
0.0
 11
83.2954
 21
72.9326
 31
0.0
  0
LINE
  8
0
 62
     0
 10
83.2954
 20
72.9326
 30
0.0
 11
83.2954
 21
73.9316
 31
0.0
  0
LINE
  8
0
 62
     0
 10
83.2954
 20
73.9316
 30
0.0
 11
69.2961
 21
73.9316
 31
0.0
  0
LINE
  8
0
 62
     0
 10
88.3461
 20
73.9316
 30
0.0
 11
88.3461
 21
72.9326
 31
0.0
  0
LINE
  8
0
 62
     0
 10
88.3461
 20
72.9326
 30
0.0
 11
87.5453
 21
72.9326
 31
0.0
  0
LINE
  8
0
 62
     0
 10
87.5453
 20
72.9326
 30
0.0
 11
87.5453
 21
69.832
 31
0.0
  0
LINE
  8
0
 62
     0
 10
87.5453
 20
69.832
 30
0.0
 11
88.3461
 21
69.832
 31
0.0
  0
LINE
  8
0
 62
     0
 10
88.3461
 20
69.832
 30
0.0
 11
88.3461
 21
64.032
 31
0.0
  0
LINE
  8
0
 62
     0
 10
88.3461
 20
64.032
 30
0.0
 11
87.5453
 21
64.032
 31
0.0
  0
LINE
  8
0
 62
     0
 10
87.5453
 20
64.032
 30
0.0
 11
87.5453
 21
60.9328
 31
0.0
  0
LINE
  8
0
 62
     0
 10
87.5453
 20
60.9328
 30
0.0
 11
88.3461
 21
60.9328
 31
0.0
  0
LINE
  8
0
 62
     0
 10
88.3461
 20
60.9328
 30
0.0
 11
88.3461
 21
59.9324
 31
0.0
  0
LINE
  8
0
 62
     0
 10
88.3461
 20
59.9324
 30
0.0
 11
102.345
 21
59.9324
 31
0.0
  0
LINE
  8
0
 62
     0
 10
102.345
 20
59.9324
 30
0.0
 11
102.345
 21
60.9328
 31
0.0
  0
LINE
  8
0
 62
     0
 10
102.345
 20
60.9328
 30
0.0
 11
103.146
 21
60.9328
 31
0.0
  0
LINE
  8
0
 62
     0
 10
103.146
 20
60.9328
 30
0.0
 11
103.146
 21
64.032
 31
0.0
  0
LINE
  8
0
 62
     0
 10
103.146
 20
64.032
 30
0.0
 11
102.345
 21
64.032
 31
0.0
  0
LINE
  8
0
 62
     0
 10
102.345
 20
64.032
 30
0.0
 11
102.345
 21
69.832
 31
0.0
  0
LINE
  8
0
 62
     0
 10
102.345
 20
69.832
 30
0.0
 11
103.146
 21
69.832
 31
0.0
  0
LINE
  8
0
 62
     0
 10
103.146
 20
69.832
 30
0.0
 11
103.146
 21
72.9326
 31
0.0
  0
LINE
  8
0
 62
     0
 10
103.146
 20
72.9326
 30
0.0
 11
102.345
 21
72.9326
 31
0.0
  0
LINE
  8
0
 62
     0
 10
102.345
 20
72.9326
 30
0.0
 11
102.345
 21
73.9316
 31
0.0
  0
LINE
  8
0
 62
     0
 10
102.345
 20
73.9316
 30
0.0
 11
88.3461
 21
73.9316
 31
0.0
  0
LINE
  8
0
 62
     0
 10
107.396
 20
73.9316
 30
0.0
 11
107.396
 21
72.9326
 31
0.0
  0
LINE
  8
0
 62
     0
 10
107.396
 20
72.9326
 30
0.0
 11
106.595
 21
72.9326
 31
0.0
  0
LINE
  8
0
 62
     0
 10
106.595
 20
72.9326
 30
0.0
 11
106.595
 21
69.832
 31
0.0
  0
LINE
  8
0
 62
     0
 10
106.595
 20
69.832
 30
0.0
 11
107.396
 21
69.832
 31
0.0
  0
LINE
  8
0
 62
     0
 10
107.396
 20
69.832
 30
0.0
 11
107.396
 21
64.032
 31
0.0
  0
LINE
  8
0
 62
     0
 10
107.396
 20
64.032
 30
0.0
 11
106.595
 21
64.032
 31
0.0
  0
LINE
  8
0
 62
     0
 10
106.595
 20
64.032
 30
0.0
 11
106.595
 21
60.9328
 31
0.0
  0
LINE
  8
0
 62
     0
 10
106.595
 20
60.9328
 30
0.0
 11
107.396
 21
60.9328
 31
0.0
  0
LINE
  8
0
 62
     0
 10
107.396
 20
60.9328
 30
0.0
 11
107.396
 21
59.9324
 31
0.0
  0
LINE
  8
0
 62
     0
 10
107.396
 20
59.9324
 30
0.0
 11
121.395
 21
59.9324
 31
0.0
  0
LINE
  8
0
 62
     0
 10
121.395
 20
59.9324
 30
0.0
 11
121.395
 21
60.9328
 31
0.0
  0
LINE
  8
0
 62
     0
 10
121.395
 20
60.9328
 30
0.0
 11
122.196
 21
60.9328
 31
0.0
  0
LINE
  8
0
 62
     0
 10
122.196
 20
60.9328
 30
0.0
 11
122.196
 21
64.032
 31
0.0
  0
LINE
  8
0
 62
     0
 10
122.196
 20
64.032
 30
0.0
 11
121.395
 21
64.032
 31
0.0
  0
LINE
  8
0
 62
     0
 10
121.395
 20
64.032
 30
0.0
 11
121.395
 21
69.832
 31
0.0
  0
LINE
  8
0
 62
     0
 10
121.395
 20
69.832
 30
0.0
 11
122.196
 21
69.832
 31
0.0
  0
LINE
  8
0
 62
     0
 10
122.196
 20
69.832
 30
0.0
 11
122.196
 21
72.9326
 31
0.0
  0
LINE
  8
0
 62
     0
 10
122.196
 20
72.9326
 30
0.0
 11
121.395
 21
72.9326
 31
0.0
  0
LINE
  8
0
 62
     0
 10
121.395
 20
72.9326
 30
0.0
 11
121.395
 21
73.9316
 31
0.0
  0
LINE
  8
0
 62
     0
 10
121.395
 20
73.9316
 30
0.0
 11
107.396
 21
73.9316
 31
0.0
  0
LINE
  8
0
 62
     0
 10
126.446
 20
73.9316
 30
0.0
 11
126.446
 21
72.9326
 31
0.0
  0
LINE
  8
0
 62
     0
 10
126.446
 20
72.9326
 30
0.0
 11
125.644
 21
72.9326
 31
0.0
  0
LINE
  8
0
 62
     0
 10
125.644
 20
72.9326
 30
0.0
 11
125.644
 21
69.832
 31
0.0
  0
LINE
  8
0
 62
     0
 10
125.644
 20
69.832
 30
0.0
 11
126.446
 21
69.832
 31
0.0
  0
LINE
  8
0
 62
     0
 10
126.446
 20
69.832
 30
0.0
 11
126.446
 21
64.032
 31
0.0
  0
LINE
  8
0
 62
     0
 10
126.446
 20
64.032
 30
0.0
 11
125.644
 21
64.032
 31
0.0
  0
LINE
  8
0
 62
     0
 10
125.644
 20
64.032
 30
0.0
 11
125.644
 21
60.9328
 31
0.0
  0
LINE
  8
0
 62
     0
 10
125.644
 20
60.9328
 30
0.0
 11
126.446
 21
60.9328
 31
0.0
  0
LINE
  8
0
 62
     0
 10
126.446
 20
60.9328
 30
0.0
 11
126.446
 21
59.9324
 31
0.0
  0
LINE
  8
0
 62
     0
 10
126.446
 20
59.9324
 30
0.0
 11
140.445
 21
59.9324
 31
0.0
  0
LINE
  8
0
 62
     0
 10
140.445
 20
59.9324
 30
0.0
 11
140.445
 21
60.9328
 31
0.0
  0
LINE
  8
0
 62
     0
 10
140.445
 20
60.9328
 30
0.0
 11
141.246
 21
60.9328
 31
0.0
  0
LINE
  8
0
 62
     0
 10
141.246
 20
60.9328
 30
0.0
 11
141.246
 21
64.032
 31
0.0
  0
LINE
  8
0
 62
     0
 10
141.246
 20
64.032
 30
0.0
 11
140.445
 21
64.032
 31
0.0
  0
LINE
  8
0
 62
     0
 10
140.445
 20
64.032
 30
0.0
 11
140.445
 21
69.832
 31
0.0
  0
LINE
  8
0
 62
     0
 10
140.445
 20
69.832
 30
0.0
 11
141.246
 21
69.832
 31
0.0
  0
LINE
  8
0
 62
     0
 10
141.246
 20
69.832
 30
0.0
 11
141.246
 21
72.9326
 31
0.0
  0
LINE
  8
0
 62
     0
 10
141.246
 20
72.9326
 30
0.0
 11
140.445
 21
72.9326
 31
0.0
  0
LINE
  8
0
 62
     0
 10
140.445
 20
72.9326
 30
0.0
 11
140.445
 21
73.9316
 31
0.0
  0
LINE
  8
0
 62
     0
 10
140.445
 20
73.9316
 30
0.0
 11
126.446
 21
73.9316
 31
0.0
  0
LINE
  8
0
 62
     0
 10
145.496
 20
73.9316
 30
0.0
 11
145.496
 21
72.9326
 31
0.0
  0
LINE
  8
0
 62
     0
 10
145.496
 20
72.9326
 30
0.0
 11
144.695
 21
72.9326
 31
0.0
  0
LINE
  8
0
 62
     0
 10
144.695
 20
72.9326
 30
0.0
 11
144.695
 21
69.832
 31
0.0
  0
LINE
  8
0
 62
     0
 10
144.695
 20
69.832
 30
0.0
 11
145.496
 21
69.832
 31
0.0
  0
LINE
  8
0
 62
     0
 10
145.496
 20
69.832
 30
0.0
 11
145.496
 21
64.032
 31
0.0
  0
LINE
  8
0
 62
     0
 10
145.496
 20
64.032
 30
0.0
 11
144.695
 21
64.032
 31
0.0
  0
LINE
  8
0
 62
     0
 10
144.695
 20
64.032
 30
0.0
 11
144.695
 21
60.9328
 31
0.0
  0
LINE
  8
0
 62
     0
 10
144.695
 20
60.9328
 30
0.0
 11
145.496
 21
60.9328
 31
0.0
  0
LINE
  8
0
 62
     0
 10
145.496
 20
60.9328
 30
0.0
 11
145.496
 21
59.9324
 31
0.0
  0
LINE
  8
0
 62
     0
 10
145.496
 20
59.9324
 30
0.0
 11
159.495
 21
59.9324
 31
0.0
  0
LINE
  8
0
 62
     0
 10
159.495
 20
59.9324
 30
0.0
 11
159.495
 21
60.9328
 31
0.0
  0
LINE
  8
0
 62
     0
 10
159.495
 20
60.9328
 30
0.0
 11
160.296
 21
60.9328
 31
0.0
  0
LINE
  8
0
 62
     0
 10
160.296
 20
60.9328
 30
0.0
 11
160.296
 21
64.032
 31
0.0
  0
LINE
  8
0
 62
     0
 10
160.296
 20
64.032
 30
0.0
 11
159.495
 21
64.032
 31
0.0
  0
LINE
  8
0
 62
     0
 10
159.495
 20
64.032
 30
0.0
 11
159.495
 21
69.832
 31
0.0
  0
LINE
  8
0
 62
     0
 10
159.495
 20
69.832
 30
0.0
 11
160.296
 21
69.832
 31
0.0
  0
LINE
  8
0
 62
     0
 10
160.296
 20
69.832
 30
0.0
 11
160.296
 21
72.9326
 31
0.0
  0
LINE
  8
0
 62
     0
 10
160.296
 20
72.9326
 30
0.0
 11
159.495
 21
72.9326
 31
0.0
  0
LINE
  8
0
 62
     0
 10
159.495
 20
72.9326
 30
0.0
 11
159.495
 21
73.9316
 31
0.0
  0
LINE
  8
0
 62
     0
 10
159.495
 20
73.9316
 30
0.0
 11
145.496
 21
73.9316
 31
0.0
  0
LINE
  8
0
 62
     0
 10
164.546
 20
73.9316
 30
0.0
 11
164.546
 21
72.9326
 31
0.0
  0
LINE
  8
0
 62
     0
 10
164.546
 20
72.9326
 30
0.0
 11
163.745
 21
72.9326
 31
0.0
  0
LINE
  8
0
 62
     0
 10
163.745
 20
72.9326
 30
0.0
 11
163.745
 21
69.832
 31
0.0
  0
LINE
  8
0
 62
     0
 10
163.745
 20
69.832
 30
0.0
 11
164.546
 21
69.832
 31
0.0
  0
LINE
  8
0
 62
     0
 10
164.546
 20
69.832
 30
0.0
 11
164.546
 21
64.032
 31
0.0
  0
LINE
  8
0
 62
     0
 10
164.546
 20
64.032
 30
0.0
 11
163.745
 21
64.032
 31
0.0
  0
LINE
  8
0
 62
     0
 10
163.745
 20
64.032
 30
0.0
 11
163.745
 21
60.9328
 31
0.0
  0
LINE
  8
0
 62
     0
 10
163.745
 20
60.9328
 30
0.0
 11
164.546
 21
60.9328
 31
0.0
  0
LINE
  8
0
 62
     0
 10
164.546
 20
60.9328
 30
0.0
 11
164.546
 21
59.9324
 31
0.0
  0
LINE
  8
0
 62
     0
 10
164.546
 20
59.9324
 30
0.0
 11
178.545
 21
59.9324
 31
0.0
  0
LINE
  8
0
 62
     0
 10
178.545
 20
59.9324
 30
0.0
 11
178.545
 21
60.9328
 31
0.0
  0
LINE
  8
0
 62
     0
 10
178.545
 20
60.9328
 30
0.0
 11
179.346
 21
60.9328
 31
0.0
  0
LINE
  8
0
 62
     0
 10
179.346
 20
60.9328
 30
0.0
 11
179.346
 21
64.032
 31
0.0
  0
LINE
  8
0
 62
     0
 10
179.346
 20
64.032
 30
0.0
 11
178.545
 21
64.032
 31
0.0
  0
LINE
  8
0
 62
     0
 10
178.545
 20
64.032
 30
0.0
 11
178.545
 21
69.832
 31
0.0
  0
LINE
  8
0
 62
     0
 10
178.545
 20
69.832
 30
0.0
 11
179.346
 21
69.832
 31
0.0
  0
LINE
  8
0
 62
     0
 10
179.346
 20
69.832
 30
0.0
 11
179.346
 21
72.9326
 31
0.0
  0
LINE
  8
0
 62
     0
 10
179.346
 20
72.9326
 30
0.0
 11
178.545
 21
72.9326
 31
0.0
  0
LINE
  8
0
 62
     0
 10
178.545
 20
72.9326
 30
0.0
 11
178.545
 21
73.9316
 31
0.0
  0
LINE
  8
0
 62
     0
 10
178.545
 20
73.9316
 30
0.0
 11
164.546
 21
73.9316
 31
0.0
  0
LINE
  8
0
 62
     0
 10
183.596
 20
73.9316
 30
0.0
 11
183.596
 21
72.9326
 31
0.0
  0
LINE
  8
0
 62
     0
 10
183.596
 20
72.9326
 30
0.0
 11
182.795
 21
72.9326
 31
0.0
  0
LINE
  8
0
 62
     0
 10
182.795
 20
72.9326
 30
0.0
 11
182.795
 21
69.832
 31
0.0
  0
LINE
  8
0
 62
     0
 10
182.795
 20
69.832
 30
0.0
 11
183.596
 21
69.832
 31
0.0
  0
LINE
  8
0
 62
     0
 10
183.596
 20
69.832
 30
0.0
 11
183.596
 21
64.032
 31
0.0
  0
LINE
  8
0
 62
     0
 10
183.596
 20
64.032
 30
0.0
 11
182.795
 21
64.032
 31
0.0
  0
LINE
  8
0
 62
     0
 10
182.795
 20
64.032
 30
0.0
 11
182.795
 21
60.9328
 31
0.0
  0
LINE
  8
0
 62
     0
 10
182.795
 20
60.9328
 30
0.0
 11
183.596
 21
60.9328
 31
0.0
  0
LINE
  8
0
 62
     0
 10
183.596
 20
60.9328
 30
0.0
 11
183.596
 21
59.9324
 31
0.0
  0
LINE
  8
0
 62
     0
 10
183.596
 20
59.9324
 30
0.0
 11
197.595
 21
59.9324
 31
0.0
  0
LINE
  8
0
 62
     0
 10
197.595
 20
59.9324
 30
0.0
 11
197.595
 21
60.9328
 31
0.0
  0
LINE
  8
0
 62
     0
 10
197.595
 20
60.9328
 30
0.0
 11
198.396
 21
60.9328
 31
0.0
  0
LINE
  8
0
 62
     0
 10
198.396
 20
60.9328
 30
0.0
 11
198.396
 21
64.032
 31
0.0
  0
LINE
  8
0
 62
     0
 10
198.396
 20
64.032
 30
0.0
 11
197.595
 21
64.032
 31
0.0
  0
LINE
  8
0
 62
     0
 10
197.595
 20
64.032
 30
0.0
 11
197.595
 21
69.832
 31
0.0
  0
LINE
  8
0
 62
     0
 10
197.595
 20
69.832
 30
0.0
 11
198.396
 21
69.832
 31
0.0
  0
LINE
  8
0
 62
     0
 10
198.396
 20
69.832
 30
0.0
 11
198.396
 21
72.9326
 31
0.0
  0
LINE
  8
0
 62
     0
 10
198.396
 20
72.9326
 30
0.0
 11
197.595
 21
72.9326
 31
0.0
  0
LINE
  8
0
 62
     0
 10
197.595
 20
72.9326
 30
0.0
 11
197.595
 21
73.9316
 31
0.0
  0
LINE
  8
0
 62
     0
 10
197.595
 20
73.9316
 30
0.0
 11
183.596
 21
73.9316
 31
0.0
  0
LINE
  8
0
 62
     0
 10
202.646
 20
73.9316
 30
0.0
 11
202.646
 21
72.9326
 31
0.0
  0
LINE
  8
0
 62
     0
 10
202.646
 20
72.9326
 30
0.0
 11
201.845
 21
72.9326
 31
0.0
  0
LINE
  8
0
 62
     0
 10
201.845
 20
72.9326
 30
0.0
 11
201.845
 21
69.832
 31
0.0
  0
LINE
  8
0
 62
     0
 10
201.845
 20
69.832
 30
0.0
 11
202.646
 21
69.832
 31
0.0
  0
LINE
  8
0
 62
     0
 10
202.646
 20
69.832
 30
0.0
 11
202.646
 21
64.032
 31
0.0
  0
LINE
  8
0
 62
     0
 10
202.646
 20
64.032
 30
0.0
 11
201.845
 21
64.032
 31
0.0
  0
LINE
  8
0
 62
     0
 10
201.845
 20
64.032
 30
0.0
 11
201.845
 21
60.9328
 31
0.0
  0
LINE
  8
0
 62
     0
 10
201.845
 20
60.9328
 30
0.0
 11
202.646
 21
60.9328
 31
0.0
  0
LINE
  8
0
 62
     0
 10
202.646
 20
60.9328
 30
0.0
 11
202.646
 21
59.9324
 31
0.0
  0
LINE
  8
0
 62
     0
 10
202.646
 20
59.9324
 30
0.0
 11
216.645
 21
59.9324
 31
0.0
  0
LINE
  8
0
 62
     0
 10
216.645
 20
59.9324
 30
0.0
 11
216.645
 21
60.9328
 31
0.0
  0
LINE
  8
0
 62
     0
 10
216.645
 20
60.9328
 30
0.0
 11
217.446
 21
60.9328
 31
0.0
  0
LINE
  8
0
 62
     0
 10
217.446
 20
60.9328
 30
0.0
 11
217.446
 21
64.032
 31
0.0
  0
LINE
  8
0
 62
     0
 10
217.446
 20
64.032
 30
0.0
 11
216.645
 21
64.032
 31
0.0
  0
LINE
  8
0
 62
     0
 10
216.645
 20
64.032
 30
0.0
 11
216.645
 21
69.832
 31
0.0
  0
LINE
  8
0
 62
     0
 10
216.645
 20
69.832
 30
0.0
 11
217.446
 21
69.832
 31
0.0
  0
LINE
  8
0
 62
     0
 10
217.446
 20
69.832
 30
0.0
 11
217.446
 21
72.9326
 31
0.0
  0
LINE
  8
0
 62
     0
 10
217.446
 20
72.9326
 30
0.0
 11
216.645
 21
72.9326
 31
0.0
  0
LINE
  8
0
 62
     0
 10
216.645
 20
72.9326
 30
0.0
 11
216.645
 21
73.9316
 31
0.0
  0
LINE
  8
0
 62
     0
 10
216.645
 20
73.9316
 30
0.0
 11
202.646
 21
73.9316
 31
0.0
  0
LINE
  8
0
 62
     0
 10
221.696
 20
73.9316
 30
0.0
 11
221.696
 21
72.9326
 31
0.0
  0
LINE
  8
0
 62
     0
 10
221.696
 20
72.9326
 30
0.0
 11
220.895
 21
72.9326
 31
0.0
  0
LINE
  8
0
 62
     0
 10
220.895
 20
72.9326
 30
0.0
 11
220.895
 21
69.832
 31
0.0
  0
LINE
  8
0
 62
     0
 10
220.895
 20
69.832
 30
0.0
 11
221.696
 21
69.832
 31
0.0
  0
LINE
  8
0
 62
     0
 10
221.696
 20
69.832
 30
0.0
 11
221.696
 21
64.032
 31
0.0
  0
LINE
  8
0
 62
     0
 10
221.696
 20
64.032
 30
0.0
 11
220.895
 21
64.032
 31
0.0
  0
LINE
  8
0
 62
     0
 10
220.895
 20
64.032
 30
0.0
 11
220.895
 21
60.9328
 31
0.0
  0
LINE
  8
0
 62
     0
 10
220.895
 20
60.9328
 30
0.0
 11
221.696
 21
60.9328
 31
0.0
  0
LINE
  8
0
 62
     0
 10
221.696
 20
60.9328
 30
0.0
 11
221.696
 21
59.9324
 31
0.0
  0
LINE
  8
0
 62
     0
 10
221.696
 20
59.9324
 30
0.0
 11
235.695
 21
59.9324
 31
0.0
  0
LINE
  8
0
 62
     0
 10
235.695
 20
59.9324
 30
0.0
 11
235.695
 21
60.9328
 31
0.0
  0
LINE
  8
0
 62
     0
 10
235.695
 20
60.9328
 30
0.0
 11
236.496
 21
60.9328
 31
0.0
  0
LINE
  8
0
 62
     0
 10
236.496
 20
60.9328
 30
0.0
 11
236.496
 21
64.032
 31
0.0
  0
LINE
  8
0
 62
     0
 10
236.496
 20
64.032
 30
0.0
 11
235.695
 21
64.032
 31
0.0
  0
LINE
  8
0
 62
     0
 10
235.695
 20
64.032
 30
0.0
 11
235.695
 21
69.832
 31
0.0
  0
LINE
  8
0
 62
     0
 10
235.695
 20
69.832
 30
0.0
 11
236.496
 21
69.832
 31
0.0
  0
LINE
  8
0
 62
     0
 10
236.496
 20
69.832
 30
0.0
 11
236.496
 21
72.9326
 31
0.0
  0
LINE
  8
0
 62
     0
 10
236.496
 20
72.9326
 30
0.0
 11
235.695
 21
72.9326
 31
0.0
  0
LINE
  8
0
 62
     0
 10
235.695
 20
72.9326
 30
0.0
 11
235.695
 21
73.9316
 31
0.0
  0
LINE
  8
0
 62
     0
 10
235.695
 20
73.9316
 30
0.0
 11
221.696
 21
73.9316
 31
0.0
  0
LINE
  8
0
 62
     0
 10
240.746
 20
73.9316
 30
0.0
 11
240.746
 21
72.9326
 31
0.0
  0
LINE
  8
0
 62
     0
 10
240.746
 20
72.9326
 30
0.0
 11
239.945
 21
72.9326
 31
0.0
  0
LINE
  8
0
 62
     0
 10
239.945
 20
72.9326
 30
0.0
 11
239.945
 21
69.832
 31
0.0
  0
LINE
  8
0
 62
     0
 10
239.945
 20
69.832
 30
0.0
 11
240.746
 21
69.832
 31
0.0
  0
LINE
  8
0
 62
     0
 10
240.746
 20
69.832
 30
0.0
 11
240.746
 21
64.032
 31
0.0
  0
LINE
  8
0
 62
     0
 10
240.746
 20
64.032
 30
0.0
 11
239.945
 21
64.032
 31
0.0
  0
LINE
  8
0
 62
     0
 10
239.945
 20
64.032
 30
0.0
 11
239.945
 21
60.9328
 31
0.0
  0
LINE
  8
0
 62
     0
 10
239.945
 20
60.9328
 30
0.0
 11
240.746
 21
60.9328
 31
0.0
  0
LINE
  8
0
 62
     0
 10
240.746
 20
60.9328
 30
0.0
 11
240.746
 21
59.9324
 31
0.0
  0
LINE
  8
0
 62
     0
 10
240.746
 20
59.9324
 30
0.0
 11
254.744
 21
59.9324
 31
0.0
  0
LINE
  8
0
 62
     0
 10
254.744
 20
59.9324
 30
0.0
 11
254.744
 21
60.9328
 31
0.0
  0
LINE
  8
0
 62
     0
 10
254.744
 20
60.9328
 30
0.0
 11
255.546
 21
60.9328
 31
0.0
  0
LINE
  8
0
 62
     0
 10
255.546
 20
60.9328
 30
0.0
 11
255.546
 21
64.032
 31
0.0
  0
LINE
  8
0
 62
     0
 10
255.546
 20
64.032
 30
0.0
 11
254.744
 21
64.032
 31
0.0
  0
LINE
  8
0
 62
     0
 10
254.744
 20
64.032
 30
0.0
 11
254.744
 21
69.832
 31
0.0
  0
LINE
  8
0
 62
     0
 10
254.744
 20
69.832
 30
0.0
 11
255.546
 21
69.832
 31
0.0
  0
LINE
  8
0
 62
     0
 10
255.546
 20
69.832
 30
0.0
 11
255.546
 21
72.9326
 31
0.0
  0
LINE
  8
0
 62
     0
 10
255.546
 20
72.9326
 30
0.0
 11
254.744
 21
72.9326
 31
0.0
  0
LINE
  8
0
 62
     0
 10
254.744
 20
72.9326
 30
0.0
 11
254.744
 21
73.9316
 31
0.0
  0
LINE
  8
0
 62
     0
 10
254.744
 20
73.9316
 30
0.0
 11
240.746
 21
73.9316
 31
0.0
  0
LINE
  8
0
 62
     0
 10
264.557
 20
73.9316
 30
0.0
 11
264.557
 21
72.9326
 31
0.0
  0
LINE
  8
0
 62
     0
 10
264.557
 20
72.9326
 30
0.0
 11
263.758
 21
72.9326
 31
0.0
  0
LINE
  8
0
 62
     0
 10
263.758
 20
72.9326
 30
0.0
 11
263.758
 21
69.832
 31
0.0
  0
LINE
  8
0
 62
     0
 10
263.758
 20
69.832
 30
0.0
 11
264.557
 21
69.832
 31
0.0
  0
LINE
  8
0
 62
     0
 10
264.557
 20
69.832
 30
0.0
 11
264.557
 21
64.032
 31
0.0
  0
LINE
  8
0
 62
     0
 10
264.557
 20
64.032
 30
0.0
 11
263.758
 21
64.032
 31
0.0
  0
LINE
  8
0
 62
     0
 10
263.758
 20
64.032
 30
0.0
 11
263.758
 21
60.9328
 31
0.0
  0
LINE
  8
0
 62
     0
 10
263.758
 20
60.9328
 30
0.0
 11
264.557
 21
60.9328
 31
0.0
  0
LINE
  8
0
 62
     0
 10
264.557
 20
60.9328
 30
0.0
 11
264.557
 21
59.9324
 31
0.0
  0
LINE
  8
0
 62
     0
 10
264.557
 20
59.9324
 30
0.0
 11
278.558
 21
59.9324
 31
0.0
  0
LINE
  8
0
 62
     0
 10
278.558
 20
59.9324
 30
0.0
 11
278.558
 21
60.9328
 31
0.0
  0
LINE
  8
0
 62
     0
 10
278.558
 20
60.9328
 30
0.0
 11
279.357
 21
60.9328
 31
0.0
  0
LINE
  8
0
 62
     0
 10
279.357
 20
60.9328
 30
0.0
 11
279.357
 21
64.032
 31
0.0
  0
LINE
  8
0
 62
     0
 10
279.357
 20
64.032
 30
0.0
 11
278.558
 21
64.032
 31
0.0
  0
LINE
  8
0
 62
     0
 10
278.558
 20
64.032
 30
0.0
 11
278.558
 21
69.832
 31
0.0
  0
LINE
  8
0
 62
     0
 10
278.558
 20
69.832
 30
0.0
 11
279.357
 21
69.832
 31
0.0
  0
LINE
  8
0
 62
     0
 10
279.357
 20
69.832
 30
0.0
 11
279.357
 21
72.9326
 31
0.0
  0
LINE
  8
0
 62
     0
 10
279.357
 20
72.9326
 30
0.0
 11
278.558
 21
72.9326
 31
0.0
  0
LINE
  8
0
 62
     0
 10
278.558
 20
72.9326
 30
0.0
 11
278.558
 21
73.9316
 31
0.0
  0
LINE
  8
0
 62
     0
 10
278.558
 20
73.9316
 30
0.0
 11
264.557
 21
73.9316
 31
0.0
  0
LINE
  8
0
 62
     0
 10
293.132
 20
73.9316
 30
0.0
 11
293.132
 21
72.9326
 31
0.0
  0
LINE
  8
0
 62
     0
 10
293.132
 20
72.9326
 30
0.0
 11
292.333
 21
72.9326
 31
0.0
  0
LINE
  8
0
 62
     0
 10
292.333
 20
72.9326
 30
0.0
 11
292.333
 21
69.832
 31
0.0
  0
LINE
  8
0
 62
     0
 10
292.333
 20
69.832
 30
0.0
 11
293.132
 21
69.832
 31
0.0
  0
LINE
  8
0
 62
     0
 10
293.132
 20
69.832
 30
0.0
 11
293.132
 21
64.032
 31
0.0
  0
LINE
  8
0
 62
     0
 10
293.132
 20
64.032
 30
0.0
 11
292.333
 21
64.032
 31
0.0
  0
LINE
  8
0
 62
     0
 10
292.333
 20
64.032
 30
0.0
 11
292.333
 21
60.9328
 31
0.0
  0
LINE
  8
0
 62
     0
 10
292.333
 20
60.9328
 30
0.0
 11
293.132
 21
60.9328
 31
0.0
  0
LINE
  8
0
 62
     0
 10
293.132
 20
60.9328
 30
0.0
 11
293.132
 21
59.9324
 31
0.0
  0
LINE
  8
0
 62
     0
 10
293.132
 20
59.9324
 30
0.0
 11
307.133
 21
59.9324
 31
0.0
  0
LINE
  8
0
 62
     0
 10
307.133
 20
59.9324
 30
0.0
 11
307.133
 21
60.9328
 31
0.0
  0
LINE
  8
0
 62
     0
 10
307.133
 20
60.9328
 30
0.0
 11
307.932
 21
60.9328
 31
0.0
  0
LINE
  8
0
 62
     0
 10
307.932
 20
60.9328
 30
0.0
 11
307.932
 21
64.032
 31
0.0
  0
LINE
  8
0
 62
     0
 10
307.932
 20
64.032
 30
0.0
 11
307.133
 21
64.032
 31
0.0
  0
LINE
  8
0
 62
     0
 10
307.133
 20
64.032
 30
0.0
 11
307.133
 21
69.832
 31
0.0
  0
LINE
  8
0
 62
     0
 10
307.133
 20
69.832
 30
0.0
 11
307.932
 21
69.832
 31
0.0
  0
LINE
  8
0
 62
     0
 10
307.932
 20
69.832
 30
0.0
 11
307.932
 21
72.9326
 31
0.0
  0
LINE
  8
0
 62
     0
 10
307.932
 20
72.9326
 30
0.0
 11
307.133
 21
72.9326
 31
0.0
  0
LINE
  8
0
 62
     0
 10
307.133
 20
72.9326
 30
0.0
 11
307.133
 21
73.9316
 31
0.0
  0
LINE
  8
0
 62
     0
 10
307.133
 20
73.9316
 30
0.0
 11
293.132
 21
73.9316
 31
0.0
  0
LINE
  8
0
 62
     0
 10
312.182
 20
73.9316
 30
0.0
 11
312.182
 21
72.9326
 31
0.0
  0
LINE
  8
0
 62
     0
 10
312.182
 20
72.9326
 30
0.0
 11
311.383
 21
72.9326
 31
0.0
  0
LINE
  8
0
 62
     0
 10
311.383
 20
72.9326
 30
0.0
 11
311.383
 21
69.832
 31
0.0
  0
LINE
  8
0
 62
     0
 10
311.383
 20
69.832
 30
0.0
 11
312.182
 21
69.832
 31
0.0
  0
LINE
  8
0
 62
     0
 10
312.182
 20
69.832
 30
0.0
 11
312.182
 21
64.032
 31
0.0
  0
LINE
  8
0
 62
     0
 10
312.182
 20
64.032
 30
0.0
 11
311.383
 21
64.032
 31
0.0
  0
LINE
  8
0
 62
     0
 10
311.383
 20
64.032
 30
0.0
 11
311.383
 21
60.9328
 31
0.0
  0
LINE
  8
0
 62
     0
 10
311.383
 20
60.9328
 30
0.0
 11
312.182
 21
60.9328
 31
0.0
  0
LINE
  8
0
 62
     0
 10
312.182
 20
60.9328
 30
0.0
 11
312.182
 21
59.9324
 31
0.0
  0
LINE
  8
0
 62
     0
 10
312.182
 20
59.9324
 30
0.0
 11
326.183
 21
59.9324
 31
0.0
  0
LINE
  8
0
 62
     0
 10
326.183
 20
59.9324
 30
0.0
 11
326.183
 21
60.9328
 31
0.0
  0
LINE
  8
0
 62
     0
 10
326.183
 20
60.9328
 30
0.0
 11
326.982
 21
60.9328
 31
0.0
  0
LINE
  8
0
 62
     0
 10
326.982
 20
60.9328
 30
0.0
 11
326.982
 21
64.032
 31
0.0
  0
LINE
  8
0
 62
     0
 10
326.982
 20
64.032
 30
0.0
 11
326.183
 21
64.032
 31
0.0
  0
LINE
  8
0
 62
     0
 10
326.183
 20
64.032
 30
0.0
 11
326.183
 21
69.832
 31
0.0
  0
LINE
  8
0
 62
     0
 10
326.183
 20
69.832
 30
0.0
 11
326.982
 21
69.832
 31
0.0
  0
LINE
  8
0
 62
     0
 10
326.982
 20
69.832
 30
0.0
 11
326.982
 21
72.9326
 31
0.0
  0
LINE
  8
0
 62
     0
 10
326.982
 20
72.9326
 30
0.0
 11
326.183
 21
72.9326
 31
0.0
  0
LINE
  8
0
 62
     0
 10
326.183
 20
72.9326
 30
0.0
 11
326.183
 21
73.9316
 31
0.0
  0
LINE
  8
0
 62
     0
 10
326.183
 20
73.9316
 30
0.0
 11
312.182
 21
73.9316
 31
0.0
  0
LINE
  8
0
 62
     0
 10
331.232
 20
73.9316
 30
0.0
 11
331.232
 21
72.9326
 31
0.0
  0
LINE
  8
0
 62
     0
 10
331.232
 20
72.9326
 30
0.0
 11
330.433
 21
72.9326
 31
0.0
  0
LINE
  8
0
 62
     0
 10
330.433
 20
72.9326
 30
0.0
 11
330.433
 21
69.832
 31
0.0
  0
LINE
  8
0
 62
     0
 10
330.433
 20
69.832
 30
0.0
 11
331.232
 21
69.832
 31
0.0
  0
LINE
  8
0
 62
     0
 10
331.232
 20
69.832
 30
0.0
 11
331.232
 21
64.032
 31
0.0
  0
LINE
  8
0
 62
     0
 10
331.232
 20
64.032
 30
0.0
 11
330.433
 21
64.032
 31
0.0
  0
LINE
  8
0
 62
     0
 10
330.433
 20
64.032
 30
0.0
 11
330.433
 21
60.9328
 31
0.0
  0
LINE
  8
0
 62
     0
 10
330.433
 20
60.9328
 30
0.0
 11
331.232
 21
60.9328
 31
0.0
  0
LINE
  8
0
 62
     0
 10
331.232
 20
60.9328
 30
0.0
 11
331.232
 21
59.9324
 31
0.0
  0
LINE
  8
0
 62
     0
 10
331.232
 20
59.9324
 30
0.0
 11
345.233
 21
59.9324
 31
0.0
  0
LINE
  8
0
 62
     0
 10
345.233
 20
59.9324
 30
0.0
 11
345.233
 21
60.9328
 31
0.0
  0
LINE
  8
0
 62
     0
 10
345.233
 20
60.9328
 30
0.0
 11
346.032
 21
60.9328
 31
0.0
  0
LINE
  8
0
 62
     0
 10
346.032
 20
60.9328
 30
0.0
 11
346.032
 21
64.032
 31
0.0
  0
LINE
  8
0
 62
     0
 10
346.032
 20
64.032
 30
0.0
 11
345.233
 21
64.032
 31
0.0
  0
LINE
  8
0
 62
     0
 10
345.233
 20
64.032
 30
0.0
 11
345.233
 21
69.832
 31
0.0
  0
LINE
  8
0
 62
     0
 10
345.233
 20
69.832
 30
0.0
 11
346.032
 21
69.832
 31
0.0
  0
LINE
  8
0
 62
     0
 10
346.032
 20
69.832
 30
0.0
 11
346.032
 21
72.9326
 31
0.0
  0
LINE
  8
0
 62
     0
 10
346.032
 20
72.9326
 30
0.0
 11
345.233
 21
72.9326
 31
0.0
  0
LINE
  8
0
 62
     0
 10
345.233
 20
72.9326
 30
0.0
 11
345.233
 21
73.9316
 31
0.0
  0
LINE
  8
0
 62
     0
 10
345.233
 20
73.9316
 30
0.0
 11
331.232
 21
73.9316
 31
0.0
  0
LINE
  8
0
 62
     0
 10
355.046
 20
73.9316
 30
0.0
 11
355.046
 21
72.9326
 31
0.0
  0
LINE
  8
0
 62
     0
 10
355.046
 20
72.9326
 30
0.0
 11
354.245
 21
72.9326
 31
0.0
  0
LINE
  8
0
 62
     0
 10
354.245
 20
72.9326
 30
0.0
 11
354.245
 21
69.832
 31
0.0
  0
LINE
  8
0
 62
     0
 10
354.245
 20
69.832
 30
0.0
 11
355.046
 21
69.832
 31
0.0
  0
LINE
  8
0
 62
     0
 10
355.046
 20
69.832
 30
0.0
 11
355.046
 21
64.032
 31
0.0
  0
LINE
  8
0
 62
     0
 10
355.046
 20
64.032
 30
0.0
 11
354.245
 21
64.032
 31
0.0
  0
LINE
  8
0
 62
     0
 10
354.245
 20
64.032
 30
0.0
 11
354.245
 21
60.9328
 31
0.0
  0
LINE
  8
0
 62
     0
 10
354.245
 20
60.9328
 30
0.0
 11
355.046
 21
60.9328
 31
0.0
  0
LINE
  8
0
 62
     0
 10
355.046
 20
60.9328
 30
0.0
 11
355.046
 21
59.9324
 31
0.0
  0
LINE
  8
0
 62
     0
 10
355.046
 20
59.9324
 30
0.0
 11
369.044
 21
59.9324
 31
0.0
  0
LINE
  8
0
 62
     0
 10
369.044
 20
59.9324
 30
0.0
 11
369.044
 21
60.9328
 31
0.0
  0
LINE
  8
0
 62
     0
 10
369.044
 20
60.9328
 30
0.0
 11
369.845
 21
60.9328
 31
0.0
  0
LINE
  8
0
 62
     0
 10
369.845
 20
60.9328
 30
0.0
 11
369.845
 21
64.032
 31
0.0
  0
LINE
  8
0
 62
     0
 10
369.845
 20
64.032
 30
0.0
 11
369.044
 21
64.032
 31
0.0
  0
LINE
  8
0
 62
     0
 10
369.044
 20
64.032
 30
0.0
 11
369.044
 21
69.832
 31
0.0
  0
LINE
  8
0
 62
     0
 10
369.044
 20
69.832
 30
0.0
 11
369.845
 21
69.832
 31
0.0
  0
LINE
  8
0
 62
     0
 10
369.845
 20
69.832
 30
0.0
 11
369.845
 21
72.9326
 31
0.0
  0
LINE
  8
0
 62
     0
 10
369.845
 20
72.9326
 30
0.0
 11
369.044
 21
72.9326
 31
0.0
  0
LINE
  8
0
 62
     0
 10
369.044
 20
72.9326
 30
0.0
 11
369.044
 21
73.9316
 31
0.0
  0
LINE
  8
0
 62
     0
 10
369.044
 20
73.9316
 30
0.0
 11
355.046
 21
73.9316
 31
0.0
  0
LINE
  8
0
 62
     0
 10
259.796
 20
92.9816
 30
0.0
 11
259.796
 21
91.9826
 31
0.0
  0
LINE
  8
0
 62
     0
 10
259.796
 20
91.9826
 30
0.0
 11
258.995
 21
91.9826
 31
0.0
  0
LINE
  8
0
 62
     0
 10
258.995
 20
91.9826
 30
0.0
 11
258.995
 21
88.882
 31
0.0
  0
LINE
  8
0
 62
     0
 10
258.995
 20
88.882
 30
0.0
 11
259.796
 21
88.882
 31
0.0
  0
LINE
  8
0
 62
     0
 10
259.796
 20
88.882
 30
0.0
 11
259.796
 21
88.2826
 31
0.0
  0
LINE
  8
0
 62
     0
 10
259.796
 20
88.2826
 30
0.0
 11
258.27
 21
88.2826
 31
0.0
  0
LINE
  8
0
 62
     0
 10
258.27
 20
88.2826
 30
0.0
 11
258.27
 21
91.5127
 31
0.0
  0
LINE
  8
0
 62
     0
 10
258.27
 20
91.5127
 30
0.0
 11
256.545
 21
91.5127
 31
0.0
  0
LINE
  8
0
 62
     0
 10
256.545
 20
91.5127
 30
0.0
 11
256.545
 21
92.432
 31
0.0
  0
LINE
  8
0
 62
     0
 10
256.545
 20
92.432
 30
0.0
 11
253.245
 21
92.432
 31
0.0
  0
LINE
  8
0
 62
     0
 10
253.245
 20
92.432
 30
0.0
 11
253.245
 21
91.5127
 31
0.0
  0
LINE
  8
0
 62
     0
 10
253.245
 20
91.5127
 30
0.0
 11
251.521
 21
91.5127
 31
0.0
  0
LINE
  8
0
 62
     0
 10
251.521
 20
91.5127
 30
0.0
 11
251.521
 21
88.2826
 31
0.0
  0
LINE
  8
0
 62
     0
 10
251.521
 20
88.2826
 30
0.0
 11
250.696
 21
88.2826
 31
0.0
  0
LINE
  8
0
 62
     0
 10
250.696
 20
88.2826
 30
0.0
 11
250.696
 21
85.4826
 31
0.0
  0
LINE
  8
0
 62
     0
 10
250.696
 20
85.4826
 30
0.0
 11
251.521
 21
85.4826
 31
0.0
  0
LINE
  8
0
 62
     0
 10
251.521
 20
85.4826
 30
0.0
 11
251.521
 21
79.2124
 31
0.0
  0
LINE
  8
0
 62
     0
 10
251.521
 20
79.2124
 30
0.0
 11
253.245
 21
79.2124
 31
0.0
  0
LINE
  8
0
 62
     0
 10
253.245
 20
79.2124
 30
0.0
 11
253.245
 21
78.2327
 31
0.0
  0
LINE
  8
0
 62
     0
 10
253.245
 20
78.2327
 30
0.0
 11
256.545
 21
78.2327
 31
0.0
  0
LINE
  8
0
 62
     0
 10
256.545
 20
78.2327
 30
0.0
 11
256.545
 21
79.2124
 31
0.0
  0
LINE
  8
0
 62
     0
 10
256.545
 20
79.2124
 30
0.0
 11
258.27
 21
79.2124
 31
0.0
  0
LINE
  8
0
 62
     0
 10
258.27
 20
79.2124
 30
0.0
 11
258.27
 21
83.6828
 31
0.0
  0
LINE
  8
0
 62
     0
 10
258.27
 20
83.6828
 30
0.0
 11
259.796
 21
83.6828
 31
0.0
  0
LINE
  8
0
 62
     0
 10
259.796
 20
83.6828
 30
0.0
 11
259.796
 21
83.082
 31
0.0
  0
LINE
  8
0
 62
     0
 10
259.796
 20
83.082
 30
0.0
 11
258.995
 21
83.082
 31
0.0
  0
LINE
  8
0
 62
     0
 10
258.995
 20
83.082
 30
0.0
 11
258.995
 21
79.9828
 31
0.0
  0
LINE
  8
0
 62
     0
 10
258.995
 20
79.9828
 30
0.0
 11
259.796
 21
79.9828
 31
0.0
  0
LINE
  8
0
 62
     0
 10
259.796
 20
79.9828
 30
0.0
 11
259.796
 21
78.9824
 31
0.0
  0
LINE
  8
0
 62
     0
 10
259.796
 20
78.9824
 30
0.0
 11
273.795
 21
78.9824
 31
0.0
  0
LINE
  8
0
 62
     0
 10
273.795
 20
78.9824
 30
0.0
 11
273.795
 21
79.9828
 31
0.0
  0
LINE
  8
0
 62
     0
 10
273.795
 20
79.9828
 30
0.0
 11
274.596
 21
79.9828
 31
0.0
  0
LINE
  8
0
 62
     0
 10
274.596
 20
79.9828
 30
0.0
 11
274.596
 21
83.082
 31
0.0
  0
LINE
  8
0
 62
     0
 10
274.596
 20
83.082
 30
0.0
 11
273.795
 21
83.082
 31
0.0
  0
LINE
  8
0
 62
     0
 10
273.795
 20
83.082
 30
0.0
 11
273.795
 21
83.6828
 31
0.0
  0
LINE
  8
0
 62
     0
 10
273.795
 20
83.6828
 30
0.0
 11
275.321
 21
83.6828
 31
0.0
  0
LINE
  8
0
 62
     0
 10
275.321
 20
83.6828
 30
0.0
 11
275.321
 21
79.2124
 31
0.0
  0
LINE
  8
0
 62
     0
 10
275.321
 20
79.2124
 30
0.0
 11
277.045
 21
79.2124
 31
0.0
  0
LINE
  8
0
 62
     0
 10
277.045
 20
79.2124
 30
0.0
 11
277.045
 21
78.2327
 31
0.0
  0
LINE
  8
0
 62
     0
 10
277.045
 20
78.2327
 30
0.0
 11
280.345
 21
78.2327
 31
0.0
  0
LINE
  8
0
 62
     0
 10
280.345
 20
78.2327
 30
0.0
 11
280.345
 21
79.2124
 31
0.0
  0
LINE
  8
0
 62
     0
 10
280.345
 20
79.2124
 30
0.0
 11
282.071
 21
79.2124
 31
0.0
  0
LINE
  8
0
 62
     0
 10
282.071
 20
79.2124
 30
0.0
 11
282.071
 21
85.4826
 31
0.0
  0
LINE
  8
0
 62
     0
 10
282.071
 20
85.4826
 30
0.0
 11
282.896
 21
85.4826
 31
0.0
  0
LINE
  8
0
 62
     0
 10
282.896
 20
85.4826
 30
0.0
 11
282.896
 21
88.2826
 31
0.0
  0
LINE
  8
0
 62
     0
 10
282.896
 20
88.2826
 30
0.0
 11
282.071
 21
88.2826
 31
0.0
  0
LINE
  8
0
 62
     0
 10
282.071
 20
88.2826
 30
0.0
 11
282.071
 21
91.5127
 31
0.0
  0
LINE
  8
0
 62
     0
 10
282.071
 20
91.5127
 30
0.0
 11
280.345
 21
91.5127
 31
0.0
  0
LINE
  8
0
 62
     0
 10
280.345
 20
91.5127
 30
0.0
 11
280.345
 21
92.432
 31
0.0
  0
LINE
  8
0
 62
     0
 10
280.345
 20
92.432
 30
0.0
 11
277.045
 21
92.432
 31
0.0
  0
LINE
  8
0
 62
     0
 10
277.045
 20
92.432
 30
0.0
 11
277.045
 21
91.5127
 31
0.0
  0
LINE
  8
0
 62
     0
 10
277.045
 20
91.5127
 30
0.0
 11
275.321
 21
91.5127
 31
0.0
  0
LINE
  8
0
 62
     0
 10
275.321
 20
91.5127
 30
0.0
 11
275.321
 21
88.2826
 31
0.0
  0
LINE
  8
0
 62
     0
 10
275.321
 20
88.2826
 30
0.0
 11
273.795
 21
88.2826
 31
0.0
  0
LINE
  8
0
 62
     0
 10
273.795
 20
88.2826
 30
0.0
 11
273.795
 21
88.882
 31
0.0
  0
LINE
  8
0
 62
     0
 10
273.795
 20
88.882
 30
0.0
 11
274.596
 21
88.882
 31
0.0
  0
LINE
  8
0
 62
     0
 10
274.596
 20
88.882
 30
0.0
 11
274.596
 21
91.9826
 31
0.0
  0
LINE
  8
0
 62
     0
 10
274.596
 20
91.9826
 30
0.0
 11
273.795
 21
91.9826
 31
0.0
  0
LINE
  8
0
 62
     0
 10
273.795
 20
91.9826
 30
0.0
 11
273.795
 21
92.9816
 31
0.0
  0
LINE
  8
0
 62
     0
 10
273.795
 20
92.9816
 30
0.0
 11
259.796
 21
92.9816
 31
0.0
  0
LINE
  8
0
 62
     0
 10
2.62103
 20
92.9816
 30
0.0
 11
2.62103
 21
91.9826
 31
0.0
  0
LINE
  8
0
 62
     0
 10
2.62103
 20
91.9826
 30
0.0
 11
1.82039
 21
91.9826
 31
0.0
  0
LINE
  8
0
 62
     0
 10
1.82039
 20
91.9826
 30
0.0
 11
1.82039
 21
88.882
 31
0.0
  0
LINE
  8
0
 62
     0
 10
1.82039
 20
88.882
 30
0.0
 11
2.62103
 21
88.882
 31
0.0
  0
LINE
  8
0
 62
     0
 10
2.62103
 20
88.882
 30
0.0
 11
2.62103
 21
83.082
 31
0.0
  0
LINE
  8
0
 62
     0
 10
2.62103
 20
83.082
 30
0.0
 11
1.82039
 21
83.082
 31
0.0
  0
LINE
  8
0
 62
     0
 10
1.82039
 20
83.082
 30
0.0
 11
1.82039
 21
79.9828
 31
0.0
  0
LINE
  8
0
 62
     0
 10
1.82039
 20
79.9828
 30
0.0
 11
2.62103
 21
79.9828
 31
0.0
  0
LINE
  8
0
 62
     0
 10
2.62103
 20
79.9828
 30
0.0
 11
2.62103
 21
78.9824
 31
0.0
  0
LINE
  8
0
 62
     0
 10
2.62103
 20
78.9824
 30
0.0
 11
16.6205
 21
78.9824
 31
0.0
  0
LINE
  8
0
 62
     0
 10
16.6205
 20
78.9824
 30
0.0
 11
16.6205
 21
79.9828
 31
0.0
  0
LINE
  8
0
 62
     0
 10
16.6205
 20
79.9828
 30
0.0
 11
17.4212
 21
79.9828
 31
0.0
  0
LINE
  8
0
 62
     0
 10
17.4212
 20
79.9828
 30
0.0
 11
17.4212
 21
83.082
 31
0.0
  0
LINE
  8
0
 62
     0
 10
17.4212
 20
83.082
 30
0.0
 11
16.6205
 21
83.082
 31
0.0
  0
LINE
  8
0
 62
     0
 10
16.6205
 20
83.082
 30
0.0
 11
16.6205
 21
88.882
 31
0.0
  0
LINE
  8
0
 62
     0
 10
16.6205
 20
88.882
 30
0.0
 11
17.4212
 21
88.882
 31
0.0
  0
LINE
  8
0
 62
     0
 10
17.4212
 20
88.882
 30
0.0
 11
17.4212
 21
91.9826
 31
0.0
  0
LINE
  8
0
 62
     0
 10
17.4212
 20
91.9826
 30
0.0
 11
16.6205
 21
91.9826
 31
0.0
  0
LINE
  8
0
 62
     0
 10
16.6205
 20
91.9826
 30
0.0
 11
16.6205
 21
92.9816
 31
0.0
  0
LINE
  8
0
 62
     0
 10
16.6205
 20
92.9816
 30
0.0
 11
2.62103
 21
92.9816
 31
0.0
  0
LINE
  8
0
 62
     0
 10
21.671
 20
92.9816
 30
0.0
 11
21.671
 21
91.9826
 31
0.0
  0
LINE
  8
0
 62
     0
 10
21.671
 20
91.9826
 30
0.0
 11
20.8704
 21
91.9826
 31
0.0
  0
LINE
  8
0
 62
     0
 10
20.8704
 20
91.9826
 30
0.0
 11
20.8704
 21
88.882
 31
0.0
  0
LINE
  8
0
 62
     0
 10
20.8704
 20
88.882
 30
0.0
 11
21.671
 21
88.882
 31
0.0
  0
LINE
  8
0
 62
     0
 10
21.671
 20
88.882
 30
0.0
 11
21.671
 21
83.082
 31
0.0
  0
LINE
  8
0
 62
     0
 10
21.671
 20
83.082
 30
0.0
 11
20.8704
 21
83.082
 31
0.0
  0
LINE
  8
0
 62
     0
 10
20.8704
 20
83.082
 30
0.0
 11
20.8704
 21
79.9828
 31
0.0
  0
LINE
  8
0
 62
     0
 10
20.8704
 20
79.9828
 30
0.0
 11
21.671
 21
79.9828
 31
0.0
  0
LINE
  8
0
 62
     0
 10
21.671
 20
79.9828
 30
0.0
 11
21.671
 21
78.9824
 31
0.0
  0
LINE
  8
0
 62
     0
 10
21.671
 20
78.9824
 30
0.0
 11
35.6704
 21
78.9824
 31
0.0
  0
LINE
  8
0
 62
     0
 10
35.6704
 20
78.9824
 30
0.0
 11
35.6704
 21
79.9828
 31
0.0
  0
LINE
  8
0
 62
     0
 10
35.6704
 20
79.9828
 30
0.0
 11
36.4712
 21
79.9828
 31
0.0
  0
LINE
  8
0
 62
     0
 10
36.4712
 20
79.9828
 30
0.0
 11
36.4712
 21
83.082
 31
0.0
  0
LINE
  8
0
 62
     0
 10
36.4712
 20
83.082
 30
0.0
 11
35.6704
 21
83.082
 31
0.0
  0
LINE
  8
0
 62
     0
 10
35.6704
 20
83.082
 30
0.0
 11
35.6704
 21
88.882
 31
0.0
  0
LINE
  8
0
 62
     0
 10
35.6704
 20
88.882
 30
0.0
 11
36.4712
 21
88.882
 31
0.0
  0
LINE
  8
0
 62
     0
 10
36.4712
 20
88.882
 30
0.0
 11
36.4712
 21
91.9826
 31
0.0
  0
LINE
  8
0
 62
     0
 10
36.4712
 20
91.9826
 30
0.0
 11
35.6704
 21
91.9826
 31
0.0
  0
LINE
  8
0
 62
     0
 10
35.6704
 20
91.9826
 30
0.0
 11
35.6704
 21
92.9816
 31
0.0
  0
LINE
  8
0
 62
     0
 10
35.6704
 20
92.9816
 30
0.0
 11
21.671
 21
92.9816
 31
0.0
  0
LINE
  8
0
 62
     0
 10
40.7211
 20
92.9816
 30
0.0
 11
40.7211
 21
91.9826
 31
0.0
  0
LINE
  8
0
 62
     0
 10
40.7211
 20
91.9826
 30
0.0
 11
39.9203
 21
91.9826
 31
0.0
  0
LINE
  8
0
 62
     0
 10
39.9203
 20
91.9826
 30
0.0
 11
39.9203
 21
88.882
 31
0.0
  0
LINE
  8
0
 62
     0
 10
39.9203
 20
88.882
 30
0.0
 11
40.7211
 21
88.882
 31
0.0
  0
LINE
  8
0
 62
     0
 10
40.7211
 20
88.882
 30
0.0
 11
40.7211
 21
83.082
 31
0.0
  0
LINE
  8
0
 62
     0
 10
40.7211
 20
83.082
 30
0.0
 11
39.9203
 21
83.082
 31
0.0
  0
LINE
  8
0
 62
     0
 10
39.9203
 20
83.082
 30
0.0
 11
39.9203
 21
79.9828
 31
0.0
  0
LINE
  8
0
 62
     0
 10
39.9203
 20
79.9828
 30
0.0
 11
40.7211
 21
79.9828
 31
0.0
  0
LINE
  8
0
 62
     0
 10
40.7211
 20
79.9828
 30
0.0
 11
40.7211
 21
78.9824
 31
0.0
  0
LINE
  8
0
 62
     0
 10
40.7211
 20
78.9824
 30
0.0
 11
54.7204
 21
78.9824
 31
0.0
  0
LINE
  8
0
 62
     0
 10
54.7204
 20
78.9824
 30
0.0
 11
54.7204
 21
79.9828
 31
0.0
  0
LINE
  8
0
 62
     0
 10
54.7204
 20
79.9828
 30
0.0
 11
55.5212
 21
79.9828
 31
0.0
  0
LINE
  8
0
 62
     0
 10
55.5212
 20
79.9828
 30
0.0
 11
55.5212
 21
83.082
 31
0.0
  0
LINE
  8
0
 62
     0
 10
55.5212
 20
83.082
 30
0.0
 11
54.7204
 21
83.082
 31
0.0
  0
LINE
  8
0
 62
     0
 10
54.7204
 20
83.082
 30
0.0
 11
54.7204
 21
88.882
 31
0.0
  0
LINE
  8
0
 62
     0
 10
54.7204
 20
88.882
 30
0.0
 11
55.5212
 21
88.882
 31
0.0
  0
LINE
  8
0
 62
     0
 10
55.5212
 20
88.882
 30
0.0
 11
55.5212
 21
91.9826
 31
0.0
  0
LINE
  8
0
 62
     0
 10
55.5212
 20
91.9826
 30
0.0
 11
54.7204
 21
91.9826
 31
0.0
  0
LINE
  8
0
 62
     0
 10
54.7204
 20
91.9826
 30
0.0
 11
54.7204
 21
92.9816
 31
0.0
  0
LINE
  8
0
 62
     0
 10
54.7204
 20
92.9816
 30
0.0
 11
40.7211
 21
92.9816
 31
0.0
  0
LINE
  8
0
 62
     0
 10
59.7711
 20
92.9816
 30
0.0
 11
59.7711
 21
91.9826
 31
0.0
  0
LINE
  8
0
 62
     0
 10
59.7711
 20
91.9826
 30
0.0
 11
58.9703
 21
91.9826
 31
0.0
  0
LINE
  8
0
 62
     0
 10
58.9703
 20
91.9826
 30
0.0
 11
58.9703
 21
88.882
 31
0.0
  0
LINE
  8
0
 62
     0
 10
58.9703
 20
88.882
 30
0.0
 11
59.7711
 21
88.882
 31
0.0
  0
LINE
  8
0
 62
     0
 10
59.7711
 20
88.882
 30
0.0
 11
59.7711
 21
83.082
 31
0.0
  0
LINE
  8
0
 62
     0
 10
59.7711
 20
83.082
 30
0.0
 11
58.9703
 21
83.082
 31
0.0
  0
LINE
  8
0
 62
     0
 10
58.9703
 20
83.082
 30
0.0
 11
58.9703
 21
79.9828
 31
0.0
  0
LINE
  8
0
 62
     0
 10
58.9703
 20
79.9828
 30
0.0
 11
59.7711
 21
79.9828
 31
0.0
  0
LINE
  8
0
 62
     0
 10
59.7711
 20
79.9828
 30
0.0
 11
59.7711
 21
78.9824
 31
0.0
  0
LINE
  8
0
 62
     0
 10
59.7711
 20
78.9824
 30
0.0
 11
73.7704
 21
78.9824
 31
0.0
  0
LINE
  8
0
 62
     0
 10
73.7704
 20
78.9824
 30
0.0
 11
73.7704
 21
79.9828
 31
0.0
  0
LINE
  8
0
 62
     0
 10
73.7704
 20
79.9828
 30
0.0
 11
74.5712
 21
79.9828
 31
0.0
  0
LINE
  8
0
 62
     0
 10
74.5712
 20
79.9828
 30
0.0
 11
74.5712
 21
83.082
 31
0.0
  0
LINE
  8
0
 62
     0
 10
74.5712
 20
83.082
 30
0.0
 11
73.7704
 21
83.082
 31
0.0
  0
LINE
  8
0
 62
     0
 10
73.7704
 20
83.082
 30
0.0
 11
73.7704
 21
88.882
 31
0.0
  0
LINE
  8
0
 62
     0
 10
73.7704
 20
88.882
 30
0.0
 11
74.5712
 21
88.882
 31
0.0
  0
LINE
  8
0
 62
     0
 10
74.5712
 20
88.882
 30
0.0
 11
74.5712
 21
91.9826
 31
0.0
  0
LINE
  8
0
 62
     0
 10
74.5712
 20
91.9826
 30
0.0
 11
73.7704
 21
91.9826
 31
0.0
  0
LINE
  8
0
 62
     0
 10
73.7704
 20
91.9826
 30
0.0
 11
73.7704
 21
92.9816
 31
0.0
  0
LINE
  8
0
 62
     0
 10
73.7704
 20
92.9816
 30
0.0
 11
59.7711
 21
92.9816
 31
0.0
  0
LINE
  8
0
 62
     0
 10
78.8211
 20
92.9816
 30
0.0
 11
78.8211
 21
91.9826
 31
0.0
  0
LINE
  8
0
 62
     0
 10
78.8211
 20
91.9826
 30
0.0
 11
78.0203
 21
91.9826
 31
0.0
  0
LINE
  8
0
 62
     0
 10
78.0203
 20
91.9826
 30
0.0
 11
78.0203
 21
88.882
 31
0.0
  0
LINE
  8
0
 62
     0
 10
78.0203
 20
88.882
 30
0.0
 11
78.8211
 21
88.882
 31
0.0
  0
LINE
  8
0
 62
     0
 10
78.8211
 20
88.882
 30
0.0
 11
78.8211
 21
83.082
 31
0.0
  0
LINE
  8
0
 62
     0
 10
78.8211
 20
83.082
 30
0.0
 11
78.0203
 21
83.082
 31
0.0
  0
LINE
  8
0
 62
     0
 10
78.0203
 20
83.082
 30
0.0
 11
78.0203
 21
79.9828
 31
0.0
  0
LINE
  8
0
 62
     0
 10
78.0203
 20
79.9828
 30
0.0
 11
78.8211
 21
79.9828
 31
0.0
  0
LINE
  8
0
 62
     0
 10
78.8211
 20
79.9828
 30
0.0
 11
78.8211
 21
78.9824
 31
0.0
  0
LINE
  8
0
 62
     0
 10
78.8211
 20
78.9824
 30
0.0
 11
92.8204
 21
78.9824
 31
0.0
  0
LINE
  8
0
 62
     0
 10
92.8204
 20
78.9824
 30
0.0
 11
92.8204
 21
79.9828
 31
0.0
  0
LINE
  8
0
 62
     0
 10
92.8204
 20
79.9828
 30
0.0
 11
93.6198
 21
79.9828
 31
0.0
  0
LINE
  8
0
 62
     0
 10
93.6198
 20
79.9828
 30
0.0
 11
93.6198
 21
83.082
 31
0.0
  0
LINE
  8
0
 62
     0
 10
93.6198
 20
83.082
 30
0.0
 11
92.8204
 21
83.082
 31
0.0
  0
LINE
  8
0
 62
     0
 10
92.8204
 20
83.082
 30
0.0
 11
92.8204
 21
88.882
 31
0.0
  0
LINE
  8
0
 62
     0
 10
92.8204
 20
88.882
 30
0.0
 11
93.6198
 21
88.882
 31
0.0
  0
LINE
  8
0
 62
     0
 10
93.6198
 20
88.882
 30
0.0
 11
93.6198
 21
91.9826
 31
0.0
  0
LINE
  8
0
 62
     0
 10
93.6198
 20
91.9826
 30
0.0
 11
92.8204
 21
91.9826
 31
0.0
  0
LINE
  8
0
 62
     0
 10
92.8204
 20
91.9826
 30
0.0
 11
92.8204
 21
92.9816
 31
0.0
  0
LINE
  8
0
 62
     0
 10
92.8204
 20
92.9816
 30
0.0
 11
78.8211
 21
92.9816
 31
0.0
  0
LINE
  8
0
 62
     0
 10
97.8697
 20
92.9816
 30
0.0
 11
97.8697
 21
91.9826
 31
0.0
  0
LINE
  8
0
 62
     0
 10
97.8697
 20
91.9826
 30
0.0
 11
97.0703
 21
91.9826
 31
0.0
  0
LINE
  8
0
 62
     0
 10
97.0703
 20
91.9826
 30
0.0
 11
97.0703
 21
88.882
 31
0.0
  0
LINE
  8
0
 62
     0
 10
97.0703
 20
88.882
 30
0.0
 11
97.8697
 21
88.882
 31
0.0
  0
LINE
  8
0
 62
     0
 10
97.8697
 20
88.882
 30
0.0
 11
97.8697
 21
83.082
 31
0.0
  0
LINE
  8
0
 62
     0
 10
97.8697
 20
83.082
 30
0.0
 11
97.0703
 21
83.082
 31
0.0
  0
LINE
  8
0
 62
     0
 10
97.0703
 20
83.082
 30
0.0
 11
97.0703
 21
79.9828
 31
0.0
  0
LINE
  8
0
 62
     0
 10
97.0703
 20
79.9828
 30
0.0
 11
97.8697
 21
79.9828
 31
0.0
  0
LINE
  8
0
 62
     0
 10
97.8697
 20
79.9828
 30
0.0
 11
97.8697
 21
78.9824
 31
0.0
  0
LINE
  8
0
 62
     0
 10
97.8697
 20
78.9824
 30
0.0
 11
111.869
 21
78.9824
 31
0.0
  0
LINE
  8
0
 62
     0
 10
111.869
 20
78.9824
 30
0.0
 11
111.869
 21
79.9828
 31
0.0
  0
LINE
  8
0
 62
     0
 10
111.869
 20
79.9828
 30
0.0
 11
112.67
 21
79.9828
 31
0.0
  0
LINE
  8
0
 62
     0
 10
112.67
 20
79.9828
 30
0.0
 11
112.67
 21
83.082
 31
0.0
  0
LINE
  8
0
 62
     0
 10
112.67
 20
83.082
 30
0.0
 11
111.869
 21
83.082
 31
0.0
  0
LINE
  8
0
 62
     0
 10
111.869
 20
83.082
 30
0.0
 11
111.869
 21
88.882
 31
0.0
  0
LINE
  8
0
 62
     0
 10
111.869
 20
88.882
 30
0.0
 11
112.67
 21
88.882
 31
0.0
  0
LINE
  8
0
 62
     0
 10
112.67
 20
88.882
 30
0.0
 11
112.67
 21
91.9826
 31
0.0
  0
LINE
  8
0
 62
     0
 10
112.67
 20
91.9826
 30
0.0
 11
111.869
 21
91.9826
 31
0.0
  0
LINE
  8
0
 62
     0
 10
111.869
 20
91.9826
 30
0.0
 11
111.869
 21
92.9816
 31
0.0
  0
LINE
  8
0
 62
     0
 10
111.869
 20
92.9816
 30
0.0
 11
97.8697
 21
92.9816
 31
0.0
  0
LINE
  8
0
 62
     0
 10
116.92
 20
92.9816
 30
0.0
 11
116.92
 21
91.9826
 31
0.0
  0
LINE
  8
0
 62
     0
 10
116.92
 20
91.9826
 30
0.0
 11
116.119
 21
91.9826
 31
0.0
  0
LINE
  8
0
 62
     0
 10
116.119
 20
91.9826
 30
0.0
 11
116.119
 21
88.882
 31
0.0
  0
LINE
  8
0
 62
     0
 10
116.119
 20
88.882
 30
0.0
 11
116.92
 21
88.882
 31
0.0
  0
LINE
  8
0
 62
     0
 10
116.92
 20
88.882
 30
0.0
 11
116.92
 21
83.082
 31
0.0
  0
LINE
  8
0
 62
     0
 10
116.92
 20
83.082
 30
0.0
 11
116.119
 21
83.082
 31
0.0
  0
LINE
  8
0
 62
     0
 10
116.119
 20
83.082
 30
0.0
 11
116.119
 21
79.9828
 31
0.0
  0
LINE
  8
0
 62
     0
 10
116.119
 20
79.9828
 30
0.0
 11
116.92
 21
79.9828
 31
0.0
  0
LINE
  8
0
 62
     0
 10
116.92
 20
79.9828
 30
0.0
 11
116.92
 21
78.9824
 31
0.0
  0
LINE
  8
0
 62
     0
 10
116.92
 20
78.9824
 30
0.0
 11
130.92
 21
78.9824
 31
0.0
  0
LINE
  8
0
 62
     0
 10
130.92
 20
78.9824
 30
0.0
 11
130.92
 21
79.9828
 31
0.0
  0
LINE
  8
0
 62
     0
 10
130.92
 20
79.9828
 30
0.0
 11
131.721
 21
79.9828
 31
0.0
  0
LINE
  8
0
 62
     0
 10
131.721
 20
79.9828
 30
0.0
 11
131.721
 21
83.082
 31
0.0
  0
LINE
  8
0
 62
     0
 10
131.721
 20
83.082
 30
0.0
 11
130.92
 21
83.082
 31
0.0
  0
LINE
  8
0
 62
     0
 10
130.92
 20
83.082
 30
0.0
 11
130.92
 21
88.882
 31
0.0
  0
LINE
  8
0
 62
     0
 10
130.92
 20
88.882
 30
0.0
 11
131.721
 21
88.882
 31
0.0
  0
LINE
  8
0
 62
     0
 10
131.721
 20
88.882
 30
0.0
 11
131.721
 21
91.9826
 31
0.0
  0
LINE
  8
0
 62
     0
 10
131.721
 20
91.9826
 30
0.0
 11
130.92
 21
91.9826
 31
0.0
  0
LINE
  8
0
 62
     0
 10
130.92
 20
91.9826
 30
0.0
 11
130.92
 21
92.9816
 31
0.0
  0
LINE
  8
0
 62
     0
 10
130.92
 20
92.9816
 30
0.0
 11
116.92
 21
92.9816
 31
0.0
  0
LINE
  8
0
 62
     0
 10
135.971
 20
92.9816
 30
0.0
 11
135.971
 21
91.9826
 31
0.0
  0
LINE
  8
0
 62
     0
 10
135.971
 20
91.9826
 30
0.0
 11
135.17
 21
91.9826
 31
0.0
  0
LINE
  8
0
 62
     0
 10
135.17
 20
91.9826
 30
0.0
 11
135.17
 21
88.882
 31
0.0
  0
LINE
  8
0
 62
     0
 10
135.17
 20
88.882
 30
0.0
 11
135.971
 21
88.882
 31
0.0
  0
LINE
  8
0
 62
     0
 10
135.971
 20
88.882
 30
0.0
 11
135.971
 21
83.082
 31
0.0
  0
LINE
  8
0
 62
     0
 10
135.971
 20
83.082
 30
0.0
 11
135.17
 21
83.082
 31
0.0
  0
LINE
  8
0
 62
     0
 10
135.17
 20
83.082
 30
0.0
 11
135.17
 21
79.9828
 31
0.0
  0
LINE
  8
0
 62
     0
 10
135.17
 20
79.9828
 30
0.0
 11
135.971
 21
79.9828
 31
0.0
  0
LINE
  8
0
 62
     0
 10
135.971
 20
79.9828
 30
0.0
 11
135.971
 21
78.9824
 31
0.0
  0
LINE
  8
0
 62
     0
 10
135.971
 20
78.9824
 30
0.0
 11
149.97
 21
78.9824
 31
0.0
  0
LINE
  8
0
 62
     0
 10
149.97
 20
78.9824
 30
0.0
 11
149.97
 21
79.9828
 31
0.0
  0
LINE
  8
0
 62
     0
 10
149.97
 20
79.9828
 30
0.0
 11
150.771
 21
79.9828
 31
0.0
  0
LINE
  8
0
 62
     0
 10
150.771
 20
79.9828
 30
0.0
 11
150.771
 21
83.082
 31
0.0
  0
LINE
  8
0
 62
     0
 10
150.771
 20
83.082
 30
0.0
 11
149.97
 21
83.082
 31
0.0
  0
LINE
  8
0
 62
     0
 10
149.97
 20
83.082
 30
0.0
 11
149.97
 21
88.882
 31
0.0
  0
LINE
  8
0
 62
     0
 10
149.97
 20
88.882
 30
0.0
 11
150.771
 21
88.882
 31
0.0
  0
LINE
  8
0
 62
     0
 10
150.771
 20
88.882
 30
0.0
 11
150.771
 21
91.9826
 31
0.0
  0
LINE
  8
0
 62
     0
 10
150.771
 20
91.9826
 30
0.0
 11
149.97
 21
91.9826
 31
0.0
  0
LINE
  8
0
 62
     0
 10
149.97
 20
91.9826
 30
0.0
 11
149.97
 21
92.9816
 31
0.0
  0
LINE
  8
0
 62
     0
 10
149.97
 20
92.9816
 30
0.0
 11
135.971
 21
92.9816
 31
0.0
  0
LINE
  8
0
 62
     0
 10
155.021
 20
92.9816
 30
0.0
 11
155.021
 21
91.9826
 31
0.0
  0
LINE
  8
0
 62
     0
 10
155.021
 20
91.9826
 30
0.0
 11
154.22
 21
91.9826
 31
0.0
  0
LINE
  8
0
 62
     0
 10
154.22
 20
91.9826
 30
0.0
 11
154.22
 21
88.882
 31
0.0
  0
LINE
  8
0
 62
     0
 10
154.22
 20
88.882
 30
0.0
 11
155.021
 21
88.882
 31
0.0
  0
LINE
  8
0
 62
     0
 10
155.021
 20
88.882
 30
0.0
 11
155.021
 21
83.082
 31
0.0
  0
LINE
  8
0
 62
     0
 10
155.021
 20
83.082
 30
0.0
 11
154.22
 21
83.082
 31
0.0
  0
LINE
  8
0
 62
     0
 10
154.22
 20
83.082
 30
0.0
 11
154.22
 21
79.9828
 31
0.0
  0
LINE
  8
0
 62
     0
 10
154.22
 20
79.9828
 30
0.0
 11
155.021
 21
79.9828
 31
0.0
  0
LINE
  8
0
 62
     0
 10
155.021
 20
79.9828
 30
0.0
 11
155.021
 21
78.9824
 31
0.0
  0
LINE
  8
0
 62
     0
 10
155.021
 20
78.9824
 30
0.0
 11
169.02
 21
78.9824
 31
0.0
  0
LINE
  8
0
 62
     0
 10
169.02
 20
78.9824
 30
0.0
 11
169.02
 21
79.9828
 31
0.0
  0
LINE
  8
0
 62
     0
 10
169.02
 20
79.9828
 30
0.0
 11
169.821
 21
79.9828
 31
0.0
  0
LINE
  8
0
 62
     0
 10
169.821
 20
79.9828
 30
0.0
 11
169.821
 21
83.082
 31
0.0
  0
LINE
  8
0
 62
     0
 10
169.821
 20
83.082
 30
0.0
 11
169.02
 21
83.082
 31
0.0
  0
LINE
  8
0
 62
     0
 10
169.02
 20
83.082
 30
0.0
 11
169.02
 21
88.882
 31
0.0
  0
LINE
  8
0
 62
     0
 10
169.02
 20
88.882
 30
0.0
 11
169.821
 21
88.882
 31
0.0
  0
LINE
  8
0
 62
     0
 10
169.821
 20
88.882
 30
0.0
 11
169.821
 21
91.9826
 31
0.0
  0
LINE
  8
0
 62
     0
 10
169.821
 20
91.9826
 30
0.0
 11
169.02
 21
91.9826
 31
0.0
  0
LINE
  8
0
 62
     0
 10
169.02
 20
91.9826
 30
0.0
 11
169.02
 21
92.9816
 31
0.0
  0
LINE
  8
0
 62
     0
 10
169.02
 20
92.9816
 30
0.0
 11
155.021
 21
92.9816
 31
0.0
  0
LINE
  8
0
 62
     0
 10
174.071
 20
92.9816
 30
0.0
 11
174.071
 21
91.9826
 31
0.0
  0
LINE
  8
0
 62
     0
 10
174.071
 20
91.9826
 30
0.0
 11
173.27
 21
91.9826
 31
0.0
  0
LINE
  8
0
 62
     0
 10
173.27
 20
91.9826
 30
0.0
 11
173.27
 21
88.882
 31
0.0
  0
LINE
  8
0
 62
     0
 10
173.27
 20
88.882
 30
0.0
 11
174.071
 21
88.882
 31
0.0
  0
LINE
  8
0
 62
     0
 10
174.071
 20
88.882
 30
0.0
 11
174.071
 21
83.082
 31
0.0
  0
LINE
  8
0
 62
     0
 10
174.071
 20
83.082
 30
0.0
 11
173.27
 21
83.082
 31
0.0
  0
LINE
  8
0
 62
     0
 10
173.27
 20
83.082
 30
0.0
 11
173.27
 21
79.9828
 31
0.0
  0
LINE
  8
0
 62
     0
 10
173.27
 20
79.9828
 30
0.0
 11
174.071
 21
79.9828
 31
0.0
  0
LINE
  8
0
 62
     0
 10
174.071
 20
79.9828
 30
0.0
 11
174.071
 21
78.9824
 31
0.0
  0
LINE
  8
0
 62
     0
 10
174.071
 20
78.9824
 30
0.0
 11
188.07
 21
78.9824
 31
0.0
  0
LINE
  8
0
 62
     0
 10
188.07
 20
78.9824
 30
0.0
 11
188.07
 21
79.9828
 31
0.0
  0
LINE
  8
0
 62
     0
 10
188.07
 20
79.9828
 30
0.0
 11
188.871
 21
79.9828
 31
0.0
  0
LINE
  8
0
 62
     0
 10
188.871
 20
79.9828
 30
0.0
 11
188.871
 21
83.082
 31
0.0
  0
LINE
  8
0
 62
     0
 10
188.871
 20
83.082
 30
0.0
 11
188.07
 21
83.082
 31
0.0
  0
LINE
  8
0
 62
     0
 10
188.07
 20
83.082
 30
0.0
 11
188.07
 21
88.882
 31
0.0
  0
LINE
  8
0
 62
     0
 10
188.07
 20
88.882
 30
0.0
 11
188.871
 21
88.882
 31
0.0
  0
LINE
  8
0
 62
     0
 10
188.871
 20
88.882
 30
0.0
 11
188.871
 21
91.9826
 31
0.0
  0
LINE
  8
0
 62
     0
 10
188.871
 20
91.9826
 30
0.0
 11
188.07
 21
91.9826
 31
0.0
  0
LINE
  8
0
 62
     0
 10
188.07
 20
91.9826
 30
0.0
 11
188.07
 21
92.9816
 31
0.0
  0
LINE
  8
0
 62
     0
 10
188.07
 20
92.9816
 30
0.0
 11
174.071
 21
92.9816
 31
0.0
  0
LINE
  8
0
 62
     0
 10
193.121
 20
92.9816
 30
0.0
 11
193.121
 21
91.9826
 31
0.0
  0
LINE
  8
0
 62
     0
 10
193.121
 20
91.9826
 30
0.0
 11
192.32
 21
91.9826
 31
0.0
  0
LINE
  8
0
 62
     0
 10
192.32
 20
91.9826
 30
0.0
 11
192.32
 21
88.882
 31
0.0
  0
LINE
  8
0
 62
     0
 10
192.32
 20
88.882
 30
0.0
 11
193.121
 21
88.882
 31
0.0
  0
LINE
  8
0
 62
     0
 10
193.121
 20
88.882
 30
0.0
 11
193.121
 21
83.082
 31
0.0
  0
LINE
  8
0
 62
     0
 10
193.121
 20
83.082
 30
0.0
 11
192.32
 21
83.082
 31
0.0
  0
LINE
  8
0
 62
     0
 10
192.32
 20
83.082
 30
0.0
 11
192.32
 21
79.9828
 31
0.0
  0
LINE
  8
0
 62
     0
 10
192.32
 20
79.9828
 30
0.0
 11
193.121
 21
79.9828
 31
0.0
  0
LINE
  8
0
 62
     0
 10
193.121
 20
79.9828
 30
0.0
 11
193.121
 21
78.9824
 31
0.0
  0
LINE
  8
0
 62
     0
 10
193.121
 20
78.9824
 30
0.0
 11
207.12
 21
78.9824
 31
0.0
  0
LINE
  8
0
 62
     0
 10
207.12
 20
78.9824
 30
0.0
 11
207.12
 21
79.9828
 31
0.0
  0
LINE
  8
0
 62
     0
 10
207.12
 20
79.9828
 30
0.0
 11
207.921
 21
79.9828
 31
0.0
  0
LINE
  8
0
 62
     0
 10
207.921
 20
79.9828
 30
0.0
 11
207.921
 21
83.082
 31
0.0
  0
LINE
  8
0
 62
     0
 10
207.921
 20
83.082
 30
0.0
 11
207.12
 21
83.082
 31
0.0
  0
LINE
  8
0
 62
     0
 10
207.12
 20
83.082
 30
0.0
 11
207.12
 21
88.882
 31
0.0
  0
LINE
  8
0
 62
     0
 10
207.12
 20
88.882
 30
0.0
 11
207.921
 21
88.882
 31
0.0
  0
LINE
  8
0
 62
     0
 10
207.921
 20
88.882
 30
0.0
 11
207.921
 21
91.9826
 31
0.0
  0
LINE
  8
0
 62
     0
 10
207.921
 20
91.9826
 30
0.0
 11
207.12
 21
91.9826
 31
0.0
  0
LINE
  8
0
 62
     0
 10
207.12
 20
91.9826
 30
0.0
 11
207.12
 21
92.9816
 31
0.0
  0
LINE
  8
0
 62
     0
 10
207.12
 20
92.9816
 30
0.0
 11
193.121
 21
92.9816
 31
0.0
  0
LINE
  8
0
 62
     0
 10
212.171
 20
92.9816
 30
0.0
 11
212.171
 21
91.9826
 31
0.0
  0
LINE
  8
0
 62
     0
 10
212.171
 20
91.9826
 30
0.0
 11
211.37
 21
91.9826
 31
0.0
  0
LINE
  8
0
 62
     0
 10
211.37
 20
91.9826
 30
0.0
 11
211.37
 21
88.882
 31
0.0
  0
LINE
  8
0
 62
     0
 10
211.37
 20
88.882
 30
0.0
 11
212.171
 21
88.882
 31
0.0
  0
LINE
  8
0
 62
     0
 10
212.171
 20
88.882
 30
0.0
 11
212.171
 21
83.082
 31
0.0
  0
LINE
  8
0
 62
     0
 10
212.171
 20
83.082
 30
0.0
 11
211.37
 21
83.082
 31
0.0
  0
LINE
  8
0
 62
     0
 10
211.37
 20
83.082
 30
0.0
 11
211.37
 21
79.9828
 31
0.0
  0
LINE
  8
0
 62
     0
 10
211.37
 20
79.9828
 30
0.0
 11
212.171
 21
79.9828
 31
0.0
  0
LINE
  8
0
 62
     0
 10
212.171
 20
79.9828
 30
0.0
 11
212.171
 21
78.9824
 31
0.0
  0
LINE
  8
0
 62
     0
 10
212.171
 20
78.9824
 30
0.0
 11
226.17
 21
78.9824
 31
0.0
  0
LINE
  8
0
 62
     0
 10
226.17
 20
78.9824
 30
0.0
 11
226.17
 21
79.9828
 31
0.0
  0
LINE
  8
0
 62
     0
 10
226.17
 20
79.9828
 30
0.0
 11
226.971
 21
79.9828
 31
0.0
  0
LINE
  8
0
 62
     0
 10
226.971
 20
79.9828
 30
0.0
 11
226.971
 21
83.082
 31
0.0
  0
LINE
  8
0
 62
     0
 10
226.971
 20
83.082
 30
0.0
 11
226.17
 21
83.082
 31
0.0
  0
LINE
  8
0
 62
     0
 10
226.17
 20
83.082
 30
0.0
 11
226.17
 21
88.882
 31
0.0
  0
LINE
  8
0
 62
     0
 10
226.17
 20
88.882
 30
0.0
 11
226.971
 21
88.882
 31
0.0
  0
LINE
  8
0
 62
     0
 10
226.971
 20
88.882
 30
0.0
 11
226.971
 21
91.9826
 31
0.0
  0
LINE
  8
0
 62
     0
 10
226.971
 20
91.9826
 30
0.0
 11
226.17
 21
91.9826
 31
0.0
  0
LINE
  8
0
 62
     0
 10
226.17
 20
91.9826
 30
0.0
 11
226.17
 21
92.9816
 31
0.0
  0
LINE
  8
0
 62
     0
 10
226.17
 20
92.9816
 30
0.0
 11
212.171
 21
92.9816
 31
0.0
  0
LINE
  8
0
 62
     0
 10
231.221
 20
92.9816
 30
0.0
 11
231.221
 21
91.9826
 31
0.0
  0
LINE
  8
0
 62
     0
 10
231.221
 20
91.9826
 30
0.0
 11
230.42
 21
91.9826
 31
0.0
  0
LINE
  8
0
 62
     0
 10
230.42
 20
91.9826
 30
0.0
 11
230.42
 21
88.882
 31
0.0
  0
LINE
  8
0
 62
     0
 10
230.42
 20
88.882
 30
0.0
 11
231.221
 21
88.882
 31
0.0
  0
LINE
  8
0
 62
     0
 10
231.221
 20
88.882
 30
0.0
 11
231.221
 21
83.082
 31
0.0
  0
LINE
  8
0
 62
     0
 10
231.221
 20
83.082
 30
0.0
 11
230.42
 21
83.082
 31
0.0
  0
LINE
  8
0
 62
     0
 10
230.42
 20
83.082
 30
0.0
 11
230.42
 21
79.9828
 31
0.0
  0
LINE
  8
0
 62
     0
 10
230.42
 20
79.9828
 30
0.0
 11
231.221
 21
79.9828
 31
0.0
  0
LINE
  8
0
 62
     0
 10
231.221
 20
79.9828
 30
0.0
 11
231.221
 21
78.9824
 31
0.0
  0
LINE
  8
0
 62
     0
 10
231.221
 20
78.9824
 30
0.0
 11
245.22
 21
78.9824
 31
0.0
  0
LINE
  8
0
 62
     0
 10
245.22
 20
78.9824
 30
0.0
 11
245.22
 21
79.9828
 31
0.0
  0
LINE
  8
0
 62
     0
 10
245.22
 20
79.9828
 30
0.0
 11
246.021
 21
79.9828
 31
0.0
  0
LINE
  8
0
 62
     0
 10
246.021
 20
79.9828
 30
0.0
 11
246.021
 21
83.082
 31
0.0
  0
LINE
  8
0
 62
     0
 10
246.021
 20
83.082
 30
0.0
 11
245.22
 21
83.082
 31
0.0
  0
LINE
  8
0
 62
     0
 10
245.22
 20
83.082
 30
0.0
 11
245.22
 21
88.882
 31
0.0
  0
LINE
  8
0
 62
     0
 10
245.22
 20
88.882
 30
0.0
 11
246.021
 21
88.882
 31
0.0
  0
LINE
  8
0
 62
     0
 10
246.021
 20
88.882
 30
0.0
 11
246.021
 21
91.9826
 31
0.0
  0
LINE
  8
0
 62
     0
 10
246.021
 20
91.9826
 30
0.0
 11
245.22
 21
91.9826
 31
0.0
  0
LINE
  8
0
 62
     0
 10
245.22
 20
91.9826
 30
0.0
 11
245.22
 21
92.9816
 31
0.0
  0
LINE
  8
0
 62
     0
 10
245.22
 20
92.9816
 30
0.0
 11
231.221
 21
92.9816
 31
0.0
  0
LINE
  8
0
 62
     0
 10
293.132
 20
92.9816
 30
0.0
 11
293.132
 21
91.9826
 31
0.0
  0
LINE
  8
0
 62
     0
 10
293.132
 20
91.9826
 30
0.0
 11
292.333
 21
91.9826
 31
0.0
  0
LINE
  8
0
 62
     0
 10
292.333
 20
91.9826
 30
0.0
 11
292.333
 21
88.882
 31
0.0
  0
LINE
  8
0
 62
     0
 10
292.333
 20
88.882
 30
0.0
 11
293.132
 21
88.882
 31
0.0
  0
LINE
  8
0
 62
     0
 10
293.132
 20
88.882
 30
0.0
 11
293.132
 21
83.082
 31
0.0
  0
LINE
  8
0
 62
     0
 10
293.132
 20
83.082
 30
0.0
 11
292.333
 21
83.082
 31
0.0
  0
LINE
  8
0
 62
     0
 10
292.333
 20
83.082
 30
0.0
 11
292.333
 21
79.9828
 31
0.0
  0
LINE
  8
0
 62
     0
 10
292.333
 20
79.9828
 30
0.0
 11
293.132
 21
79.9828
 31
0.0
  0
LINE
  8
0
 62
     0
 10
293.132
 20
79.9828
 30
0.0
 11
293.132
 21
78.9824
 31
0.0
  0
LINE
  8
0
 62
     0
 10
293.132
 20
78.9824
 30
0.0
 11
307.133
 21
78.9824
 31
0.0
  0
LINE
  8
0
 62
     0
 10
307.133
 20
78.9824
 30
0.0
 11
307.133
 21
79.9828
 31
0.0
  0
LINE
  8
0
 62
     0
 10
307.133
 20
79.9828
 30
0.0
 11
307.932
 21
79.9828
 31
0.0
  0
LINE
  8
0
 62
     0
 10
307.932
 20
79.9828
 30
0.0
 11
307.932
 21
83.082
 31
0.0
  0
LINE
  8
0
 62
     0
 10
307.932
 20
83.082
 30
0.0
 11
307.133
 21
83.082
 31
0.0
  0
LINE
  8
0
 62
     0
 10
307.133
 20
83.082
 30
0.0
 11
307.133
 21
88.882
 31
0.0
  0
LINE
  8
0
 62
     0
 10
307.133
 20
88.882
 30
0.0
 11
307.932
 21
88.882
 31
0.0
  0
LINE
  8
0
 62
     0
 10
307.932
 20
88.882
 30
0.0
 11
307.932
 21
91.9826
 31
0.0
  0
LINE
  8
0
 62
     0
 10
307.932
 20
91.9826
 30
0.0
 11
307.133
 21
91.9826
 31
0.0
  0
LINE
  8
0
 62
     0
 10
307.133
 20
91.9826
 30
0.0
 11
307.133
 21
92.9816
 31
0.0
  0
LINE
  8
0
 62
     0
 10
307.133
 20
92.9816
 30
0.0
 11
293.132
 21
92.9816
 31
0.0
  0
LINE
  8
0
 62
     0
 10
312.182
 20
92.9816
 30
0.0
 11
312.182
 21
91.9826
 31
0.0
  0
LINE
  8
0
 62
     0
 10
312.182
 20
91.9826
 30
0.0
 11
311.383
 21
91.9826
 31
0.0
  0
LINE
  8
0
 62
     0
 10
311.383
 20
91.9826
 30
0.0
 11
311.383
 21
88.882
 31
0.0
  0
LINE
  8
0
 62
     0
 10
311.383
 20
88.882
 30
0.0
 11
312.182
 21
88.882
 31
0.0
  0
LINE
  8
0
 62
     0
 10
312.182
 20
88.882
 30
0.0
 11
312.182
 21
83.082
 31
0.0
  0
LINE
  8
0
 62
     0
 10
312.182
 20
83.082
 30
0.0
 11
311.383
 21
83.082
 31
0.0
  0
LINE
  8
0
 62
     0
 10
311.383
 20
83.082
 30
0.0
 11
311.383
 21
79.9828
 31
0.0
  0
LINE
  8
0
 62
     0
 10
311.383
 20
79.9828
 30
0.0
 11
312.182
 21
79.9828
 31
0.0
  0
LINE
  8
0
 62
     0
 10
312.182
 20
79.9828
 30
0.0
 11
312.182
 21
78.9824
 31
0.0
  0
LINE
  8
0
 62
     0
 10
312.182
 20
78.9824
 30
0.0
 11
326.183
 21
78.9824
 31
0.0
  0
LINE
  8
0
 62
     0
 10
326.183
 20
78.9824
 30
0.0
 11
326.183
 21
79.9828
 31
0.0
  0
LINE
  8
0
 62
     0
 10
326.183
 20
79.9828
 30
0.0
 11
326.982
 21
79.9828
 31
0.0
  0
LINE
  8
0
 62
     0
 10
326.982
 20
79.9828
 30
0.0
 11
326.982
 21
83.082
 31
0.0
  0
LINE
  8
0
 62
     0
 10
326.982
 20
83.082
 30
0.0
 11
326.183
 21
83.082
 31
0.0
  0
LINE
  8
0
 62
     0
 10
326.183
 20
83.082
 30
0.0
 11
326.183
 21
88.882
 31
0.0
  0
LINE
  8
0
 62
     0
 10
326.183
 20
88.882
 30
0.0
 11
326.982
 21
88.882
 31
0.0
  0
LINE
  8
0
 62
     0
 10
326.982
 20
88.882
 30
0.0
 11
326.982
 21
91.9826
 31
0.0
  0
LINE
  8
0
 62
     0
 10
326.982
 20
91.9826
 30
0.0
 11
326.183
 21
91.9826
 31
0.0
  0
LINE
  8
0
 62
     0
 10
326.183
 20
91.9826
 30
0.0
 11
326.183
 21
92.9816
 31
0.0
  0
LINE
  8
0
 62
     0
 10
326.183
 20
92.9816
 30
0.0
 11
312.182
 21
92.9816
 31
0.0
  0
LINE
  8
0
 62
     0
 10
331.232
 20
92.9816
 30
0.0
 11
331.232
 21
91.9826
 31
0.0
  0
LINE
  8
0
 62
     0
 10
331.232
 20
91.9826
 30
0.0
 11
330.433
 21
91.9826
 31
0.0
  0
LINE
  8
0
 62
     0
 10
330.433
 20
91.9826
 30
0.0
 11
330.433
 21
88.882
 31
0.0
  0
LINE
  8
0
 62
     0
 10
330.433
 20
88.882
 30
0.0
 11
331.232
 21
88.882
 31
0.0
  0
LINE
  8
0
 62
     0
 10
331.232
 20
88.882
 30
0.0
 11
331.232
 21
83.082
 31
0.0
  0
LINE
  8
0
 62
     0
 10
331.232
 20
83.082
 30
0.0
 11
330.433
 21
83.082
 31
0.0
  0
LINE
  8
0
 62
     0
 10
330.433
 20
83.082
 30
0.0
 11
330.433
 21
79.9828
 31
0.0
  0
LINE
  8
0
 62
     0
 10
330.433
 20
79.9828
 30
0.0
 11
331.232
 21
79.9828
 31
0.0
  0
LINE
  8
0
 62
     0
 10
331.232
 20
79.9828
 30
0.0
 11
331.232
 21
78.9824
 31
0.0
  0
LINE
  8
0
 62
     0
 10
331.232
 20
78.9824
 30
0.0
 11
345.233
 21
78.9824
 31
0.0
  0
LINE
  8
0
 62
     0
 10
345.233
 20
78.9824
 30
0.0
 11
345.233
 21
79.9828
 31
0.0
  0
LINE
  8
0
 62
     0
 10
345.233
 20
79.9828
 30
0.0
 11
346.032
 21
79.9828
 31
0.0
  0
LINE
  8
0
 62
     0
 10
346.032
 20
79.9828
 30
0.0
 11
346.032
 21
83.082
 31
0.0
  0
LINE
  8
0
 62
     0
 10
346.032
 20
83.082
 30
0.0
 11
345.233
 21
83.082
 31
0.0
  0
LINE
  8
0
 62
     0
 10
345.233
 20
83.082
 30
0.0
 11
345.233
 21
88.882
 31
0.0
  0
LINE
  8
0
 62
     0
 10
345.233
 20
88.882
 30
0.0
 11
346.032
 21
88.882
 31
0.0
  0
LINE
  8
0
 62
     0
 10
346.032
 20
88.882
 30
0.0
 11
346.032
 21
91.9826
 31
0.0
  0
LINE
  8
0
 62
     0
 10
346.032
 20
91.9826
 30
0.0
 11
345.233
 21
91.9826
 31
0.0
  0
LINE
  8
0
 62
     0
 10
345.233
 20
91.9826
 30
0.0
 11
345.233
 21
92.9816
 31
0.0
  0
LINE
  8
0
 62
     0
 10
345.233
 20
92.9816
 30
0.0
 11
331.232
 21
92.9816
 31
0.0
  0
LINE
  8
0
 62
     0
 10
355.046
 20
92.9816
 30
0.0
 11
355.046
 21
91.9826
 31
0.0
  0
LINE
  8
0
 62
     0
 10
355.046
 20
91.9826
 30
0.0
 11
354.245
 21
91.9826
 31
0.0
  0
LINE
  8
0
 62
     0
 10
354.245
 20
91.9826
 30
0.0
 11
354.245
 21
88.882
 31
0.0
  0
LINE
  8
0
 62
     0
 10
354.245
 20
88.882
 30
0.0
 11
355.046
 21
88.882
 31
0.0
  0
LINE
  8
0
 62
     0
 10
355.046
 20
88.882
 30
0.0
 11
355.046
 21
83.082
 31
0.0
  0
LINE
  8
0
 62
     0
 10
355.046
 20
83.082
 30
0.0
 11
354.245
 21
83.082
 31
0.0
  0
LINE
  8
0
 62
     0
 10
354.245
 20
83.082
 30
0.0
 11
354.245
 21
79.9828
 31
0.0
  0
LINE
  8
0
 62
     0
 10
354.245
 20
79.9828
 30
0.0
 11
355.046
 21
79.9828
 31
0.0
  0
LINE
  8
0
 62
     0
 10
355.046
 20
79.9828
 30
0.0
 11
355.046
 21
78.9824
 31
0.0
  0
LINE
  8
0
 62
     0
 10
355.046
 20
78.9824
 30
0.0
 11
369.044
 21
78.9824
 31
0.0
  0
LINE
  8
0
 62
     0
 10
369.044
 20
78.9824
 30
0.0
 11
369.044
 21
79.9828
 31
0.0
  0
LINE
  8
0
 62
     0
 10
369.044
 20
79.9828
 30
0.0
 11
369.845
 21
79.9828
 31
0.0
  0
LINE
  8
0
 62
     0
 10
369.845
 20
79.9828
 30
0.0
 11
369.845
 21
83.082
 31
0.0
  0
LINE
  8
0
 62
     0
 10
369.845
 20
83.082
 30
0.0
 11
369.044
 21
83.082
 31
0.0
  0
LINE
  8
0
 62
     0
 10
369.044
 20
83.082
 30
0.0
 11
369.044
 21
88.882
 31
0.0
  0
LINE
  8
0
 62
     0
 10
369.044
 20
88.882
 30
0.0
 11
369.845
 21
88.882
 31
0.0
  0
LINE
  8
0
 62
     0
 10
369.845
 20
88.882
 30
0.0
 11
369.845
 21
91.9826
 31
0.0
  0
LINE
  8
0
 62
     0
 10
369.845
 20
91.9826
 30
0.0
 11
369.044
 21
91.9826
 31
0.0
  0
LINE
  8
0
 62
     0
 10
369.044
 20
91.9826
 30
0.0
 11
369.044
 21
92.9816
 31
0.0
  0
LINE
  8
0
 62
     0
 10
369.044
 20
92.9816
 30
0.0
 11
355.046
 21
92.9816
 31
0.0
  0
LINE
  8
0
 62
     0
 10
2.62103
 20
121.557
 30
0.0
 11
2.62103
 21
120.558
 31
0.0
  0
LINE
  8
0
 62
     0
 10
2.62103
 20
120.558
 30
0.0
 11
1.82039
 21
120.558
 31
0.0
  0
LINE
  8
0
 62
     0
 10
1.82039
 20
120.558
 30
0.0
 11
1.82039
 21
117.457
 31
0.0
  0
LINE
  8
0
 62
     0
 10
1.82039
 20
117.457
 30
0.0
 11
2.62103
 21
117.457
 31
0.0
  0
LINE
  8
0
 62
     0
 10
2.62103
 20
117.457
 30
0.0
 11
2.62103
 21
111.657
 31
0.0
  0
LINE
  8
0
 62
     0
 10
2.62103
 20
111.657
 30
0.0
 11
1.82039
 21
111.657
 31
0.0
  0
LINE
  8
0
 62
     0
 10
1.82039
 20
111.657
 30
0.0
 11
1.82039
 21
108.558
 31
0.0
  0
LINE
  8
0
 62
     0
 10
1.82039
 20
108.558
 30
0.0
 11
2.62103
 21
108.558
 31
0.0
  0
LINE
  8
0
 62
     0
 10
2.62103
 20
108.558
 30
0.0
 11
2.62103
 21
107.557
 31
0.0
  0
LINE
  8
0
 62
     0
 10
2.62103
 20
107.557
 30
0.0
 11
16.6205
 21
107.557
 31
0.0
  0
LINE
  8
0
 62
     0
 10
16.6205
 20
107.557
 30
0.0
 11
16.6205
 21
108.558
 31
0.0
  0
LINE
  8
0
 62
     0
 10
16.6205
 20
108.558
 30
0.0
 11
17.4212
 21
108.558
 31
0.0
  0
LINE
  8
0
 62
     0
 10
17.4212
 20
108.558
 30
0.0
 11
17.4212
 21
111.657
 31
0.0
  0
LINE
  8
0
 62
     0
 10
17.4212
 20
111.657
 30
0.0
 11
16.6205
 21
111.657
 31
0.0
  0
LINE
  8
0
 62
     0
 10
16.6205
 20
111.657
 30
0.0
 11
16.6205
 21
117.457
 31
0.0
  0
LINE
  8
0
 62
     0
 10
16.6205
 20
117.457
 30
0.0
 11
17.4212
 21
117.457
 31
0.0
  0
LINE
  8
0
 62
     0
 10
17.4212
 20
117.457
 30
0.0
 11
17.4212
 21
120.558
 31
0.0
  0
LINE
  8
0
 62
     0
 10
17.4212
 20
120.558
 30
0.0
 11
16.6205
 21
120.558
 31
0.0
  0
LINE
  8
0
 62
     0
 10
16.6205
 20
120.558
 30
0.0
 11
16.6205
 21
121.557
 31
0.0
  0
LINE
  8
0
 62
     0
 10
16.6205
 20
121.557
 30
0.0
 11
2.62103
 21
121.557
 31
0.0
  0
LINE
  8
0
 62
     0
 10
40.7211
 20
121.557
 30
0.0
 11
40.7211
 21
120.558
 31
0.0
  0
LINE
  8
0
 62
     0
 10
40.7211
 20
120.558
 30
0.0
 11
39.9203
 21
120.558
 31
0.0
  0
LINE
  8
0
 62
     0
 10
39.9203
 20
120.558
 30
0.0
 11
39.9203
 21
117.457
 31
0.0
  0
LINE
  8
0
 62
     0
 10
39.9203
 20
117.457
 30
0.0
 11
40.7211
 21
117.457
 31
0.0
  0
LINE
  8
0
 62
     0
 10
40.7211
 20
117.457
 30
0.0
 11
40.7211
 21
111.657
 31
0.0
  0
LINE
  8
0
 62
     0
 10
40.7211
 20
111.657
 30
0.0
 11
39.9203
 21
111.657
 31
0.0
  0
LINE
  8
0
 62
     0
 10
39.9203
 20
111.657
 30
0.0
 11
39.9203
 21
108.558
 31
0.0
  0
LINE
  8
0
 62
     0
 10
39.9203
 20
108.558
 30
0.0
 11
40.7211
 21
108.558
 31
0.0
  0
LINE
  8
0
 62
     0
 10
40.7211
 20
108.558
 30
0.0
 11
40.7211
 21
107.557
 31
0.0
  0
LINE
  8
0
 62
     0
 10
40.7211
 20
107.557
 30
0.0
 11
54.7204
 21
107.557
 31
0.0
  0
LINE
  8
0
 62
     0
 10
54.7204
 20
107.557
 30
0.0
 11
54.7204
 21
108.558
 31
0.0
  0
LINE
  8
0
 62
     0
 10
54.7204
 20
108.558
 30
0.0
 11
55.5212
 21
108.558
 31
0.0
  0
LINE
  8
0
 62
     0
 10
55.5212
 20
108.558
 30
0.0
 11
55.5212
 21
111.657
 31
0.0
  0
LINE
  8
0
 62
     0
 10
55.5212
 20
111.657
 30
0.0
 11
54.7204
 21
111.657
 31
0.0
  0
LINE
  8
0
 62
     0
 10
54.7204
 20
111.657
 30
0.0
 11
54.7204
 21
117.457
 31
0.0
  0
LINE
  8
0
 62
     0
 10
54.7204
 20
117.457
 30
0.0
 11
55.5212
 21
117.457
 31
0.0
  0
LINE
  8
0
 62
     0
 10
55.5212
 20
117.457
 30
0.0
 11
55.5212
 21
120.558
 31
0.0
  0
LINE
  8
0
 62
     0
 10
55.5212
 20
120.558
 30
0.0
 11
54.7204
 21
120.558
 31
0.0
  0
LINE
  8
0
 62
     0
 10
54.7204
 20
120.558
 30
0.0
 11
54.7204
 21
121.557
 31
0.0
  0
LINE
  8
0
 62
     0
 10
54.7204
 20
121.557
 30
0.0
 11
40.7211
 21
121.557
 31
0.0
  0
LINE
  8
0
 62
     0
 10
59.7711
 20
121.557
 30
0.0
 11
59.7711
 21
120.558
 31
0.0
  0
LINE
  8
0
 62
     0
 10
59.7711
 20
120.558
 30
0.0
 11
58.9703
 21
120.558
 31
0.0
  0
LINE
  8
0
 62
     0
 10
58.9703
 20
120.558
 30
0.0
 11
58.9703
 21
117.457
 31
0.0
  0
LINE
  8
0
 62
     0
 10
58.9703
 20
117.457
 30
0.0
 11
59.7711
 21
117.457
 31
0.0
  0
LINE
  8
0
 62
     0
 10
59.7711
 20
117.457
 30
0.0
 11
59.7711
 21
111.657
 31
0.0
  0
LINE
  8
0
 62
     0
 10
59.7711
 20
111.657
 30
0.0
 11
58.9703
 21
111.657
 31
0.0
  0
LINE
  8
0
 62
     0
 10
58.9703
 20
111.657
 30
0.0
 11
58.9703
 21
108.558
 31
0.0
  0
LINE
  8
0
 62
     0
 10
58.9703
 20
108.558
 30
0.0
 11
59.7711
 21
108.558
 31
0.0
  0
LINE
  8
0
 62
     0
 10
59.7711
 20
108.558
 30
0.0
 11
59.7711
 21
107.557
 31
0.0
  0
LINE
  8
0
 62
     0
 10
59.7711
 20
107.557
 30
0.0
 11
73.7704
 21
107.557
 31
0.0
  0
LINE
  8
0
 62
     0
 10
73.7704
 20
107.557
 30
0.0
 11
73.7704
 21
108.558
 31
0.0
  0
LINE
  8
0
 62
     0
 10
73.7704
 20
108.558
 30
0.0
 11
74.5712
 21
108.558
 31
0.0
  0
LINE
  8
0
 62
     0
 10
74.5712
 20
108.558
 30
0.0
 11
74.5712
 21
111.657
 31
0.0
  0
LINE
  8
0
 62
     0
 10
74.5712
 20
111.657
 30
0.0
 11
73.7704
 21
111.657
 31
0.0
  0
LINE
  8
0
 62
     0
 10
73.7704
 20
111.657
 30
0.0
 11
73.7704
 21
117.457
 31
0.0
  0
LINE
  8
0
 62
     0
 10
73.7704
 20
117.457
 30
0.0
 11
74.5712
 21
117.457
 31
0.0
  0
LINE
  8
0
 62
     0
 10
74.5712
 20
117.457
 30
0.0
 11
74.5712
 21
120.558
 31
0.0
  0
LINE
  8
0
 62
     0
 10
74.5712
 20
120.558
 30
0.0
 11
73.7704
 21
120.558
 31
0.0
  0
LINE
  8
0
 62
     0
 10
73.7704
 20
120.558
 30
0.0
 11
73.7704
 21
121.557
 31
0.0
  0
LINE
  8
0
 62
     0
 10
73.7704
 20
121.557
 30
0.0
 11
59.7711
 21
121.557
 31
0.0
  0
LINE
  8
0
 62
     0
 10
78.8211
 20
121.557
 30
0.0
 11
78.8211
 21
120.558
 31
0.0
  0
LINE
  8
0
 62
     0
 10
78.8211
 20
120.558
 30
0.0
 11
78.0203
 21
120.558
 31
0.0
  0
LINE
  8
0
 62
     0
 10
78.0203
 20
120.558
 30
0.0
 11
78.0203
 21
117.457
 31
0.0
  0
LINE
  8
0
 62
     0
 10
78.0203
 20
117.457
 30
0.0
 11
78.8211
 21
117.457
 31
0.0
  0
LINE
  8
0
 62
     0
 10
78.8211
 20
117.457
 30
0.0
 11
78.8211
 21
111.657
 31
0.0
  0
LINE
  8
0
 62
     0
 10
78.8211
 20
111.657
 30
0.0
 11
78.0203
 21
111.657
 31
0.0
  0
LINE
  8
0
 62
     0
 10
78.0203
 20
111.657
 30
0.0
 11
78.0203
 21
108.558
 31
0.0
  0
LINE
  8
0
 62
     0
 10
78.0203
 20
108.558
 30
0.0
 11
78.8211
 21
108.558
 31
0.0
  0
LINE
  8
0
 62
     0
 10
78.8211
 20
108.558
 30
0.0
 11
78.8211
 21
107.557
 31
0.0
  0
LINE
  8
0
 62
     0
 10
78.8211
 20
107.557
 30
0.0
 11
92.8204
 21
107.557
 31
0.0
  0
LINE
  8
0
 62
     0
 10
92.8204
 20
107.557
 30
0.0
 11
92.8204
 21
108.558
 31
0.0
  0
LINE
  8
0
 62
     0
 10
92.8204
 20
108.558
 30
0.0
 11
93.6198
 21
108.558
 31
0.0
  0
LINE
  8
0
 62
     0
 10
93.6198
 20
108.558
 30
0.0
 11
93.6198
 21
111.657
 31
0.0
  0
LINE
  8
0
 62
     0
 10
93.6198
 20
111.657
 30
0.0
 11
92.8204
 21
111.657
 31
0.0
  0
LINE
  8
0
 62
     0
 10
92.8204
 20
111.657
 30
0.0
 11
92.8204
 21
117.457
 31
0.0
  0
LINE
  8
0
 62
     0
 10
92.8204
 20
117.457
 30
0.0
 11
93.6198
 21
117.457
 31
0.0
  0
LINE
  8
0
 62
     0
 10
93.6198
 20
117.457
 30
0.0
 11
93.6198
 21
120.558
 31
0.0
  0
LINE
  8
0
 62
     0
 10
93.6198
 20
120.558
 30
0.0
 11
92.8204
 21
120.558
 31
0.0
  0
LINE
  8
0
 62
     0
 10
92.8204
 20
120.558
 30
0.0
 11
92.8204
 21
121.557
 31
0.0
  0
LINE
  8
0
 62
     0
 10
92.8204
 20
121.557
 30
0.0
 11
78.8211
 21
121.557
 31
0.0
  0
LINE
  8
0
 62
     0
 10
97.8697
 20
121.557
 30
0.0
 11
97.8697
 21
120.558
 31
0.0
  0
LINE
  8
0
 62
     0
 10
97.8697
 20
120.558
 30
0.0
 11
97.0703
 21
120.558
 31
0.0
  0
LINE
  8
0
 62
     0
 10
97.0703
 20
120.558
 30
0.0
 11
97.0703
 21
117.457
 31
0.0
  0
LINE
  8
0
 62
     0
 10
97.0703
 20
117.457
 30
0.0
 11
97.8697
 21
117.457
 31
0.0
  0
LINE
  8
0
 62
     0
 10
97.8697
 20
117.457
 30
0.0
 11
97.8697
 21
111.657
 31
0.0
  0
LINE
  8
0
 62
     0
 10
97.8697
 20
111.657
 30
0.0
 11
97.0703
 21
111.657
 31
0.0
  0
LINE
  8
0
 62
     0
 10
97.0703
 20
111.657
 30
0.0
 11
97.0703
 21
108.558
 31
0.0
  0
LINE
  8
0
 62
     0
 10
97.0703
 20
108.558
 30
0.0
 11
97.8697
 21
108.558
 31
0.0
  0
LINE
  8
0
 62
     0
 10
97.8697
 20
108.558
 30
0.0
 11
97.8697
 21
107.557
 31
0.0
  0
LINE
  8
0
 62
     0
 10
97.8697
 20
107.557
 30
0.0
 11
111.869
 21
107.557
 31
0.0
  0
LINE
  8
0
 62
     0
 10
111.869
 20
107.557
 30
0.0
 11
111.869
 21
108.558
 31
0.0
  0
LINE
  8
0
 62
     0
 10
111.869
 20
108.558
 30
0.0
 11
112.67
 21
108.558
 31
0.0
  0
LINE
  8
0
 62
     0
 10
112.67
 20
108.558
 30
0.0
 11
112.67
 21
111.657
 31
0.0
  0
LINE
  8
0
 62
     0
 10
112.67
 20
111.657
 30
0.0
 11
111.869
 21
111.657
 31
0.0
  0
LINE
  8
0
 62
     0
 10
111.869
 20
111.657
 30
0.0
 11
111.869
 21
117.457
 31
0.0
  0
LINE
  8
0
 62
     0
 10
111.869
 20
117.457
 30
0.0
 11
112.67
 21
117.457
 31
0.0
  0
LINE
  8
0
 62
     0
 10
112.67
 20
117.457
 30
0.0
 11
112.67
 21
120.558
 31
0.0
  0
LINE
  8
0
 62
     0
 10
112.67
 20
120.558
 30
0.0
 11
111.869
 21
120.558
 31
0.0
  0
LINE
  8
0
 62
     0
 10
111.869
 20
120.558
 30
0.0
 11
111.869
 21
121.557
 31
0.0
  0
LINE
  8
0
 62
     0
 10
111.869
 20
121.557
 30
0.0
 11
97.8697
 21
121.557
 31
0.0
  0
LINE
  8
0
 62
     0
 10
126.446
 20
121.557
 30
0.0
 11
126.446
 21
120.558
 31
0.0
  0
LINE
  8
0
 62
     0
 10
126.446
 20
120.558
 30
0.0
 11
125.644
 21
120.558
 31
0.0
  0
LINE
  8
0
 62
     0
 10
125.644
 20
120.558
 30
0.0
 11
125.644
 21
117.457
 31
0.0
  0
LINE
  8
0
 62
     0
 10
125.644
 20
117.457
 30
0.0
 11
126.446
 21
117.457
 31
0.0
  0
LINE
  8
0
 62
     0
 10
126.446
 20
117.457
 30
0.0
 11
126.446
 21
111.657
 31
0.0
  0
LINE
  8
0
 62
     0
 10
126.446
 20
111.657
 30
0.0
 11
125.644
 21
111.657
 31
0.0
  0
LINE
  8
0
 62
     0
 10
125.644
 20
111.657
 30
0.0
 11
125.644
 21
108.558
 31
0.0
  0
LINE
  8
0
 62
     0
 10
125.644
 20
108.558
 30
0.0
 11
126.446
 21
108.558
 31
0.0
  0
LINE
  8
0
 62
     0
 10
126.446
 20
108.558
 30
0.0
 11
126.446
 21
107.557
 31
0.0
  0
LINE
  8
0
 62
     0
 10
126.446
 20
107.557
 30
0.0
 11
140.445
 21
107.557
 31
0.0
  0
LINE
  8
0
 62
     0
 10
140.445
 20
107.557
 30
0.0
 11
140.445
 21
108.558
 31
0.0
  0
LINE
  8
0
 62
     0
 10
140.445
 20
108.558
 30
0.0
 11
141.246
 21
108.558
 31
0.0
  0
LINE
  8
0
 62
     0
 10
141.246
 20
108.558
 30
0.0
 11
141.246
 21
111.657
 31
0.0
  0
LINE
  8
0
 62
     0
 10
141.246
 20
111.657
 30
0.0
 11
140.445
 21
111.657
 31
0.0
  0
LINE
  8
0
 62
     0
 10
140.445
 20
111.657
 30
0.0
 11
140.445
 21
117.457
 31
0.0
  0
LINE
  8
0
 62
     0
 10
140.445
 20
117.457
 30
0.0
 11
141.246
 21
117.457
 31
0.0
  0
LINE
  8
0
 62
     0
 10
141.246
 20
117.457
 30
0.0
 11
141.246
 21
120.558
 31
0.0
  0
LINE
  8
0
 62
     0
 10
141.246
 20
120.558
 30
0.0
 11
140.445
 21
120.558
 31
0.0
  0
LINE
  8
0
 62
     0
 10
140.445
 20
120.558
 30
0.0
 11
140.445
 21
121.557
 31
0.0
  0
LINE
  8
0
 62
     0
 10
140.445
 20
121.557
 30
0.0
 11
126.446
 21
121.557
 31
0.0
  0
LINE
  8
0
 62
     0
 10
145.496
 20
121.557
 30
0.0
 11
145.496
 21
120.558
 31
0.0
  0
LINE
  8
0
 62
     0
 10
145.496
 20
120.558
 30
0.0
 11
144.695
 21
120.558
 31
0.0
  0
LINE
  8
0
 62
     0
 10
144.695
 20
120.558
 30
0.0
 11
144.695
 21
117.457
 31
0.0
  0
LINE
  8
0
 62
     0
 10
144.695
 20
117.457
 30
0.0
 11
145.496
 21
117.457
 31
0.0
  0
LINE
  8
0
 62
     0
 10
145.496
 20
117.457
 30
0.0
 11
145.496
 21
111.657
 31
0.0
  0
LINE
  8
0
 62
     0
 10
145.496
 20
111.657
 30
0.0
 11
144.695
 21
111.657
 31
0.0
  0
LINE
  8
0
 62
     0
 10
144.695
 20
111.657
 30
0.0
 11
144.695
 21
108.558
 31
0.0
  0
LINE
  8
0
 62
     0
 10
144.695
 20
108.558
 30
0.0
 11
145.496
 21
108.558
 31
0.0
  0
LINE
  8
0
 62
     0
 10
145.496
 20
108.558
 30
0.0
 11
145.496
 21
107.557
 31
0.0
  0
LINE
  8
0
 62
     0
 10
145.496
 20
107.557
 30
0.0
 11
159.495
 21
107.557
 31
0.0
  0
LINE
  8
0
 62
     0
 10
159.495
 20
107.557
 30
0.0
 11
159.495
 21
108.558
 31
0.0
  0
LINE
  8
0
 62
     0
 10
159.495
 20
108.558
 30
0.0
 11
160.296
 21
108.558
 31
0.0
  0
LINE
  8
0
 62
     0
 10
160.296
 20
108.558
 30
0.0
 11
160.296
 21
111.657
 31
0.0
  0
LINE
  8
0
 62
     0
 10
160.296
 20
111.657
 30
0.0
 11
159.495
 21
111.657
 31
0.0
  0
LINE
  8
0
 62
     0
 10
159.495
 20
111.657
 30
0.0
 11
159.495
 21
117.457
 31
0.0
  0
LINE
  8
0
 62
     0
 10
159.495
 20
117.457
 30
0.0
 11
160.296
 21
117.457
 31
0.0
  0
LINE
  8
0
 62
     0
 10
160.296
 20
117.457
 30
0.0
 11
160.296
 21
120.558
 31
0.0
  0
LINE
  8
0
 62
     0
 10
160.296
 20
120.558
 30
0.0
 11
159.495
 21
120.558
 31
0.0
  0
LINE
  8
0
 62
     0
 10
159.495
 20
120.558
 30
0.0
 11
159.495
 21
121.557
 31
0.0
  0
LINE
  8
0
 62
     0
 10
159.495
 20
121.557
 30
0.0
 11
145.496
 21
121.557
 31
0.0
  0
LINE
  8
0
 62
     0
 10
164.546
 20
121.557
 30
0.0
 11
164.546
 21
120.558
 31
0.0
  0
LINE
  8
0
 62
     0
 10
164.546
 20
120.558
 30
0.0
 11
163.745
 21
120.558
 31
0.0
  0
LINE
  8
0
 62
     0
 10
163.745
 20
120.558
 30
0.0
 11
163.745
 21
117.457
 31
0.0
  0
LINE
  8
0
 62
     0
 10
163.745
 20
117.457
 30
0.0
 11
164.546
 21
117.457
 31
0.0
  0
LINE
  8
0
 62
     0
 10
164.546
 20
117.457
 30
0.0
 11
164.546
 21
111.657
 31
0.0
  0
LINE
  8
0
 62
     0
 10
164.546
 20
111.657
 30
0.0
 11
163.745
 21
111.657
 31
0.0
  0
LINE
  8
0
 62
     0
 10
163.745
 20
111.657
 30
0.0
 11
163.745
 21
108.558
 31
0.0
  0
LINE
  8
0
 62
     0
 10
163.745
 20
108.558
 30
0.0
 11
164.546
 21
108.558
 31
0.0
  0
LINE
  8
0
 62
     0
 10
164.546
 20
108.558
 30
0.0
 11
164.546
 21
107.557
 31
0.0
  0
LINE
  8
0
 62
     0
 10
164.546
 20
107.557
 30
0.0
 11
178.545
 21
107.557
 31
0.0
  0
LINE
  8
0
 62
     0
 10
178.545
 20
107.557
 30
0.0
 11
178.545
 21
108.558
 31
0.0
  0
LINE
  8
0
 62
     0
 10
178.545
 20
108.558
 30
0.0
 11
179.346
 21
108.558
 31
0.0
  0
LINE
  8
0
 62
     0
 10
179.346
 20
108.558
 30
0.0
 11
179.346
 21
111.657
 31
0.0
  0
LINE
  8
0
 62
     0
 10
179.346
 20
111.657
 30
0.0
 11
178.545
 21
111.657
 31
0.0
  0
LINE
  8
0
 62
     0
 10
178.545
 20
111.657
 30
0.0
 11
178.545
 21
117.457
 31
0.0
  0
LINE
  8
0
 62
     0
 10
178.545
 20
117.457
 30
0.0
 11
179.346
 21
117.457
 31
0.0
  0
LINE
  8
0
 62
     0
 10
179.346
 20
117.457
 30
0.0
 11
179.346
 21
120.558
 31
0.0
  0
LINE
  8
0
 62
     0
 10
179.346
 20
120.558
 30
0.0
 11
178.545
 21
120.558
 31
0.0
  0
LINE
  8
0
 62
     0
 10
178.545
 20
120.558
 30
0.0
 11
178.545
 21
121.557
 31
0.0
  0
LINE
  8
0
 62
     0
 10
178.545
 20
121.557
 30
0.0
 11
164.546
 21
121.557
 31
0.0
  0
LINE
  8
0
 62
     0
 10
183.596
 20
121.557
 30
0.0
 11
183.596
 21
120.558
 31
0.0
  0
LINE
  8
0
 62
     0
 10
183.596
 20
120.558
 30
0.0
 11
182.795
 21
120.558
 31
0.0
  0
LINE
  8
0
 62
     0
 10
182.795
 20
120.558
 30
0.0
 11
182.795
 21
117.457
 31
0.0
  0
LINE
  8
0
 62
     0
 10
182.795
 20
117.457
 30
0.0
 11
183.596
 21
117.457
 31
0.0
  0
LINE
  8
0
 62
     0
 10
183.596
 20
117.457
 30
0.0
 11
183.596
 21
111.657
 31
0.0
  0
LINE
  8
0
 62
     0
 10
183.596
 20
111.657
 30
0.0
 11
182.795
 21
111.657
 31
0.0
  0
LINE
  8
0
 62
     0
 10
182.795
 20
111.657
 30
0.0
 11
182.795
 21
108.558
 31
0.0
  0
LINE
  8
0
 62
     0
 10
182.795
 20
108.558
 30
0.0
 11
183.596
 21
108.558
 31
0.0
  0
LINE
  8
0
 62
     0
 10
183.596
 20
108.558
 30
0.0
 11
183.596
 21
107.557
 31
0.0
  0
LINE
  8
0
 62
     0
 10
183.596
 20
107.557
 30
0.0
 11
197.595
 21
107.557
 31
0.0
  0
LINE
  8
0
 62
     0
 10
197.595
 20
107.557
 30
0.0
 11
197.595
 21
108.558
 31
0.0
  0
LINE
  8
0
 62
     0
 10
197.595
 20
108.558
 30
0.0
 11
198.396
 21
108.558
 31
0.0
  0
LINE
  8
0
 62
     0
 10
198.396
 20
108.558
 30
0.0
 11
198.396
 21
111.657
 31
0.0
  0
LINE
  8
0
 62
     0
 10
198.396
 20
111.657
 30
0.0
 11
197.595
 21
111.657
 31
0.0
  0
LINE
  8
0
 62
     0
 10
197.595
 20
111.657
 30
0.0
 11
197.595
 21
117.457
 31
0.0
  0
LINE
  8
0
 62
     0
 10
197.595
 20
117.457
 30
0.0
 11
198.396
 21
117.457
 31
0.0
  0
LINE
  8
0
 62
     0
 10
198.396
 20
117.457
 30
0.0
 11
198.396
 21
120.558
 31
0.0
  0
LINE
  8
0
 62
     0
 10
198.396
 20
120.558
 30
0.0
 11
197.595
 21
120.558
 31
0.0
  0
LINE
  8
0
 62
     0
 10
197.595
 20
120.558
 30
0.0
 11
197.595
 21
121.557
 31
0.0
  0
LINE
  8
0
 62
     0
 10
197.595
 20
121.557
 30
0.0
 11
183.596
 21
121.557
 31
0.0
  0
LINE
  8
0
 62
     0
 10
212.171
 20
121.557
 30
0.0
 11
212.171
 21
120.558
 31
0.0
  0
LINE
  8
0
 62
     0
 10
212.171
 20
120.558
 30
0.0
 11
211.37
 21
120.558
 31
0.0
  0
LINE
  8
0
 62
     0
 10
211.37
 20
120.558
 30
0.0
 11
211.37
 21
117.457
 31
0.0
  0
LINE
  8
0
 62
     0
 10
211.37
 20
117.457
 30
0.0
 11
212.171
 21
117.457
 31
0.0
  0
LINE
  8
0
 62
     0
 10
212.171
 20
117.457
 30
0.0
 11
212.171
 21
111.657
 31
0.0
  0
LINE
  8
0
 62
     0
 10
212.171
 20
111.657
 30
0.0
 11
211.37
 21
111.657
 31
0.0
  0
LINE
  8
0
 62
     0
 10
211.37
 20
111.657
 30
0.0
 11
211.37
 21
108.558
 31
0.0
  0
LINE
  8
0
 62
     0
 10
211.37
 20
108.558
 30
0.0
 11
212.171
 21
108.558
 31
0.0
  0
LINE
  8
0
 62
     0
 10
212.171
 20
108.558
 30
0.0
 11
212.171
 21
107.557
 31
0.0
  0
LINE
  8
0
 62
     0
 10
212.171
 20
107.557
 30
0.0
 11
226.17
 21
107.557
 31
0.0
  0
LINE
  8
0
 62
     0
 10
226.17
 20
107.557
 30
0.0
 11
226.17
 21
108.558
 31
0.0
  0
LINE
  8
0
 62
     0
 10
226.17
 20
108.558
 30
0.0
 11
226.971
 21
108.558
 31
0.0
  0
LINE
  8
0
 62
     0
 10
226.971
 20
108.558
 30
0.0
 11
226.971
 21
111.657
 31
0.0
  0
LINE
  8
0
 62
     0
 10
226.971
 20
111.657
 30
0.0
 11
226.17
 21
111.657
 31
0.0
  0
LINE
  8
0
 62
     0
 10
226.17
 20
111.657
 30
0.0
 11
226.17
 21
117.457
 31
0.0
  0
LINE
  8
0
 62
     0
 10
226.17
 20
117.457
 30
0.0
 11
226.971
 21
117.457
 31
0.0
  0
LINE
  8
0
 62
     0
 10
226.971
 20
117.457
 30
0.0
 11
226.971
 21
120.558
 31
0.0
  0
LINE
  8
0
 62
     0
 10
226.971
 20
120.558
 30
0.0
 11
226.17
 21
120.558
 31
0.0
  0
LINE
  8
0
 62
     0
 10
226.17
 20
120.558
 30
0.0
 11
226.17
 21
121.557
 31
0.0
  0
LINE
  8
0
 62
     0
 10
226.17
 20
121.557
 30
0.0
 11
212.171
 21
121.557
 31
0.0
  0
LINE
  8
0
 62
     0
 10
231.221
 20
121.557
 30
0.0
 11
231.221
 21
120.558
 31
0.0
  0
LINE
  8
0
 62
     0
 10
231.221
 20
120.558
 30
0.0
 11
230.42
 21
120.558
 31
0.0
  0
LINE
  8
0
 62
     0
 10
230.42
 20
120.558
 30
0.0
 11
230.42
 21
117.457
 31
0.0
  0
LINE
  8
0
 62
     0
 10
230.42
 20
117.457
 30
0.0
 11
231.221
 21
117.457
 31
0.0
  0
LINE
  8
0
 62
     0
 10
231.221
 20
117.457
 30
0.0
 11
231.221
 21
111.657
 31
0.0
  0
LINE
  8
0
 62
     0
 10
231.221
 20
111.657
 30
0.0
 11
230.42
 21
111.657
 31
0.0
  0
LINE
  8
0
 62
     0
 10
230.42
 20
111.657
 30
0.0
 11
230.42
 21
108.558
 31
0.0
  0
LINE
  8
0
 62
     0
 10
230.42
 20
108.558
 30
0.0
 11
231.221
 21
108.558
 31
0.0
  0
LINE
  8
0
 62
     0
 10
231.221
 20
108.558
 30
0.0
 11
231.221
 21
107.557
 31
0.0
  0
LINE
  8
0
 62
     0
 10
231.221
 20
107.557
 30
0.0
 11
245.22
 21
107.557
 31
0.0
  0
LINE
  8
0
 62
     0
 10
245.22
 20
107.557
 30
0.0
 11
245.22
 21
108.558
 31
0.0
  0
LINE
  8
0
 62
     0
 10
245.22
 20
108.558
 30
0.0
 11
246.021
 21
108.558
 31
0.0
  0
LINE
  8
0
 62
     0
 10
246.021
 20
108.558
 30
0.0
 11
246.021
 21
111.657
 31
0.0
  0
LINE
  8
0
 62
     0
 10
246.021
 20
111.657
 30
0.0
 11
245.22
 21
111.657
 31
0.0
  0
LINE
  8
0
 62
     0
 10
245.22
 20
111.657
 30
0.0
 11
245.22
 21
117.457
 31
0.0
  0
LINE
  8
0
 62
     0
 10
245.22
 20
117.457
 30
0.0
 11
246.021
 21
117.457
 31
0.0
  0
LINE
  8
0
 62
     0
 10
246.021
 20
117.457
 30
0.0
 11
246.021
 21
120.558
 31
0.0
  0
LINE
  8
0
 62
     0
 10
246.021
 20
120.558
 30
0.0
 11
245.22
 21
120.558
 31
0.0
  0
LINE
  8
0
 62
     0
 10
245.22
 20
120.558
 30
0.0
 11
245.22
 21
121.557
 31
0.0
  0
LINE
  8
0
 62
     0
 10
245.22
 20
121.557
 30
0.0
 11
231.221
 21
121.557
 31
0.0
  0
LINE
  8
0
 62
     0
 10
250.271
 20
121.557
 30
0.0
 11
250.271
 21
120.558
 31
0.0
  0
LINE
  8
0
 62
     0
 10
250.271
 20
120.558
 30
0.0
 11
249.47
 21
120.558
 31
0.0
  0
LINE
  8
0
 62
     0
 10
249.47
 20
120.558
 30
0.0
 11
249.47
 21
117.457
 31
0.0
  0
LINE
  8
0
 62
     0
 10
249.47
 20
117.457
 30
0.0
 11
250.271
 21
117.457
 31
0.0
  0
LINE
  8
0
 62
     0
 10
250.271
 20
117.457
 30
0.0
 11
250.271
 21
111.657
 31
0.0
  0
LINE
  8
0
 62
     0
 10
250.271
 20
111.657
 30
0.0
 11
249.47
 21
111.657
 31
0.0
  0
LINE
  8
0
 62
     0
 10
249.47
 20
111.657
 30
0.0
 11
249.47
 21
108.558
 31
0.0
  0
LINE
  8
0
 62
     0
 10
249.47
 20
108.558
 30
0.0
 11
250.271
 21
108.558
 31
0.0
  0
LINE
  8
0
 62
     0
 10
250.271
 20
108.558
 30
0.0
 11
250.271
 21
107.557
 31
0.0
  0
LINE
  8
0
 62
     0
 10
250.271
 20
107.557
 30
0.0
 11
264.27
 21
107.557
 31
0.0
  0
LINE
  8
0
 62
     0
 10
264.27
 20
107.557
 30
0.0
 11
264.27
 21
108.558
 31
0.0
  0
LINE
  8
0
 62
     0
 10
264.27
 20
108.558
 30
0.0
 11
265.071
 21
108.558
 31
0.0
  0
LINE
  8
0
 62
     0
 10
265.071
 20
108.558
 30
0.0
 11
265.071
 21
111.657
 31
0.0
  0
LINE
  8
0
 62
     0
 10
265.071
 20
111.657
 30
0.0
 11
264.27
 21
111.657
 31
0.0
  0
LINE
  8
0
 62
     0
 10
264.27
 20
111.657
 30
0.0
 11
264.27
 21
117.457
 31
0.0
  0
LINE
  8
0
 62
     0
 10
264.27
 20
117.457
 30
0.0
 11
265.071
 21
117.457
 31
0.0
  0
LINE
  8
0
 62
     0
 10
265.071
 20
117.457
 30
0.0
 11
265.071
 21
120.558
 31
0.0
  0
LINE
  8
0
 62
     0
 10
265.071
 20
120.558
 30
0.0
 11
264.27
 21
120.558
 31
0.0
  0
LINE
  8
0
 62
     0
 10
264.27
 20
120.558
 30
0.0
 11
264.27
 21
121.557
 31
0.0
  0
LINE
  8
0
 62
     0
 10
264.27
 20
121.557
 30
0.0
 11
250.271
 21
121.557
 31
0.0
  0
LINE
  8
0
 62
     0
 10
269.321
 20
121.557
 30
0.0
 11
269.321
 21
120.558
 31
0.0
  0
LINE
  8
0
 62
     0
 10
269.321
 20
120.558
 30
0.0
 11
268.52
 21
120.558
 31
0.0
  0
LINE
  8
0
 62
     0
 10
268.52
 20
120.558
 30
0.0
 11
268.52
 21
117.457
 31
0.0
  0
LINE
  8
0
 62
     0
 10
268.52
 20
117.457
 30
0.0
 11
269.321
 21
117.457
 31
0.0
  0
LINE
  8
0
 62
     0
 10
269.321
 20
117.457
 30
0.0
 11
269.321
 21
111.657
 31
0.0
  0
LINE
  8
0
 62
     0
 10
269.321
 20
111.657
 30
0.0
 11
268.52
 21
111.657
 31
0.0
  0
LINE
  8
0
 62
     0
 10
268.52
 20
111.657
 30
0.0
 11
268.52
 21
108.558
 31
0.0
  0
LINE
  8
0
 62
     0
 10
268.52
 20
108.558
 30
0.0
 11
269.321
 21
108.558
 31
0.0
  0
LINE
  8
0
 62
     0
 10
269.321
 20
108.558
 30
0.0
 11
269.321
 21
107.557
 31
0.0
  0
LINE
  8
0
 62
     0
 10
269.321
 20
107.557
 30
0.0
 11
283.32
 21
107.557
 31
0.0
  0
LINE
  8
0
 62
     0
 10
283.32
 20
107.557
 30
0.0
 11
283.32
 21
108.558
 31
0.0
  0
LINE
  8
0
 62
     0
 10
283.32
 20
108.558
 30
0.0
 11
284.121
 21
108.558
 31
0.0
  0
LINE
  8
0
 62
     0
 10
284.121
 20
108.558
 30
0.0
 11
284.121
 21
111.657
 31
0.0
  0
LINE
  8
0
 62
     0
 10
284.121
 20
111.657
 30
0.0
 11
283.32
 21
111.657
 31
0.0
  0
LINE
  8
0
 62
     0
 10
283.32
 20
111.657
 30
0.0
 11
283.32
 21
117.457
 31
0.0
  0
LINE
  8
0
 62
     0
 10
283.32
 20
117.457
 30
0.0
 11
284.121
 21
117.457
 31
0.0
  0
LINE
  8
0
 62
     0
 10
284.121
 20
117.457
 30
0.0
 11
284.121
 21
120.558
 31
0.0
  0
LINE
  8
0
 62
     0
 10
284.121
 20
120.558
 30
0.0
 11
283.32
 21
120.558
 31
0.0
  0
LINE
  8
0
 62
     0
 10
283.32
 20
120.558
 30
0.0
 11
283.32
 21
121.557
 31
0.0
  0
LINE
  8
0
 62
     0
 10
283.32
 20
121.557
 30
0.0
 11
269.321
 21
121.557
 31
0.0
  0
LINE
  8
0
 62
     0
 10
293.132
 20
121.557
 30
0.0
 11
293.132
 21
120.558
 31
0.0
  0
LINE
  8
0
 62
     0
 10
293.132
 20
120.558
 30
0.0
 11
292.333
 21
120.558
 31
0.0
  0
LINE
  8
0
 62
     0
 10
292.333
 20
120.558
 30
0.0
 11
292.333
 21
117.457
 31
0.0
  0
LINE
  8
0
 62
     0
 10
292.333
 20
117.457
 30
0.0
 11
293.132
 21
117.457
 31
0.0
  0
LINE
  8
0
 62
     0
 10
293.132
 20
117.457
 30
0.0
 11
293.132
 21
111.657
 31
0.0
  0
LINE
  8
0
 62
     0
 10
293.132
 20
111.657
 30
0.0
 11
292.333
 21
111.657
 31
0.0
  0
LINE
  8
0
 62
     0
 10
292.333
 20
111.657
 30
0.0
 11
292.333
 21
108.558
 31
0.0
  0
LINE
  8
0
 62
     0
 10
292.333
 20
108.558
 30
0.0
 11
293.132
 21
108.558
 31
0.0
  0
LINE
  8
0
 62
     0
 10
293.132
 20
108.558
 30
0.0
 11
293.132
 21
107.557
 31
0.0
  0
LINE
  8
0
 62
     0
 10
293.132
 20
107.557
 30
0.0
 11
307.133
 21
107.557
 31
0.0
  0
LINE
  8
0
 62
     0
 10
307.133
 20
107.557
 30
0.0
 11
307.133
 21
108.558
 31
0.0
  0
LINE
  8
0
 62
     0
 10
307.133
 20
108.558
 30
0.0
 11
307.932
 21
108.558
 31
0.0
  0
LINE
  8
0
 62
     0
 10
307.932
 20
108.558
 30
0.0
 11
307.932
 21
111.657
 31
0.0
  0
LINE
  8
0
 62
     0
 10
307.932
 20
111.657
 30
0.0
 11
307.133
 21
111.657
 31
0.0
  0
LINE
  8
0
 62
     0
 10
307.133
 20
111.657
 30
0.0
 11
307.133
 21
117.457
 31
0.0
  0
LINE
  8
0
 62
     0
 10
307.133
 20
117.457
 30
0.0
 11
307.932
 21
117.457
 31
0.0
  0
LINE
  8
0
 62
     0
 10
307.932
 20
117.457
 30
0.0
 11
307.932
 21
120.558
 31
0.0
  0
LINE
  8
0
 62
     0
 10
307.932
 20
120.558
 30
0.0
 11
307.133
 21
120.558
 31
0.0
  0
LINE
  8
0
 62
     0
 10
307.133
 20
120.558
 30
0.0
 11
307.133
 21
121.557
 31
0.0
  0
LINE
  8
0
 62
     0
 10
307.133
 20
121.557
 30
0.0
 11
293.132
 21
121.557
 31
0.0
  0
LINE
  8
0
 62
     0
 10
312.182
 20
121.557
 30
0.0
 11
312.182
 21
120.558
 31
0.0
  0
LINE
  8
0
 62
     0
 10
312.182
 20
120.558
 30
0.0
 11
311.383
 21
120.558
 31
0.0
  0
LINE
  8
0
 62
     0
 10
311.383
 20
120.558
 30
0.0
 11
311.383
 21
117.457
 31
0.0
  0
LINE
  8
0
 62
     0
 10
311.383
 20
117.457
 30
0.0
 11
312.182
 21
117.457
 31
0.0
  0
LINE
  8
0
 62
     0
 10
312.182
 20
117.457
 30
0.0
 11
312.182
 21
111.657
 31
0.0
  0
LINE
  8
0
 62
     0
 10
312.182
 20
111.657
 30
0.0
 11
311.383
 21
111.657
 31
0.0
  0
LINE
  8
0
 62
     0
 10
311.383
 20
111.657
 30
0.0
 11
311.383
 21
108.558
 31
0.0
  0
LINE
  8
0
 62
     0
 10
311.383
 20
108.558
 30
0.0
 11
312.182
 21
108.558
 31
0.0
  0
LINE
  8
0
 62
     0
 10
312.182
 20
108.558
 30
0.0
 11
312.182
 21
107.557
 31
0.0
  0
LINE
  8
0
 62
     0
 10
312.182
 20
107.557
 30
0.0
 11
326.183
 21
107.557
 31
0.0
  0
LINE
  8
0
 62
     0
 10
326.183
 20
107.557
 30
0.0
 11
326.183
 21
108.558
 31
0.0
  0
LINE
  8
0
 62
     0
 10
326.183
 20
108.558
 30
0.0
 11
326.982
 21
108.558
 31
0.0
  0
LINE
  8
0
 62
     0
 10
326.982
 20
108.558
 30
0.0
 11
326.982
 21
111.657
 31
0.0
  0
LINE
  8
0
 62
     0
 10
326.982
 20
111.657
 30
0.0
 11
326.183
 21
111.657
 31
0.0
  0
LINE
  8
0
 62
     0
 10
326.183
 20
111.657
 30
0.0
 11
326.183
 21
117.457
 31
0.0
  0
LINE
  8
0
 62
     0
 10
326.183
 20
117.457
 30
0.0
 11
326.982
 21
117.457
 31
0.0
  0
LINE
  8
0
 62
     0
 10
326.982
 20
117.457
 30
0.0
 11
326.982
 21
120.558
 31
0.0
  0
LINE
  8
0
 62
     0
 10
326.982
 20
120.558
 30
0.0
 11
326.183
 21
120.558
 31
0.0
  0
LINE
  8
0
 62
     0
 10
326.183
 20
120.558
 30
0.0
 11
326.183
 21
121.557
 31
0.0
  0
LINE
  8
0
 62
     0
 10
326.183
 20
121.557
 30
0.0
 11
312.182
 21
121.557
 31
0.0
  0
LINE
  8
0
 62
     0
 10
331.232
 20
121.557
 30
0.0
 11
331.232
 21
120.558
 31
0.0
  0
LINE
  8
0
 62
     0
 10
331.232
 20
120.558
 30
0.0
 11
330.433
 21
120.558
 31
0.0
  0
LINE
  8
0
 62
     0
 10
330.433
 20
120.558
 30
0.0
 11
330.433
 21
117.457
 31
0.0
  0
LINE
  8
0
 62
     0
 10
330.433
 20
117.457
 30
0.0
 11
331.232
 21
117.457
 31
0.0
  0
LINE
  8
0
 62
     0
 10
331.232
 20
117.457
 30
0.0
 11
331.232
 21
111.657
 31
0.0
  0
LINE
  8
0
 62
     0
 10
331.232
 20
111.657
 30
0.0
 11
330.433
 21
111.657
 31
0.0
  0
LINE
  8
0
 62
     0
 10
330.433
 20
111.657
 30
0.0
 11
330.433
 21
108.558
 31
0.0
  0
LINE
  8
0
 62
     0
 10
330.433
 20
108.558
 30
0.0
 11
331.232
 21
108.558
 31
0.0
  0
LINE
  8
0
 62
     0
 10
331.232
 20
108.558
 30
0.0
 11
331.232
 21
107.557
 31
0.0
  0
LINE
  8
0
 62
     0
 10
331.232
 20
107.557
 30
0.0
 11
345.233
 21
107.557
 31
0.0
  0
LINE
  8
0
 62
     0
 10
345.233
 20
107.557
 30
0.0
 11
345.233
 21
108.558
 31
0.0
  0
LINE
  8
0
 62
     0
 10
345.233
 20
108.558
 30
0.0
 11
346.032
 21
108.558
 31
0.0
  0
LINE
  8
0
 62
     0
 10
346.032
 20
108.558
 30
0.0
 11
346.032
 21
111.657
 31
0.0
  0
LINE
  8
0
 62
     0
 10
346.032
 20
111.657
 30
0.0
 11
345.233
 21
111.657
 31
0.0
  0
LINE
  8
0
 62
     0
 10
345.233
 20
111.657
 30
0.0
 11
345.233
 21
117.457
 31
0.0
  0
LINE
  8
0
 62
     0
 10
345.233
 20
117.457
 30
0.0
 11
346.032
 21
117.457
 31
0.0
  0
LINE
  8
0
 62
     0
 10
346.032
 20
117.457
 30
0.0
 11
346.032
 21
120.558
 31
0.0
  0
LINE
  8
0
 62
     0
 10
346.032
 20
120.558
 30
0.0
 11
345.233
 21
120.558
 31
0.0
  0
LINE
  8
0
 62
     0
 10
345.233
 20
120.558
 30
0.0
 11
345.233
 21
121.557
 31
0.0
  0
LINE
  8
0
 62
     0
 10
345.233
 20
121.557
 30
0.0
 11
331.232
 21
121.557
 31
0.0
  0
LINE
  8
0
 62
     0
 10
355.046
 20
121.557
 30
0.0
 11
355.046
 21
120.558
 31
0.0
  0
LINE
  8
0
 62
     0
 10
355.046
 20
120.558
 30
0.0
 11
354.245
 21
120.558
 31
0.0
  0
LINE
  8
0
 62
     0
 10
354.245
 20
120.558
 30
0.0
 11
354.245
 21
117.457
 31
0.0
  0
LINE
  8
0
 62
     0
 10
354.245
 20
117.457
 30
0.0
 11
355.046
 21
117.457
 31
0.0
  0
LINE
  8
0
 62
     0
 10
355.046
 20
117.457
 30
0.0
 11
355.046
 21
111.657
 31
0.0
  0
LINE
  8
0
 62
     0
 10
355.046
 20
111.657
 30
0.0
 11
354.245
 21
111.657
 31
0.0
  0
LINE
  8
0
 62
     0
 10
354.245
 20
111.657
 30
0.0
 11
354.245
 21
108.558
 31
0.0
  0
LINE
  8
0
 62
     0
 10
354.245
 20
108.558
 30
0.0
 11
355.046
 21
108.558
 31
0.0
  0
LINE
  8
0
 62
     0
 10
355.046
 20
108.558
 30
0.0
 11
355.046
 21
107.557
 31
0.0
  0
LINE
  8
0
 62
     0
 10
355.046
 20
107.557
 30
0.0
 11
369.044
 21
107.557
 31
0.0
  0
LINE
  8
0
 62
     0
 10
369.044
 20
107.557
 30
0.0
 11
369.044
 21
108.558
 31
0.0
  0
LINE
  8
0
 62
     0
 10
369.044
 20
108.558
 30
0.0
 11
369.845
 21
108.558
 31
0.0
  0
LINE
  8
0
 62
     0
 10
369.845
 20
108.558
 30
0.0
 11
369.845
 21
111.657
 31
0.0
  0
LINE
  8
0
 62
     0
 10
369.845
 20
111.657
 30
0.0
 11
369.044
 21
111.657
 31
0.0
  0
LINE
  8
0
 62
     0
 10
369.044
 20
111.657
 30
0.0
 11
369.044
 21
117.457
 31
0.0
  0
LINE
  8
0
 62
     0
 10
369.044
 20
117.457
 30
0.0
 11
369.845
 21
117.457
 31
0.0
  0
LINE
  8
0
 62
     0
 10
369.845
 20
117.457
 30
0.0
 11
369.845
 21
120.558
 31
0.0
  0
LINE
  8
0
 62
     0
 10
369.845
 20
120.558
 30
0.0
 11
369.044
 21
120.558
 31
0.0
  0
LINE
  8
0
 62
     0
 10
369.044
 20
120.558
 30
0.0
 11
369.044
 21
121.557
 31
0.0
  0
LINE
  8
0
 62
     0
 10
369.044
 20
121.557
 30
0.0
 11
355.046
 21
121.557
 31
0.0
  0
ENDSEC
  0
EOF
